{
DisplayStrings = (
AileronM,
"{}[]()",
/guilsinglright,
"\U00A4"
);
classes = (
{
automatic = 1;
code = "A Aacute Abreve Acircumflex Adieresis Agrave Amacron Aogonek Aring Atilde AE B C Cacute Ccaron Ccedilla Cdotaccent D Eth Dcaron Dcroat E Eacute Ecaron Ecircumflex Edieresis Edotaccent Egrave Emacron Eogonek F G Gbreve Gcommaaccent Gdotaccent H Hbar I IJ Iacute Icircumflex Idieresis Idotaccent Igrave Imacron Iogonek J K Kcommaaccent L Lacute Lcaron Lcommaaccent Ldot Lslash M N Nacute Ncaron Ncommaaccent Eng Ntilde O Oacute Ocircumflex Odieresis Ograve Ohungarumlaut Omacron Oslash Otilde OE P Thorn Q R Racute Rcaron Rcommaaccent S Sacute Scaron Scedilla Scommaaccent T Tbar Tcaron Tcedilla Tcommaaccent U Uacute Ucircumflex Udieresis Ugrave Uhungarumlaut Umacron Uogonek Uring V W Wacute Wcircumflex Wdieresis Wgrave X Y Yacute Ycircumflex Ydieresis Ygrave Z Zacute Zcaron Zdotaccent";
name = Uppercase;
}
);
copyright = "No Rights Reserved.";
date = "2014-04-12 08:39:34 +0000";
designer = "Sora Sagano";
designerURL = "http://www.dotcolon.net";
familyName = "Aileron";
featurePrefixes = (
{
automatic = 1;
code = "languagesystem DFLT dflt;\012languagesystem latn dflt;\012languagesystem latn ROM;\012languagesystem latn MOL;\012languagesystem latn CAT;\012";
name = Languagesystems;
}
);
features = (
{
automatic = 1;
code = "feature locl;\012";
name = aalt;
},
{
automatic = 1;
code = "script latn;\012language ROM;\012sub Scedilla by Scommaaccent;\012sub scedilla by scommaaccent;\012sub Tcedilla by Tcommaaccent;\012sub tcedilla by tcommaaccent;\012language MOL;\012sub Scedilla by Scommaaccent;\012sub scedilla by scommaaccent;\012sub Tcedilla by Tcommaaccent;\012sub tcedilla by tcommaaccent;\012language CAT;\012sub  l' periodcentered' l by ldot;\012sub  L' periodcentered' L by Ldot;\012";
name = locl;
},
{
automatic = 1;
code = "sub f i by fi;\012sub f l by fl;\012";
name = liga;
},
{
automatic = 1;
code = "pos @Uppercase <5 0 10 0>;\012";
name = cpsp;
}
);
fontMaster = (
{

glyphs = (
{
glyphname = A;
lastChange = "2014-04-12 01:45:39 +0900";
layers = (
{
anchors = (
{
name = ogonek;
position = "{583, 0}";
},
{
name = top;
position = "{317, 690}";
}
);
layerId = "4375068D-FDA0-47DA-A897-61BBB4269C7B";
name = Light;
paths = (
{
closed = 1;
nodes = (
"303 690 LINE",
"36 0 LINE",
"59 0 LINE",
"167 281 LINE",
"317 671 LINE",
"466 282 LINE",
"575 0 LINE",
"599 0 LINE",
"332 690 LINE"
);
},
{
closed = 1;
nodes = (
"155 290 LINE",
"155 269 LINE",
"481 269 LINE",
"481 290 LINE"
);
}
);
width = 616;
},
{
anchors = (
{
name = ogonek;
position = "{535, 0}";
},
{
name = top;
position = "{335, 690}";
}
);
layerId = "518735FF-A855-4455-BD68-071AC00DFA4E";
name = Regular;
paths = (
{
closed = 1;
nodes = (
"277 690 LINE",
"29 0 LINE",
"121 0 LINE",
"215 282 LINE",
"333 622 LINE",
"443 282 LINE",
"538 0 LINE",
"631 0 LINE",
"393 690 LINE"
);
},
{
closed = 1;
nodes = (
"152 314 LINE",
"152 244 LINE",
"503 244 LINE",
"503 314 LINE"
);
}
);
width = 639;
},
{
anchors = (
{
name = ogonek;
position = "{526, 0}";
},
{
name = top;
position = "{363, 690}";
}
);
layerId = "F37E1481-2EA3-4843-874F-9D06DA6D7C4C";
name = Bold;
paths = (
{
closed = 1;
nodes = (
"253 690 LINE",
"4 0 LINE",
"195 0 LINE",
"276 249 LINE",
"361 531 LINE",
"445 252 LINE",
"526 0 LINE",
"722 0 LINE",
"473 690 LINE"
);
},
{
closed = 1;
nodes = (
"185 319 LINE",
"185 179 LINE",
"536 179 LINE",
"536 319 LINE"
);
}
);
width = 707;
}
);
leftKerningGroup = A;
rightKerningGroup = A;
unicode = 0041;
},
{
glyphname = AE;
lastChange = "2014-04-12 01:45:39 +0900";
layers = (
{
anchors = (
{
name = top;
position = "{347, 690}";
}
);
layerId = "4375068D-FDA0-47DA-A897-61BBB4269C7B";
name = Light;
paths = (
{
closed = 1;
nodes = (
"424 690 LINE",
"-10 0 LINE",
"16 0 LINE",
"448 690 LINE"
);
},
{
closed = 1;
nodes = (
"185 290 LINE",
"172 269 LINE",
"455 269 LINE",
"455 290 LINE"
);
},
{
closed = 1;
nodes = (
"474 20 LINE",
"474 0 LINE",
"865 0 LINE",
"865 20 LINE"
);
},
{
closed = 1;
nodes = (
"433 690 LINE",
"463 0 LINE",
"485 0 LINE",
"455 690 LINE"
);
},
{
closed = 1;
nodes = (
"464 355 LINE",
"464 335 LINE",
"835 335 LINE",
"835 355 LINE"
);
},
{
closed = 1;
nodes = (
"446 690 LINE",
"444 670 LINE",
"855 670 LINE",
"855 690 LINE"
);
}
);
width = 897;
},
{
anchors = (
{
name = top;
position = "{371, 690}";
}
);
layerId = "518735FF-A855-4455-BD68-071AC00DFA4E";
name = Regular;
paths = (
{
closed = 1;
nodes = (
"363 690 LINE",
"-35 0 LINE",
"58 0 LINE",
"448 690 LINE"
);
},
{
closed = 1;
nodes = (
"213 314 LINE",
"168 244 LINE",
"449 244 LINE",
"449 314 LINE"
);
},
{
closed = 1;
nodes = (
"506 70 LINE",
"506 0 LINE",
"880 0 LINE",
"880 70 LINE"
);
},
{
closed = 1;
nodes = (
"405 690 LINE",
"445 0 LINE",
"531 0 LINE",
"491 690 LINE"
);
},
{
closed = 1;
nodes = (
"496 380 LINE",
"496 310 LINE",
"840 310 LINE",
"840 380 LINE"
);
},
{
closed = 1;
nodes = (
"466 690 LINE",
"466 620 LINE",
"870 620 LINE",
"870 690 LINE"
);
}
);
width = 908;
},
{
anchors = (
{
name = top;
position = "{489, 690}";
}
);
layerId = "F37E1481-2EA3-4843-874F-9D06DA6D7C4C";
name = Bold;
paths = (
{
closed = 1;
nodes = (
"317 690 LINE",
"-42 0 LINE",
"149 0 LINE",
"477 690 LINE"
);
},
{
closed = 1;
nodes = (
"216 349 LINE",
"144 209 LINE",
"470 209 LINE",
"470 349 LINE"
);
},
{
closed = 1;
nodes = (
"591 140 LINE",
"591 0 LINE",
"966 0 LINE",
"966 140 LINE"
);
},
{
closed = 1;
nodes = (
"390 690 LINE",
"470 0 LINE",
"650 0 LINE",
"570 690 LINE"
);
},
{
closed = 1;
nodes = (
"591 416 LINE",
"591 276 LINE",
"936 276 LINE",
"936 416 LINE"
);
},
{
closed = 1;
nodes = (
"511 690 LINE",
"591 550 LINE",
"956 550 LINE",
"956 690 LINE"
);
}
);
width = 996;
}
);
rightKerningGroup = E;
rightMetricsKey = E;
unicode = 00C6;
},
{
glyphname = B;
lastChange = "2014-04-12 01:45:39 +0900";
layers = (
{
layerId = "518735FF-A855-4455-BD68-071AC00DFA4E";
name = Regular;
paths = (
{
closed = 1;
nodes = (
"156 690 LINE",
"156 620 LINE",
"310 620 LINE SMOOTH",
"326 620 OFFCURVE",
"347 620 OFFCURVE",
"365 618 CURVE SMOOTH",
"427 611 OFFCURVE",
"471 579 OFFCURVE",
"471 511 CURVE SMOOTH",
"471 450 OFFCURVE",
"445 408 OFFCURVE",
"374 397 CURVE SMOOTH",
"354 394 OFFCURVE",
"337 393 OFFCURVE",
"319 393 CURVE SMOOTH",
"156 393 LINE",
"156 323 LINE",
"329 323 LINE SMOOTH",
"345 323 OFFCURVE",
"361 322 OFFCURVE",
"384 319 CURVE SMOOTH",
"450 310 OFFCURVE",
"496 279 OFFCURVE",
"496 194 CURVE SMOOTH",
"496 119 OFFCURVE",
"449 78 OFFCURVE",
"383 72 CURVE SMOOTH",
"370 71 OFFCURVE",
"351 70 OFFCURVE",
"335 70 CURVE SMOOTH",
"156 70 LINE",
"156 0 LINE",
"322 0 LINE SMOOTH",
"354 0 OFFCURVE",
"376 0 OFFCURVE",
"410 5 CURVE SMOOTH",
"501 19 OFFCURVE",
"588 77 OFFCURVE",
"588 203 CURVE SMOOTH",
"588 321 OFFCURVE",
"510 367 OFFCURVE",
"372 378 CURVE",
"372 351 LINE",
"485 367 OFFCURVE",
"563 410 OFFCURVE",
"563 518 CURVE SMOOTH",
"563 616 OFFCURVE",
"502 671 OFFCURVE",
"393 686 CURVE SMOOTH",
"360 690 OFFCURVE",
"336 690 OFFCURVE",
"303 690 CURVE SMOOTH"
);
},
{
closed = 1;
nodes = (
"100 690 LINE",
"100 0 LINE",
"186 0 LINE",
"186 690 LINE"
);
}
);
width = 627;
},
{
layerId = "4375068D-FDA0-47DA-A897-61BBB4269C7B";
name = Light;
paths = (
{
closed = 1;
nodes = (
"113 690 LINE",
"113 669 LINE",
"270 669 LINE SMOOTH",
"296 669 OFFCURVE",
"312 669 OFFCURVE",
"335 668 CURVE SMOOTH",
"415 665 OFFCURVE",
"498 629 OFFCURVE",
"498 520 CURVE SMOOTH",
"498 411 OFFCURVE",
"411 377 OFFCURVE",
"339 373 CURVE SMOOTH",
"316 372 OFFCURVE",
"300 372 OFFCURVE",
"284 372 CURVE SMOOTH",
"113 372 LINE",
"113 351 LINE",
"298 351 LINE SMOOTH",
"314 351 OFFCURVE",
"327 351 OFFCURVE",
"350 350 CURVE SMOOTH",
"484 344 OFFCURVE",
"524 261 OFFCURVE",
"524 182 CURVE SMOOTH",
"524 73 OFFCURVE",
"434 28 OFFCURVE",
"349 22 CURVE SMOOTH",
"336 21 OFFCURVE",
"320 21 OFFCURVE",
"304 21 CURVE SMOOTH",
"113 21 LINE",
"113 0 LINE",
"288 0 LINE SMOOTH",
"312 0 OFFCURVE",
"331 0 OFFCURVE",
"356 2 CURVE SMOOTH",
"459 8 OFFCURVE",
"548 73 OFFCURVE",
"548 183 CURVE SMOOTH",
"548 287 OFFCURVE",
"484 362 OFFCURVE",
"353 367 CURVE",
"353 361 LINE",
"456 361 OFFCURVE",
"522 426 OFFCURVE",
"522 525 CURVE SMOOTH",
"522 621 OFFCURVE",
"452 681 OFFCURVE",
"348 688 CURVE SMOOTH",
"313 690 OFFCURVE",
"297 690 OFFCURVE",
"270 690 CURVE SMOOTH"
);
},
{
closed = 1;
nodes = (
"96 690 LINE",
"96 0 LINE",
"118 0 LINE",
"118 690 LINE"
);
}
);
width = 587;
},
{
layerId = "F37E1481-2EA3-4843-874F-9D06DA6D7C4C";
name = Bold;
paths = (
{
closed = 1;
nodes = (
"240 690 LINE",
"240 550 LINE",
"341 550 LINE SMOOTH",
"357 550 OFFCURVE",
"373 549 OFFCURVE",
"386 547 CURVE SMOOTH",
"420 542 OFFCURVE",
"441 523 OFFCURVE",
"441 484 CURVE SMOOTH",
"441 443 OFFCURVE",
"418 426 OFFCURVE",
"385 421 CURVE SMOOTH",
"372 419 OFFCURVE",
"357 418 OFFCURVE",
"341 418 CURVE SMOOTH",
"240 418 LINE",
"240 288 LINE",
"352 288 LINE SMOOTH",
"368 288 OFFCURVE",
"384 288 OFFCURVE",
"397 287 CURVE SMOOTH",
"434 284 OFFCURVE",
"467 260 OFFCURVE",
"467 214 CURVE SMOOTH",
"467 169 OFFCURVE",
"434 143 OFFCURVE",
"402 141 CURVE SMOOTH",
"389 140 OFFCURVE",
"373 140 OFFCURVE",
"357 140 CURVE SMOOTH",
"240 140 LINE",
"240 0 LINE",
"355 0 LINE SMOOTH",
"399 0 OFFCURVE",
"422 0 OFFCURVE",
"457 4 CURVE SMOOTH",
"550 15 OFFCURVE",
"655 79 OFFCURVE",
"655 208 CURVE SMOOTH",
"655 322 OFFCURVE",
"582 388 OFFCURVE",
"418 388 CURVE",
"418 357 LINE",
"560 360 OFFCURVE",
"629 419 OFFCURVE",
"629 510 CURVE SMOOTH",
"629 600 OFFCURVE",
"565 672 OFFCURVE",
"451 686 CURVE SMOOTH",
"416 690 OFFCURVE",
"400 690 OFFCURVE",
"363 690 CURVE SMOOTH"
);
},
{
closed = 1;
nodes = (
"80 690 LINE",
"80 0 LINE",
"260 0 LINE",
"260 690 LINE"
);
}
);
width = 681;
}
);
leftKerningGroup = H;
leftMetricsKey = H;
unicode = 0042;
},
{
glyphname = C;
lastChange = "2014-04-12 01:45:39 +0900";
layers = (
{
anchors = (
{
name = bottom;
position = "{346, 0}";
},
{
name = top;
position = "{366, 690}";
}
);
layerId = "518735FF-A855-4455-BD68-071AC00DFA4E";
name = Regular;
paths = (
{
closed = 1;
nodes = (
"177 704 OFFCURVE",
"47 552 OFFCURVE",
"47 342 CURVE SMOOTH",
"47 140 OFFCURVE",
"159 -14 OFFCURVE",
"360 -14 CURVE SMOOTH",
"542 -14 OFFCURVE",
"635 95 OFFCURVE",
"648 220 CURVE SMOOTH",
"649 230 LINE",
"563 230 LINE",
"561 220 LINE SMOOTH",
"541 121 OFFCURVE",
"480 54 OFFCURVE",
"365 54 CURVE SMOOTH",
"229 54 OFFCURVE",
"143 176 OFFCURVE",
"143 346 CURVE SMOOTH",
"143 513 OFFCURVE",
"230 636 OFFCURVE",
"371 636 CURVE SMOOTH",
"486 636 OFFCURVE",
"547 569 OFFCURVE",
"567 470 CURVE SMOOTH",
"569 460 LINE",
"655 460 LINE",
"654 470 LINE SMOOTH",
"640 605 OFFCURVE",
"548 704 OFFCURVE",
"373 704 CURVE SMOOTH"
);
}
);
width = 699;
},
{
anchors = (
{
name = bottom;
position = "{360, 0}";
},
{
name = top;
position = "{344, 690}";
}
);
layerId = "4375068D-FDA0-47DA-A897-61BBB4269C7B";
name = Light;
paths = (
{
closed = 1;
nodes = (
"187 704 OFFCURVE",
"51 558 OFFCURVE",
"51 343 CURVE SMOOTH",
"51 118 OFFCURVE",
"179 -14 OFFCURVE",
"350 -14 CURVE SMOOTH",
"515 -14 OFFCURVE",
"600 88 OFFCURVE",
"626 217 CURVE SMOOTH",
"628 227 LINE",
"606 227 LINE",
"604 217 LINE SMOOTH",
"580 99 OFFCURVE",
"500 7 OFFCURVE",
"352 7 CURVE SMOOTH",
"204 7 OFFCURVE",
"75 115 OFFCURVE",
"75 344 CURVE SMOOTH",
"75 565 OFFCURVE",
"216 683 OFFCURVE",
"360 683 CURVE SMOOTH",
"497 683 OFFCURVE",
"579 597 OFFCURVE",
"602 484 CURVE SMOOTH",
"604 474 LINE",
"626 474 LINE",
"624 484 LINE SMOOTH",
"599 608 OFFCURVE",
"515 704 OFFCURVE",
"364 704 CURVE SMOOTH"
);
}
);
width = 677;
},
{
anchors = (
{
name = bottom;
position = "{378, 0}";
},
{
name = top;
position = "{384, 690}";
}
);
layerId = "F37E1481-2EA3-4843-874F-9D06DA6D7C4C";
name = Bold;
paths = (
{
closed = 1;
nodes = (
"208 704 OFFCURVE",
"54 580 OFFCURVE",
"54 340 CURVE SMOOTH",
"54 106 OFFCURVE",
"203 -14 OFFCURVE",
"388 -14 CURVE SMOOTH",
"561 -14 OFFCURVE",
"688 71 OFFCURVE",
"705 237 CURVE SMOOTH",
"706 247 LINE",
"526 247 LINE",
"524 237 LINE SMOOTH",
"509 161 OFFCURVE",
"464 118 OFFCURVE",
"394 118 CURVE SMOOTH",
"314 118 OFFCURVE",
"242 177 OFFCURVE",
"242 351 CURVE SMOOTH",
"242 500 OFFCURVE",
"307 572 OFFCURVE",
"393 572 CURVE SMOOTH",
"466 572 OFFCURVE",
"511 537 OFFCURVE",
"526 463 CURVE SMOOTH",
"528 453 LINE",
"708 453 LINE",
"707 463 LINE SMOOTH",
"693 599 OFFCURVE",
"592 704 OFFCURVE",
"395 704 CURVE SMOOTH"
);
}
);
width = 734;
}
);
leftKerningGroup = O;
leftMetricsKey = O;
rightKerningGroup = C;
unicode = 0043;
},
{
glyphname = D;
lastChange = "2014-04-12 01:45:39 +0900";
layers = (
{
anchors = (
{
name = center;
position = "{380, 345}";
},
{
name = top;
position = "{370, 690}";
}
);
layerId = "518735FF-A855-4455-BD68-071AC00DFA4E";
name = Regular;
paths = (
{
closed = 1;
nodes = (
"180 690 LINE",
"180 620 LINE",
"305 620 LINE SMOOTH",
"341 620 OFFCURVE",
"367 619 OFFCURVE",
"389 615 CURVE SMOOTH",
"506 596 OFFCURVE",
"577 506 OFFCURVE",
"577 353 CURVE SMOOTH",
"577 190 OFFCURVE",
"501 94 OFFCURVE",
"384 75 CURVE SMOOTH",
"362 71 OFFCURVE",
"336 70 OFFCURVE",
"300 70 CURVE SMOOTH",
"180 70 LINE",
"180 0 LINE",
"305 0 LINE SMOOTH",
"342 0 OFFCURVE",
"358 0 OFFCURVE",
"393 4 CURVE SMOOTH",
"553 24 OFFCURVE",
"671 150 OFFCURVE",
"671 353 CURVE SMOOTH",
"671 559 OFFCURVE",
"558 666 OFFCURVE",
"398 686 CURVE SMOOTH",
"363 690 OFFCURVE",
"347 690 OFFCURVE",
"310 690 CURVE SMOOTH"
);
},
{
closed = 1;
nodes = (
"100 690 LINE",
"100 0 LINE",
"186 0 LINE",
"186 690 LINE"
);
}
);
width = 709;
},
{
anchors = (
{
name = center;
position = "{362, 345}";
},
{
name = top;
position = "{342, 690}";
}
);
layerId = "4375068D-FDA0-47DA-A897-61BBB4269C7B";
name = Light;
paths = (
{
closed = 1;
nodes = (
"110 690 LINE",
"110 669 LINE",
"295 669 LINE SMOOTH",
"331 669 OFFCURVE",
"345 669 OFFCURVE",
"367 667 CURVE SMOOTH",
"476 657 OFFCURVE",
"617 565 OFFCURVE",
"617 348 CURVE SMOOTH",
"617 141 OFFCURVE",
"489 38 OFFCURVE",
"380 25 CURVE SMOOTH",
"347 21 OFFCURVE",
"326 21 OFFCURVE",
"295 21 CURVE SMOOTH",
"110 21 LINE",
"110 0 LINE",
"295 0 LINE SMOOTH",
"327 0 OFFCURVE",
"348 0 OFFCURVE",
"383 4 CURVE SMOOTH",
"476 15 OFFCURVE",
"641 105 OFFCURVE",
"641 348 CURVE SMOOTH",
"641 592 OFFCURVE",
"474 680 OFFCURVE",
"368 688 CURVE SMOOTH",
"343 690 OFFCURVE",
"327 690 OFFCURVE",
"295 690 CURVE SMOOTH"
);
},
{
closed = 1;
nodes = (
"96 690 LINE",
"96 0 LINE",
"118 0 LINE",
"118 690 LINE"
);
}
);
width = 679;
},
{
anchors = (
{
name = center;
position = "{398, 345}";
},
{
name = top;
position = "{385, 690}";
}
);
layerId = "F37E1481-2EA3-4843-874F-9D06DA6D7C4C";
name = Bold;
paths = (
{
closed = 1;
nodes = (
"240 690 LINE",
"240 550 LINE",
"316 550 LINE SMOOTH",
"342 550 OFFCURVE",
"358 550 OFFCURVE",
"381 548 CURVE SMOOTH",
"471 540 OFFCURVE",
"533 474 OFFCURVE",
"533 351 CURVE SMOOTH",
"533 228 OFFCURVE",
"471 150 OFFCURVE",
"381 142 CURVE SMOOTH",
"358 140 OFFCURVE",
"342 140 OFFCURVE",
"316 140 CURVE SMOOTH",
"240 140 LINE",
"240 0 LINE",
"341 0 LINE SMOOTH",
"378 0 OFFCURVE",
"394 0 OFFCURVE",
"429 4 CURVE SMOOTH",
"589 22 OFFCURVE",
"721 138 OFFCURVE",
"721 354 CURVE SMOOTH",
"721 570 OFFCURVE",
"589 668 OFFCURVE",
"429 686 CURVE SMOOTH",
"394 690 OFFCURVE",
"378 690 OFFCURVE",
"341 690 CURVE SMOOTH"
);
},
{
closed = 1;
nodes = (
"80 690 LINE",
"80 0 LINE",
"260 0 LINE",
"260 690 LINE"
);
}
);
width = 749;
}
);
leftKerningGroup = H;
leftMetricsKey = H;
rightKerningGroup = O;
rightMetricsKey = O;
unicode = 0044;
},
{
glyphname = Eth;
lastChange = "2014-08-20 09:22:16 +0900";
layers = (
{
components = (
{
name = D;
transform = "{1, 0, 0, 1, 6, 0}";
}
);
layerId = "4375068D-FDA0-47DA-A897-61BBB4269C7B";
name = Light;
paths = (
{
closed = 1;
nodes = (
"42 344 LINE",
"42 323 LINE",
"308 323 LINE",
"308 344 LINE"
);
}
);
width = 685;
},
{
components = (
{
name = D;
transform = "{1, 0, 0, 1, -8, 0}";
}
);
layerId = "518735FF-A855-4455-BD68-071AC00DFA4E";
name = Regular;
paths = (
{
closed = 1;
nodes = (
"33 361 LINE",
"33 305 LINE",
"314 305 LINE",
"314 361 LINE"
);
}
);
width = 701;
},
{
components = (
{
name = D;
transform = "{1, 0, 0, 1, 10, 0}";
}
);
layerId = "F37E1481-2EA3-4843-874F-9D06DA6D7C4C";
name = Bold;
paths = (
{
closed = 1;
nodes = (
"31 389 LINE",
"31 293 LINE",
"372 293 LINE",
"372 389 LINE"
);
}
);
width = 759;
}
);
rightKerningGroup = O;
rightMetricsKey = D;
unicode = 00D0;
},
{
glyphname = E;
lastChange = "2014-04-12 01:45:39 +0900";
layers = (
{
anchors = (
{
name = bottom;
position = "{305, 0}";
},
{
name = ogonek;
position = "{497, 0}";
},
{
name = top;
position = "{336, 690}";
}
);
layerId = "518735FF-A855-4455-BD68-071AC00DFA4E";
name = Regular;
paths = (
{
closed = 1;
nodes = (
"100 690 LINE",
"100 0 LINE",
"186 0 LINE",
"186 690 LINE"
);
},
{
closed = 1;
nodes = (
"161 70 LINE",
"161 0 LINE",
"559 0 LINE",
"559 70 LINE"
);
},
{
closed = 1;
nodes = (
"161 380 LINE",
"161 310 LINE",
"519 310 LINE",
"519 380 LINE"
);
},
{
closed = 1;
nodes = (
"161 690 LINE",
"161 620 LINE",
"549 620 LINE",
"549 690 LINE"
);
}
);
width = 587;
},
{
anchors = (
{
name = bottom;
position = "{290, 0}";
},
{
name = ogonek;
position = "{514, 0}";
},
{
name = top;
position = "{290, 690}";
}
);
layerId = "4375068D-FDA0-47DA-A897-61BBB4269C7B";
name = Light;
paths = (
{
closed = 1;
nodes = (
"96 690 LINE",
"96 0 LINE",
"118 0 LINE",
"118 690 LINE"
);
},
{
closed = 1;
nodes = (
"107 20 LINE",
"107 0 LINE",
"525 0 LINE",
"525 20 LINE"
);
},
{
closed = 1;
nodes = (
"107 355 LINE",
"107 335 LINE",
"495 335 LINE",
"495 355 LINE"
);
},
{
closed = 1;
nodes = (
"107 690 LINE",
"107 670 LINE",
"515 670 LINE",
"515 690 LINE"
);
}
);
width = 557;
},
{
anchors = (
{
name = bottom;
position = "{328, 0}";
},
{
name = ogonek;
position = "{436, 0}";
},
{
name = top;
position = "{340, 690}";
}
);
layerId = "F37E1481-2EA3-4843-874F-9D06DA6D7C4C";
name = Bold;
paths = (
{
closed = 1;
nodes = (
"80 690 LINE",
"80 0 LINE",
"260 0 LINE",
"260 690 LINE"
);
},
{
closed = 1;
nodes = (
"201 140 LINE",
"201 0 LINE",
"609 0 LINE",
"609 140 LINE"
);
},
{
closed = 1;
nodes = (
"201 416 LINE",
"201 276 LINE",
"579 276 LINE",
"579 416 LINE"
);
},
{
closed = 1;
nodes = (
"201 690 LINE",
"201 550 LINE",
"599 550 LINE",
"599 690 LINE"
);
}
);
width = 639;
}
);
leftKerningGroup = H;
leftMetricsKey = H;
rightKerningGroup = E;
unicode = 0045;
},
{
glyphname = F;
lastChange = "2014-04-12 01:45:39 +0900";
layers = (
{
layerId = "518735FF-A855-4455-BD68-071AC00DFA4E";
name = Regular;
paths = (
{
closed = 1;
nodes = (
"100 690 LINE",
"100 0 LINE",
"186 0 LINE",
"186 690 LINE"
);
},
{
closed = 1;
nodes = (
"161 380 LINE",
"161 310 LINE",
"509 310 LINE",
"509 380 LINE"
);
},
{
closed = 1;
nodes = (
"161 690 LINE",
"161 620 LINE",
"549 620 LINE",
"549 690 LINE"
);
}
);
width = 567;
},
{
layerId = "4375068D-FDA0-47DA-A897-61BBB4269C7B";
name = Light;
paths = (
{
closed = 1;
nodes = (
"96 690 LINE",
"96 0 LINE",
"118 0 LINE",
"118 690 LINE"
);
},
{
closed = 1;
nodes = (
"107 355 LINE",
"107 335 LINE",
"485 335 LINE",
"485 355 LINE"
);
},
{
closed = 1;
nodes = (
"107 690 LINE",
"107 670 LINE",
"515 670 LINE",
"515 690 LINE"
);
}
);
width = 531;
},
{
layerId = "F37E1481-2EA3-4843-874F-9D06DA6D7C4C";
name = Bold;
paths = (
{
closed = 1;
nodes = (
"80 690 LINE",
"80 0 LINE",
"260 0 LINE",
"260 690 LINE"
);
},
{
closed = 1;
nodes = (
"201 416 LINE",
"201 276 LINE",
"569 276 LINE",
"569 416 LINE"
);
},
{
closed = 1;
nodes = (
"201 690 LINE",
"201 550 LINE",
"599 550 LINE",
"599 690 LINE"
);
}
);
width = 615;
}
);
leftKerningGroup = H;
leftMetricsKey = H;
unicode = 0046;
},
{
glyphname = G;
lastChange = "2014-04-12 01:45:39 +0900";
layers = (
{
anchors = (
{
name = bottom;
position = "{361, 0}";
},
{
name = top;
position = "{363, 690}";
}
);
layerId = "518735FF-A855-4455-BD68-071AC00DFA4E";
name = Regular;
paths = (
{
closed = 1;
nodes = (
"177 704 OFFCURVE",
"47 552 OFFCURVE",
"47 342 CURVE SMOOTH",
"47 140 OFFCURVE",
"159 -14 OFFCURVE",
"360 -14 CURVE SMOOTH",
"439 -14 OFFCURVE",
"500 12 OFFCURVE",
"539 56 CURVE",
"603 188 LINE",
"560 263 LINE",
"560 140 OFFCURVE",
"477 54 OFFCURVE",
"365 54 CURVE SMOOTH",
"229 54 OFFCURVE",
"143 176 OFFCURVE",
"143 346 CURVE SMOOTH",
"143 513 OFFCURVE",
"230 636 OFFCURVE",
"371 636 CURVE SMOOTH",
"486 636 OFFCURVE",
"547 569 OFFCURVE",
"567 470 CURVE SMOOTH",
"569 460 LINE",
"655 460 LINE",
"654 470 LINE SMOOTH",
"640 605 OFFCURVE",
"548 704 OFFCURVE",
"373 704 CURVE SMOOTH"
);
},
{
closed = 1;
nodes = (
"399 333 LINE",
"399 263 LINE",
"560 263 LINE",
"570 156 LINE",
"570 0 LINE",
"646 0 LINE",
"646 333 LINE"
);
}
);
width = 710;
},
{
anchors = (
{
name = bottom;
position = "{360, 0}";
},
{
name = top;
position = "{360, 690}";
}
);
layerId = "4375068D-FDA0-47DA-A897-61BBB4269C7B";
name = Light;
paths = (
{
closed = 1;
nodes = (
"190 704 OFFCURVE",
"51 558 OFFCURVE",
"51 343 CURVE SMOOTH",
"51 118 OFFCURVE",
"179 -14 OFFCURVE",
"353 -14 CURVE SMOOTH",
"442 -14 OFFCURVE",
"535 23 OFFCURVE",
"592 119 CURVE",
"623 219 LINE",
"612 287 LINE",
"612 75 OFFCURVE",
"460 7 OFFCURVE",
"355 7 CURVE SMOOTH",
"204 7 OFFCURVE",
"75 115 OFFCURVE",
"75 344 CURVE SMOOTH",
"75 565 OFFCURVE",
"219 683 OFFCURVE",
"370 683 CURVE SMOOTH",
"507 683 OFFCURVE",
"589 597 OFFCURVE",
"612 484 CURVE SMOOTH",
"614 474 LINE",
"636 474 LINE",
"634 484 LINE SMOOTH",
"609 608 OFFCURVE",
"525 704 OFFCURVE",
"374 704 CURVE SMOOTH"
);
},
{
closed = 1;
nodes = (
"379 307 LINE",
"379 287 LINE",
"612 287 LINE",
"612 219 LINE",
"612 0 LINE",
"634 0 LINE",
"634 307 LINE"
);
}
);
width = 694;
},
{
anchors = (
{
name = bottom;
position = "{398, 0}";
},
{
name = top;
position = "{388, 690}";
}
);
layerId = "F37E1481-2EA3-4843-874F-9D06DA6D7C4C";
name = Bold;
paths = (
{
closed = 1;
nodes = (
"216 704 OFFCURVE",
"54 580 OFFCURVE",
"54 340 CURVE SMOOTH",
"54 108 OFFCURVE",
"183 -14 OFFCURVE",
"367 -14 CURVE SMOOTH",
"440 -14 OFFCURVE",
"487 -3 OFFCURVE",
"526 30 CURVE",
"563 123 LINE",
"543 228 LINE",
"518 152 OFFCURVE",
"472 118 OFFCURVE",
"402 118 CURVE SMOOTH",
"317 118 OFFCURVE",
"242 177 OFFCURVE",
"242 351 CURVE SMOOTH",
"242 500 OFFCURVE",
"315 572 OFFCURVE",
"403 572 CURVE SMOOTH",
"476 572 OFFCURVE",
"521 537 OFFCURVE",
"536 463 CURVE SMOOTH",
"538 453 LINE",
"718 453 LINE",
"717 463 LINE SMOOTH",
"703 599 OFFCURVE",
"602 704 OFFCURVE",
"405 704 CURVE SMOOTH"
);
},
{
closed = 1;
nodes = (
"409 368 LINE",
"409 228 LINE",
"543 228 LINE",
"553 128 LINE",
"573 0 LINE",
"713 0 LINE",
"713 368 LINE"
);
}
);
width = 759;
}
);
leftKerningGroup = O;
leftMetricsKey = O;
rightKerningGroup = G;
unicode = 0047;
},
{
glyphname = H;
lastChange = "2014-04-12 01:45:39 +0900";
layers = (
{
anchors = (
{
name = center;
position = "{376, 345}";
},
{
name = top;
position = "{376, 690}";
}
);
layerId = "518735FF-A855-4455-BD68-071AC00DFA4E";
name = Regular;
paths = (
{
closed = 1;
nodes = (
"566 690 LINE",
"566 0 LINE",
"652 0 LINE",
"652 690 LINE"
);
},
{
closed = 1;
nodes = (
"100 690 LINE",
"100 0 LINE",
"186 0 LINE",
"186 690 LINE"
);
},
{
closed = 1;
nodes = (
"161 374 LINE",
"161 302 LINE",
"599 302 LINE",
"599 374 LINE"
);
}
);
width = 730;
},
{
anchors = (
{
name = center;
position = "{340, 345}";
},
{
name = top;
position = "{340, 690}";
}
);
layerId = "4375068D-FDA0-47DA-A897-61BBB4269C7B";
name = Light;
paths = (
{
closed = 1;
nodes = (
"562 690 LINE",
"562 0 LINE",
"584 0 LINE",
"584 690 LINE"
);
},
{
closed = 1;
nodes = (
"96 690 LINE",
"96 0 LINE",
"118 0 LINE",
"118 690 LINE"
);
},
{
closed = 1;
nodes = (
"105 349 LINE",
"105 328 LINE",
"575 328 LINE",
"575 349 LINE"
);
}
);
width = 655;
},
{
anchors = (
{
name = center;
position = "{398, 345}";
},
{
name = top;
position = "{398, 690}";
}
);
layerId = "F37E1481-2EA3-4843-874F-9D06DA6D7C4C";
name = Bold;
paths = (
{
closed = 1;
nodes = (
"536 690 LINE",
"536 0 LINE",
"716 0 LINE",
"716 690 LINE"
);
},
{
closed = 1;
nodes = (
"80 690 LINE",
"80 0 LINE",
"260 0 LINE",
"260 690 LINE"
);
},
{
closed = 1;
nodes = (
"191 408 LINE",
"191 268 LINE",
"619 268 LINE",
"619 408 LINE"
);
}
);
width = 770;
}
);
leftKerningGroup = H;
rightKerningGroup = H;
unicode = 0048;
},
{
glyphname = Hbar;
lastChange = "2014-04-12 01:45:39 +0900";
layers = (
{
layerId = "518735FF-A855-4455-BD68-071AC00DFA4E";
name = Regular;
paths = (
{
closed = 1;
nodes = (
"566 690 LINE",
"566 0 LINE",
"652 0 LINE",
"652 690 LINE"
);
},
{
closed = 1;
nodes = (
"100 690 LINE",
"100 0 LINE",
"186 0 LINE",
"186 690 LINE"
);
},
{
closed = 1;
nodes = (
"161 374 LINE",
"161 302 LINE",
"599 302 LINE",
"599 374 LINE"
);
},
{
closed = 1;
nodes = (
"60 558 LINE",
"60 502 LINE",
"692 502 LINE",
"692 558 LINE"
);
}
);
width = 730;
},
{
layerId = "4375068D-FDA0-47DA-A897-61BBB4269C7B";
name = Light;
paths = (
{
closed = 1;
nodes = (
"562 690 LINE",
"562 0 LINE",
"584 0 LINE",
"584 690 LINE"
);
},
{
closed = 1;
nodes = (
"96 690 LINE",
"96 0 LINE",
"118 0 LINE",
"118 690 LINE"
);
},
{
closed = 1;
nodes = (
"105 349 LINE",
"105 328 LINE",
"575 328 LINE",
"575 349 LINE"
);
},
{
closed = 1;
nodes = (
"56 541 LINE",
"56 520 LINE",
"624 520 LINE",
"624 541 LINE"
);
}
);
width = 655;
},
{
layerId = "F37E1481-2EA3-4843-874F-9D06DA6D7C4C";
name = Bold;
paths = (
{
closed = 1;
nodes = (
"536 690 LINE",
"536 0 LINE",
"716 0 LINE",
"716 690 LINE"
);
},
{
closed = 1;
nodes = (
"80 690 LINE",
"80 0 LINE",
"260 0 LINE",
"260 690 LINE"
);
},
{
closed = 1;
nodes = (
"191 408 LINE",
"191 268 LINE",
"619 268 LINE",
"619 408 LINE"
);
},
{
closed = 1;
nodes = (
"40 578 LINE",
"40 482 LINE",
"756 482 LINE",
"756 578 LINE"
);
}
);
width = 770;
}
);
leftMetricsKey = "=H-40";
rightMetricsKey = "=H-40";
unicode = 0126;
},
{
glyphname = I;
lastChange = "2014-04-12 01:45:38 +0900";
layers = (
{
anchors = (
{
name = ogonek;
position = "{99, 0}";
},
{
name = top;
position = "{143, 690}";
}
);
layerId = "518735FF-A855-4455-BD68-071AC00DFA4E";
name = Regular;
paths = (
{
closed = 1;
nodes = (
"100 690 LINE",
"100 0 LINE",
"186 0 LINE",
"186 690 LINE"
);
}
);
width = 264;
},
{
anchors = (
{
name = ogonek;
position = "{107, 0}";
},
{
name = top;
position = "{107, 690}";
}
);
layerId = "4375068D-FDA0-47DA-A897-61BBB4269C7B";
name = Light;
paths = (
{
closed = 1;
nodes = (
"96 690 LINE",
"96 0 LINE",
"118 0 LINE",
"118 690 LINE"
);
}
);
width = 189;
},
{
anchors = (
{
name = ogonek;
position = "{80, 0}";
},
{
name = top;
position = "{170, 690}";
}
);
layerId = "F37E1481-2EA3-4843-874F-9D06DA6D7C4C";
name = Bold;
paths = (
{
closed = 1;
nodes = (
"80 690 LINE",
"80 0 LINE",
"260 0 LINE",
"260 690 LINE"
);
}
);
width = 314;
}
);
leftKerningGroup = H;
leftMetricsKey = H;
rightKerningGroup = H;
rightMetricsKey = H;
unicode = 0049;
},
{
glyphname = J;
lastChange = "2014-04-12 01:45:39 +0900";
layers = (
{
anchors = (
{
name = top;
position = "{293, 690}";
}
);
layerId = "518735FF-A855-4455-BD68-071AC00DFA4E";
name = Regular;
paths = (
{
closed = 1;
nodes = (
"402 690 LINE",
"402 267 LINE SMOOTH",
"402 231 OFFCURVE",
"402 206 OFFCURVE",
"401 186 CURVE SMOOTH",
"395 105 OFFCURVE",
"355 54 OFFCURVE",
"275 54 CURVE SMOOTH",
"193 54 OFFCURVE",
"148 99 OFFCURVE",
"143 194 CURVE SMOOTH",
"141 235 LINE",
"55 235 LINE",
"56 194 LINE SMOOTH",
"59 65 OFFCURVE",
"135 -14 OFFCURVE",
"263 -14 CURVE SMOOTH",
"409 -14 OFFCURVE",
"479 65 OFFCURVE",
"486 181 CURVE SMOOTH",
"488 215 OFFCURVE",
"488 238 OFFCURVE",
"488 264 CURVE SMOOTH",
"488 690 LINE"
);
}
);
width = 544;
},
{
anchors = (
{
name = top;
position = "{263, 690}";
}
);
layerId = "4375068D-FDA0-47DA-A897-61BBB4269C7B";
name = Light;
paths = (
{
closed = 1;
nodes = (
"407 690 LINE",
"407 252 LINE SMOOTH",
"407 221 OFFCURVE",
"407 194 OFFCURVE",
"405 172 CURVE SMOOTH",
"396 68 OFFCURVE",
"339 7 OFFCURVE",
"241 7 CURVE SMOOTH",
"148 7 OFFCURVE",
"75 56 OFFCURVE",
"70 194 CURVE SMOOTH",
"69 224 LINE",
"47 224 LINE",
"48 194 LINE SMOOTH",
"53 53 OFFCURVE",
"123 -14 OFFCURVE",
"239 -14 CURVE SMOOTH",
"365 -14 OFFCURVE",
"421 77 OFFCURVE",
"427 169 CURVE SMOOTH",
"429 201 OFFCURVE",
"429 229 OFFCURVE",
"429 260 CURVE SMOOTH",
"429 690 LINE"
);
}
);
width = 495;
},
{
anchors = (
{
name = top;
position = "{336, 690}";
}
);
layerId = "F37E1481-2EA3-4843-874F-9D06DA6D7C4C";
name = Bold;
paths = (
{
closed = 1;
nodes = (
"406 690 LINE",
"406 271 LINE SMOOTH",
"406 250 OFFCURVE",
"406 228 OFFCURVE",
"404 205 CURVE SMOOTH",
"399 150 OFFCURVE",
"373 118 OFFCURVE",
"323 118 CURVE SMOOTH",
"272 118 OFFCURVE",
"236 144 OFFCURVE",
"230 234 CURVE SMOOTH",
"228 264 LINE",
"48 264 LINE",
"49 234 LINE SMOOTH",
"54 84 OFFCURVE",
"131 -14 OFFCURVE",
"318 -14 CURVE SMOOTH",
"497 -14 OFFCURVE",
"576 73 OFFCURVE",
"583 194 CURVE SMOOTH",
"586 245 OFFCURVE",
"586 267 OFFCURVE",
"586 299 CURVE SMOOTH",
"586 690 LINE"
);
}
);
width = 638;
}
);
leftKerningGroup = J;
rightKerningGroup = J;
unicode = 004A;
},
{
glyphname = K;
lastChange = "2014-04-12 01:45:39 +0900";
layers = (
{
anchors = (
{
name = bottom;
position = "{334, 0}";
},
{
name = top;
position = "{334, 690}";
}
);
layerId = "518735FF-A855-4455-BD68-071AC00DFA4E";
name = Regular;
paths = (
{
closed = 1;
nodes = (
"527 690 LINE",
"174 310 LINE",
"174 211 LINE",
"269 313 LINE",
"229 323 LINE",
"489 0 LINE",
"610 0 LINE",
"284 391 LINE",
"275 310 LINE",
"628 690 LINE"
);
},
{
closed = 1;
nodes = (
"100 690 LINE",
"100 0 LINE",
"186 0 LINE",
"186 690 LINE"
);
}
);
width = 609;
},
{
anchors = (
{
name = bottom;
position = "{297, 0}";
},
{
name = top;
position = "{297, 690}";
}
);
layerId = "4375068D-FDA0-47DA-A897-61BBB4269C7B";
name = Light;
paths = (
{
closed = 1;
nodes = (
"512 690 LINE",
"116 322 LINE",
"116 297 LINE",
"165 343 LINE",
"153 351 LINE",
"502 0 LINE",
"535 0 LINE",
"172 363 LINE",
"172 348 LINE",
"541 690 LINE"
);
},
{
closed = 1;
nodes = (
"96 690 LINE",
"96 0 LINE",
"118 0 LINE",
"118 690 LINE"
);
}
);
width = 553;
},
{
anchors = (
{
name = bottom;
position = "{365, 0}";
},
{
name = top;
position = "{389, 690}";
}
);
layerId = "F37E1481-2EA3-4843-874F-9D06DA6D7C4C";
name = Bold;
paths = (
{
closed = 1;
nodes = (
"523 690 LINE",
"255 379 LINE",
"255 206 LINE",
"330 290 LINE",
"274 313 LINE",
"504 0 LINE",
"729 0 LINE",
"400 416 LINE",
"400 322 LINE",
"738 690 LINE"
);
},
{
closed = 1;
nodes = (
"80 690 LINE",
"80 0 LINE",
"260 0 LINE",
"260 690 LINE"
);
}
);
width = 743;
}
);
leftKerningGroup = H;
leftMetricsKey = H;
rightKerningGroup = K;
unicode = 004B;
},
{
glyphname = L;
lastChange = "2014-04-12 01:45:39 +0900";
layers = (
{
anchors = (
{
name = bottom;
position = "{330, 0}";
},
{
name = top;
position = "{143, 690}";
}
);
layerId = "518735FF-A855-4455-BD68-071AC00DFA4E";
name = Regular;
paths = (
{
closed = 1;
nodes = (
"100 690 LINE",
"100 0 LINE",
"186 0 LINE",
"186 690 LINE"
);
},
{
closed = 1;
nodes = (
"161 70 LINE",
"161 0 LINE",
"559 0 LINE",
"559 70 LINE"
);
}
);
width = 575;
},
{
anchors = (
{
name = bottom;
position = "{290, 0}";
},
{
name = top;
position = "{107, 690}";
}
);
layerId = "4375068D-FDA0-47DA-A897-61BBB4269C7B";
name = Light;
paths = (
{
closed = 1;
nodes = (
"96 690 LINE",
"96 0 LINE",
"118 0 LINE",
"118 690 LINE"
);
},
{
closed = 1;
nodes = (
"107 20 LINE",
"107 0 LINE",
"525 0 LINE SMOOTH",
"525 20 LINE SMOOTH"
);
}
);
width = 539;
},
{
anchors = (
{
name = bottom;
position = "{339, 0}";
},
{
name = top;
position = "{170, 690}";
}
);
layerId = "F37E1481-2EA3-4843-874F-9D06DA6D7C4C";
name = Bold;
paths = (
{
closed = 1;
nodes = (
"80 690 LINE",
"80 0 LINE",
"260 0 LINE",
"260 690 LINE"
);
},
{
closed = 1;
nodes = (
"201 152 LINE",
"201 0 LINE",
"609 0 LINE",
"609 152 LINE"
);
}
);
width = 628;
}
);
leftKerningGroup = H;
leftMetricsKey = H;
rightKerningGroup = L;
unicode = 004C;
},
{
glyphname = Ldot;
lastChange = "2014-04-12 01:45:38 +0900";
layers = (
{
components = (
{
name = L;
transform = "{1, 0, 0, 1, 0, 0}";
}
);
layerId = "4375068D-FDA0-47DA-A897-61BBB4269C7B";
name = Light;
paths = (
{
closed = 1;
nodes = (
"319 420 OFFCURVE",
"310 411 OFFCURVE",
"310 400 CURVE SMOOTH",
"310 389 OFFCURVE",
"319 380 OFFCURVE",
"330 380 CURVE SMOOTH",
"341 380 OFFCURVE",
"350 389 OFFCURVE",
"350 400 CURVE SMOOTH",
"350 411 OFFCURVE",
"341 420 OFFCURVE",
"330 420 CURVE SMOOTH"
);
}
);
width = 539;
},
{
components = (
{
name = L;
transform = "{1, 0, 0, 1, 0, 0}";
}
);
layerId = "518735FF-A855-4455-BD68-071AC00DFA4E";
name = Regular;
paths = (
{
closed = 1;
nodes = (
"361 455 OFFCURVE",
"337 431 OFFCURVE",
"337 400 CURVE SMOOTH",
"337 369 OFFCURVE",
"361 345 OFFCURVE",
"392 345 CURVE SMOOTH",
"423 345 OFFCURVE",
"447 369 OFFCURVE",
"447 400 CURVE SMOOTH",
"447 431 OFFCURVE",
"423 455 OFFCURVE",
"392 455 CURVE SMOOTH"
);
}
);
width = 575;
},
{
components = (
{
name = L;
transform = "{1, 0, 0, 1, 0, 0}";
}
);
layerId = "F37E1481-2EA3-4843-874F-9D06DA6D7C4C";
name = Bold;
paths = (
{
closed = 1;
nodes = (
"393 500 OFFCURVE",
"350 457 OFFCURVE",
"350 400 CURVE SMOOTH",
"350 343 OFFCURVE",
"393 300 OFFCURVE",
"450 300 CURVE SMOOTH",
"507 300 OFFCURVE",
"550 343 OFFCURVE",
"550 400 CURVE SMOOTH",
"550 457 OFFCURVE",
"507 500 OFFCURVE",
"450 500 CURVE SMOOTH"
);
}
);
width = 628;
}
);
leftKerningGroup = H;
leftMetricsKey = L;
rightKerningGroup = L;
rightMetricsKey = L;
unicode = 013F;
},
{
glyphname = Lslash;
lastChange = "2014-04-12 01:45:38 +0900";
layers = (
{
components = (
{
name = L;
transform = "{1, 0, 0, 1, 22, 0}";
}
);
layerId = "518735FF-A855-4455-BD68-071AC00DFA4E";
name = Regular;
paths = (
{
closed = 1;
nodes = (
"14 291 LINE",
"14 224 LINE",
"334 414 LINE",
"334 481 LINE"
);
}
);
width = 597;
},
{
components = (
{
name = L;
transform = "{1, 0, 0, 1, 40, 0}";
}
);
layerId = "F37E1481-2EA3-4843-874F-9D06DA6D7C4C";
name = Bold;
paths = (
{
closed = 1;
nodes = (
"26 348 LINE",
"26 235 LINE",
"386 425 LINE",
"386 538 LINE"
);
}
);
width = 668;
},
{
components = (
{
name = L;
transform = "{1, 0, 0, 1, 32, 0}";
}
);
layerId = "4375068D-FDA0-47DA-A897-61BBB4269C7B";
name = Light;
paths = (
{
closed = 1;
nodes = (
"14 269 LINE",
"14 245 LINE",
"334 435 LINE",
"334 459 LINE"
);
}
);
width = 571;
}
);
rightKerningGroup = L;
rightMetricsKey = L;
unicode = 0141;
},
{
glyphname = M;
lastChange = "2014-08-19 21:51:25 +0900";
layers = (
{
layerId = "518735FF-A855-4455-BD68-071AC00DFA4E";
name = Regular;
paths = (
{
closed = 1;
nodes = (
"649 690 LINE",
"432 32 LINE",
"459 32 LINE",
"242 690 LINE",
"100 690 LINE",
"100 0 LINE",
"186 0 LINE",
"186 355 LINE SMOOTH",
"186 440 OFFCURVE",
"186 535 OFFCURVE",
"184 610 CURVE",
"206 536 OFFCURVE",
"238 440 OFFCURVE",
"266 358 CURVE SMOOTH",
"390 0 LINE",
"498 0 LINE",
"620 356 LINE SMOOTH",
"649 440 OFFCURVE",
"681 537 OFFCURVE",
"704 612 CURVE",
"702 537 OFFCURVE",
"702 441 OFFCURVE",
"702 355 CURVE SMOOTH",
"702 0 LINE",
"788 0 LINE",
"788 690 LINE"
);
}
);
width = 866;
},
{
layerId = "4375068D-FDA0-47DA-A897-61BBB4269C7B";
name = Light;
paths = (
{
closed = 1;
nodes = (
"691 690 LINE",
"404 7 LINE",
"416 7 LINE",
"131 690 LINE",
"96 690 LINE",
"96 0 LINE",
"118 0 LINE",
"118 400 LINE SMOOTH",
"118 488 OFFCURVE",
"118 586 OFFCURVE",
"116 673 CURVE",
"150 586 OFFCURVE",
"191 487 OFFCURVE",
"227 400 CURVE SMOOTH",
"395 0 LINE",
"423 0 LINE",
"592 400 LINE SMOOTH",
"629 487 OFFCURVE",
"669 586 OFFCURVE",
"703 673 CURVE",
"701 586 OFFCURVE",
"702 488 OFFCURVE",
"702 400 CURVE SMOOTH",
"702 0 LINE",
"723 0 LINE",
"723 690 LINE"
);
}
);
width = 794;
},
{
layerId = "F37E1481-2EA3-4843-874F-9D06DA6D7C4C";
name = Bold;
paths = (
{
closed = 1;
nodes = (
"595 690 LINE",
"468 131 LINE",
"488 131 LINE",
"361 690 LINE",
"80 690 LINE",
"80 0 LINE",
"260 0 LINE",
"260 290 LINE SMOOTH",
"260 350 OFFCURVE",
"260 439 OFFCURVE",
"258 509 CURVE",
"269 439 OFFCURVE",
"289 350 OFFCURVE",
"305 290 CURVE SMOOTH",
"382 0 LINE",
"567 0 LINE",
"643 290 LINE SMOOTH",
"659 351 OFFCURVE",
"679 439 OFFCURVE",
"691 509 CURVE",
"689 439 OFFCURVE",
"689 350 OFFCURVE",
"689 290 CURVE SMOOTH",
"689 0 LINE",
"869 0 LINE",
"869 690 LINE"
);
}
);
width = 923;
}
);
leftKerningGroup = H;
leftMetricsKey = H;
rightKerningGroup = H;
rightMetricsKey = H;
unicode = 004D;
},
{
glyphname = N;
lastChange = "2014-04-12 01:45:38 +0900";
layers = (
{
anchors = (
{
name = bottom;
position = "{370, 0}";
},
{
name = top;
position = "{370, 690}";
}
);
layerId = "518735FF-A855-4455-BD68-071AC00DFA4E";
name = Regular;
paths = (
{
closed = 1;
nodes = (
"554 690 LINE",
"554 345 LINE SMOOTH",
"554 264 OFFCURVE",
"555 165 OFFCURVE",
"557 84 CURVE",
"232 690 LINE",
"100 690 LINE",
"100 0 LINE",
"186 0 LINE",
"186 345 LINE SMOOTH",
"186 426 OFFCURVE",
"185 525 OFFCURVE",
"183 606 CURVE",
"508 0 LINE",
"640 0 LINE",
"638 690 LINE"
);
}
);
width = 718;
},
{
anchors = (
{
name = bottom;
position = "{331, 0}";
},
{
name = top;
position = "{331, 690}";
}
);
layerId = "4375068D-FDA0-47DA-A897-61BBB4269C7B";
name = Light;
paths = (
{
closed = 1;
nodes = (
"544 690 LINE",
"544 315 LINE SMOOTH",
"544 222 OFFCURVE",
"544 113 OFFCURVE",
"546 20 CURVE",
"129 690 LINE",
"96 690 LINE",
"96 0 LINE",
"118 0 LINE",
"118 375 LINE SMOOTH",
"118 468 OFFCURVE",
"118 577 OFFCURVE",
"116 670 CURVE",
"532 0 LINE",
"566 0 LINE",
"566 690 LINE"
);
}
);
width = 637;
},
{
anchors = (
{
name = bottom;
position = "{405, 0}";
},
{
name = top;
position = "{405, 690}";
}
);
layerId = "F37E1481-2EA3-4843-874F-9D06DA6D7C4C";
name = Bold;
paths = (
{
closed = 1;
nodes = (
"560 690 LINE",
"560 395 LINE SMOOTH",
"560 355 OFFCURVE",
"561 284 OFFCURVE",
"566 214 CURVE",
"304 690 LINE",
"80 690 LINE",
"80 0 LINE",
"260 0 LINE",
"260 285 LINE SMOOTH",
"260 325 OFFCURVE",
"260 386 OFFCURVE",
"254 456 CURVE",
"505 0 LINE",
"740 0 LINE",
"740 690 LINE"
);
}
);
width = 794;
}
);
leftKerningGroup = H;
leftMetricsKey = H;
rightKerningGroup = H;
rightMetricsKey = H;
unicode = 004E;
},
{
glyphname = Eng;
lastChange = "2014-04-12 01:45:38 +0900";
layers = (
{
layerId = "4375068D-FDA0-47DA-A897-61BBB4269C7B";
name = Light;
paths = (
{
closed = 1;
nodes = (
"544 690 LINE",
"544 315 LINE SMOOTH",
"544 222 OFFCURVE",
"544 113 OFFCURVE",
"546 20 CURVE",
"129 690 LINE",
"96 690 LINE",
"96 0 LINE",
"118 0 LINE",
"118 375 LINE SMOOTH",
"118 468 OFFCURVE",
"118 577 OFFCURVE",
"116 670 CURVE",
"544 -19 LINE",
"544 -83 LINE SMOOTH",
"544 -175 OFFCURVE",
"505 -202 OFFCURVE",
"428 -202 CURVE",
"428 -223 LINE",
"515 -220 OFFCURVE",
"559 -189 OFFCURVE",
"565 -108 CURVE SMOOTH",
"566 -94 OFFCURVE",
"566 -85 OFFCURVE",
"566 -67 CURVE SMOOTH",
"566 690 LINE"
);
}
);
width = 637;
},
{
layerId = "518735FF-A855-4455-BD68-071AC00DFA4E";
name = Regular;
paths = (
{
closed = 1;
nodes = (
"554 690 LINE",
"554 365 LINE SMOOTH",
"554 284 OFFCURVE",
"555 205 OFFCURVE",
"557 124 CURVE",
"232 690 LINE",
"100 690 LINE",
"100 0 LINE",
"186 0 LINE",
"186 345 LINE SMOOTH",
"186 426 OFFCURVE",
"185 517 OFFCURVE",
"183 598 CURVE",
"553 -31 LINE",
"553 -83 LINE SMOOTH",
"553 -128 OFFCURVE",
"536 -153 OFFCURVE",
"482 -153 CURVE",
"482 -223 LINE",
"571 -223 OFFCURVE",
"630 -196 OFFCURVE",
"639 -108 CURVE SMOOTH",
"640 -94 OFFCURVE",
"640 -85 OFFCURVE",
"640 -67 CURVE SMOOTH",
"640 690 LINE"
);
}
);
width = 718;
},
{
layerId = "F37E1481-2EA3-4843-874F-9D06DA6D7C4C";
name = Bold;
paths = (
{
closed = 1;
nodes = (
"560 690 LINE",
"560 435 LINE SMOOTH",
"560 395 OFFCURVE",
"561 324 OFFCURVE",
"566 254 CURVE",
"304 690 LINE",
"80 690 LINE",
"80 0 LINE",
"260 0 LINE",
"260 285 LINE SMOOTH",
"260 325 OFFCURVE",
"260 386 OFFCURVE",
"254 456 CURVE",
"560 -20 LINE",
"560 -33 LINE SMOOTH",
"560 -66 OFFCURVE",
"545 -85 OFFCURVE",
"485 -91 CURVE",
"485 -223 LINE",
"660 -223 OFFCURVE",
"730 -186 OFFCURVE",
"739 -98 CURVE SMOOTH",
"740 -84 OFFCURVE",
"740 -75 OFFCURVE",
"740 -57 CURVE SMOOTH",
"740 690 LINE"
);
}
);
width = 794;
}
);
leftKerningGroup = H;
leftMetricsKey = N;
rightKerningGroup = H;
rightMetricsKey = N;
unicode = 014A;
},
{
glyphname = O;
lastChange = "2014-04-12 01:45:39 +0900";
layers = (
{
anchors = (
{
name = top;
position = "{373, 690}";
}
);
layerId = "518735FF-A855-4455-BD68-071AC00DFA4E";
name = Regular;
paths = (
{
closed = 1;
nodes = (
"373 636 LINE",
"518 636 OFFCURVE",
"603 525 OFFCURVE",
"603 345 CURVE SMOOTH",
"603 166 OFFCURVE",
"518 54 OFFCURVE",
"373 54 CURVE",
"373 -14 LINE",
"583 -14 OFFCURVE",
"699 135 OFFCURVE",
"699 345 CURVE SMOOTH",
"699 556 OFFCURVE",
"583 704 OFFCURVE",
"373 704 CURVE"
);
},
{
closed = 1;
nodes = (
"163 704 OFFCURVE",
"47 556 OFFCURVE",
"47 345 CURVE SMOOTH",
"47 135 OFFCURVE",
"163 -14 OFFCURVE",
"373 -14 CURVE",
"373 54 LINE",
"228 54 OFFCURVE",
"143 166 OFFCURVE",
"143 345 CURVE SMOOTH",
"143 525 OFFCURVE",
"228 636 OFFCURVE",
"373 636 CURVE",
"373 704 LINE"
);
}
);
width = 737;
},
{
anchors = (
{
name = top;
position = "{407, 690}";
}
);
layerId = "F37E1481-2EA3-4843-874F-9D06DA6D7C4C";
name = Bold;
paths = (
{
closed = 1;
nodes = (
"407 572 LINE",
"511 572 OFFCURVE",
"576 492 OFFCURVE",
"576 345 CURVE SMOOTH",
"576 199 OFFCURVE",
"511 118 OFFCURVE",
"407 118 CURVE",
"407 -14 LINE",
"622 -14 OFFCURVE",
"760 124 OFFCURVE",
"760 345 CURVE SMOOTH",
"760 567 OFFCURVE",
"622 704 OFFCURVE",
"407 704 CURVE"
);
},
{
closed = 1;
nodes = (
"192 704 OFFCURVE",
"54 567 OFFCURVE",
"54 345 CURVE SMOOTH",
"54 124 OFFCURVE",
"192 -14 OFFCURVE",
"407 -14 CURVE",
"407 118 LINE",
"303 118 OFFCURVE",
"238 199 OFFCURVE",
"238 345 CURVE SMOOTH",
"238 492 OFFCURVE",
"303 572 OFFCURVE",
"407 572 CURVE",
"407 704 LINE"
);
}
);
width = 788;
},
{
anchors = (
{
name = top;
position = "{363, 690}";
}
);
layerId = "4375068D-FDA0-47DA-A897-61BBB4269C7B";
name = Light;
paths = (
{
closed = 1;
nodes = (
"363 683 LINE",
"517 683 OFFCURVE",
"651 562 OFFCURVE",
"651 345 CURVE SMOOTH",
"651 129 OFFCURVE",
"517 7 OFFCURVE",
"363 7 CURVE",
"363 -14 LINE",
"551 -14 OFFCURVE",
"675 139 OFFCURVE",
"675 345 CURVE SMOOTH",
"675 552 OFFCURVE",
"551 704 OFFCURVE",
"363 704 CURVE"
);
},
{
closed = 1;
nodes = (
"175 704 OFFCURVE",
"51 552 OFFCURVE",
"51 345 CURVE SMOOTH",
"51 139 OFFCURVE",
"175 -14 OFFCURVE",
"363 -14 CURVE",
"363 7 LINE",
"209 7 OFFCURVE",
"75 129 OFFCURVE",
"75 345 CURVE SMOOTH",
"75 562 OFFCURVE",
"209 683 OFFCURVE",
"363 683 CURVE",
"363 704 LINE"
);
}
);
width = 713;
}
);
leftKerningGroup = O;
rightKerningGroup = O;
unicode = 004F;
},
{
glyphname = Oslash;
lastChange = "2014-04-12 01:45:38 +0900";
layers = (
{
anchors = (
{
name = top;
position = "{340, 690}";
}
);
components = (
{
disableAlignment = 1;
name = O;
transform = "{1, 0, 0, 1, 0, 0}";
}
);
layerId = "4375068D-FDA0-47DA-A897-61BBB4269C7B";
name = Light;
paths = (
{
closed = 1;
nodes = (
"47 44 LINE",
"62 29 LINE",
"679 646 LINE",
"664 661 LINE"
);
}
);
width = 713;
},
{
anchors = (
{
name = top;
position = "{374, 690}";
}
);
components = (
{
disableAlignment = 1;
name = O;
transform = "{1, 0, 0, 1, 4, 0}";
}
);
layerId = "518735FF-A855-4455-BD68-071AC00DFA4E";
name = Regular;
paths = (
{
closed = 1;
nodes = (
"43 52 LINE",
"84 11 LINE",
"711 638 LINE",
"670 679 LINE"
);
}
);
width = 745;
},
{
anchors = (
{
name = top;
position = "{382, 690}";
}
);
components = (
{
disableAlignment = 1;
name = O;
transform = "{1, 0, 0, 1, 1, 0}";
}
);
layerId = "F37E1481-2EA3-4843-874F-9D06DA6D7C4C";
name = Bold;
paths = (
{
closed = 1;
nodes = (
"50 57 LINE",
"120 -13 LINE",
"766 633 LINE",
"696 703 LINE"
);
}
);
width = 790;
}
);
leftKerningGroup = O;
leftMetricsKey = "=O-4";
rightKerningGroup = O;
rightMetricsKey = "=O-4";
unicode = 00D8;
},
{
glyphname = OE;
lastChange = "2014-04-12 01:45:39 +0900";
layers = (
{
anchors = (
{
name = top;
position = "{613, 690}";
}
);
layerId = "4375068D-FDA0-47DA-A897-61BBB4269C7B";
name = Light;
paths = (
{
closed = 1;
nodes = (
"175 704 OFFCURVE",
"51 552 OFFCURVE",
"51 345 CURVE SMOOTH",
"51 139 OFFCURVE",
"175 -14 OFFCURVE",
"363 -14 CURVE",
"363 7 LINE",
"209 7 OFFCURVE",
"75 129 OFFCURVE",
"75 345 CURVE SMOOTH",
"75 562 OFFCURVE",
"209 683 OFFCURVE",
"363 683 CURVE",
"363 704 LINE"
);
},
{
closed = 1;
nodes = (
"363 683 LINE",
"527 683 OFFCURVE",
"651 562 OFFCURVE",
"651 345 CURVE SMOOTH",
"651 129 OFFCURVE",
"527 7 OFFCURVE",
"363 7 CURVE",
"363 -14 LINE",
"474 -14 OFFCURVE",
"554 27 OFFCURVE",
"620 128 CURVE",
"663 236 LINE",
"663 452 LINE",
"620 566 LINE",
"546 667 OFFCURVE",
"478 704 OFFCURVE",
"363 704 CURVE"
);
},
{
closed = 1;
nodes = (
"662 20 LINE",
"662 0 LINE",
"1080 0 LINE",
"1080 20 LINE"
);
},
{
closed = 1;
nodes = (
"651 690 LINE",
"651 0 LINE",
"673 0 LINE",
"673 690 LINE"
);
},
{
closed = 1;
nodes = (
"662 355 LINE",
"662 335 LINE",
"1050 335 LINE",
"1050 355 LINE"
);
},
{
closed = 1;
nodes = (
"662 690 LINE",
"662 670 LINE",
"1070 670 LINE",
"1070 690 LINE"
);
}
);
width = 1112;
},
{
anchors = (
{
name = top;
position = "{648, 690}";
}
);
layerId = "518735FF-A855-4455-BD68-071AC00DFA4E";
name = Regular;
paths = (
{
closed = 1;
nodes = (
"163 704 OFFCURVE",
"47 546 OFFCURVE",
"47 345 CURVE SMOOTH",
"47 145 OFFCURVE",
"163 -14 OFFCURVE",
"363 -14 CURVE",
"373 54 LINE",
"228 54 OFFCURVE",
"143 173 OFFCURVE",
"143 345 CURVE SMOOTH",
"143 518 OFFCURVE",
"228 636 OFFCURVE",
"373 636 CURVE",
"363 704 LINE"
);
},
{
closed = 1;
nodes = (
"373 636 LINE",
"518 636 OFFCURVE",
"603 518 OFFCURVE",
"603 345 CURVE SMOOTH",
"603 173 OFFCURVE",
"518 54 OFFCURVE",
"373 54 CURVE",
"363 -14 LINE",
"452 -14 OFFCURVE",
"524 9 OFFCURVE",
"576 68 CURVE",
"625 200 LINE",
"625 489 LINE",
"576 618 LINE",
"523 680 OFFCURVE",
"465 704 OFFCURVE",
"363 704 CURVE"
);
},
{
closed = 1;
nodes = (
"664 70 LINE",
"664 0 LINE",
"1062 0 LINE",
"1062 70 LINE"
);
},
{
closed = 1;
nodes = (
"603 690 LINE",
"603 0 LINE",
"689 0 LINE",
"689 690 LINE"
);
},
{
closed = 1;
nodes = (
"664 380 LINE",
"664 310 LINE",
"1022 310 LINE",
"1022 380 LINE"
);
},
{
closed = 1;
nodes = (
"664 690 LINE",
"664 620 LINE",
"1052 620 LINE",
"1052 690 LINE"
);
}
);
width = 1090;
},
{
anchors = (
{
name = top;
position = "{707, 690}";
}
);
layerId = "F37E1481-2EA3-4843-874F-9D06DA6D7C4C";
name = Bold;
paths = (
{
closed = 1;
nodes = (
"192 704 OFFCURVE",
"54 567 OFFCURVE",
"54 345 CURVE SMOOTH",
"54 124 OFFCURVE",
"192 -14 OFFCURVE",
"367 -14 CURVE",
"407 118 LINE",
"303 118 OFFCURVE",
"238 199 OFFCURVE",
"238 345 CURVE SMOOTH",
"238 492 OFFCURVE",
"303 572 OFFCURVE",
"407 572 CURVE",
"367 704 LINE"
);
},
{
closed = 1;
nodes = (
"407 572 LINE",
"511 572 OFFCURVE",
"576 492 OFFCURVE",
"576 345 CURVE SMOOTH",
"576 199 OFFCURVE",
"511 118 OFFCURVE",
"407 118 CURVE",
"367 -14 LINE",
"456 -14 OFFCURVE",
"493 -4 OFFCURVE",
"544 36 CURVE",
"624 204 LINE",
"624 486 LINE",
"544 656 LINE",
"494 694 OFFCURVE",
"454 704 OFFCURVE",
"367 704 CURVE"
);
},
{
closed = 1;
nodes = (
"697 140 LINE",
"697 0 LINE",
"1105 0 LINE",
"1105 140 LINE"
);
},
{
closed = 1;
nodes = (
"576 690 LINE",
"576 0 LINE",
"756 0 LINE",
"756 690 LINE"
);
},
{
closed = 1;
nodes = (
"697 416 LINE",
"697 276 LINE",
"1075 276 LINE",
"1075 416 LINE"
);
},
{
closed = 1;
nodes = (
"697 690 LINE",
"697 550 LINE",
"1095 550 LINE",
"1095 690 LINE"
);
}
);
width = 1135;
}
);
leftKerningGroup = O;
leftMetricsKey = O;
rightKerningGroup = E;
rightMetricsKey = E;
unicode = 0152;
},
{
glyphname = P;
lastChange = "2014-04-12 01:45:39 +0900";
layers = (
{
layerId = "518735FF-A855-4455-BD68-071AC00DFA4E";
name = Regular;
paths = (
{
closed = 1;
nodes = (
"180 690 LINE",
"180 618 LINE",
"322 618 LINE SMOOTH",
"353 618 OFFCURVE",
"380 617 OFFCURVE",
"399 613 CURVE SMOOTH",
"448 602 OFFCURVE",
"491 566 OFFCURVE",
"491 486 CURVE SMOOTH",
"491 406 OFFCURVE",
"448 370 OFFCURVE",
"399 359 CURVE SMOOTH",
"380 355 OFFCURVE",
"353 354 OFFCURVE",
"322 354 CURVE SMOOTH",
"180 354 LINE",
"180 282 LINE",
"314 282 LINE SMOOTH",
"349 282 OFFCURVE",
"373 282 OFFCURVE",
"404 286 CURVE SMOOTH",
"504 299 OFFCURVE",
"583 369 OFFCURVE",
"583 486 CURVE SMOOTH",
"583 603 OFFCURVE",
"514 672 OFFCURVE",
"404 686 CURVE SMOOTH",
"373 690 OFFCURVE",
"349 690 OFFCURVE",
"314 690 CURVE SMOOTH"
);
},
{
closed = 1;
nodes = (
"100 690 LINE",
"100 0 LINE",
"186 0 LINE",
"186 690 LINE"
);
}
);
width = 598;
},
{
layerId = "4375068D-FDA0-47DA-A897-61BBB4269C7B";
name = Light;
paths = (
{
closed = 1;
nodes = (
"110 690 LINE",
"110 669 LINE",
"249 669 LINE SMOOTH",
"285 669 OFFCURVE",
"312 668 OFFCURVE",
"344 664 CURVE SMOOTH",
"428 654 OFFCURVE",
"491 607 OFFCURVE",
"491 504 CURVE SMOOTH",
"491 395 OFFCURVE",
"428 344 OFFCURVE",
"344 334 CURVE SMOOTH",
"312 330 OFFCURVE",
"285 329 OFFCURVE",
"249 329 CURVE SMOOTH",
"110 329 LINE",
"110 308 LINE",
"249 308 LINE SMOOTH",
"284 308 OFFCURVE",
"316 309 OFFCURVE",
"348 313 CURVE SMOOTH",
"441 325 OFFCURVE",
"515 384 OFFCURVE",
"515 504 CURVE SMOOTH",
"515 621 OFFCURVE",
"441 673 OFFCURVE",
"348 685 CURVE SMOOTH",
"316 689 OFFCURVE",
"284 690 OFFCURVE",
"249 690 CURVE SMOOTH"
);
},
{
closed = 1;
nodes = (
"96 690 LINE",
"96 0 LINE",
"118 0 LINE",
"118 690 LINE"
);
}
);
width = 521;
},
{
layerId = "F37E1481-2EA3-4843-874F-9D06DA6D7C4C";
name = Bold;
paths = (
{
closed = 1;
nodes = (
"240 690 LINE",
"240 550 LINE",
"330 550 LINE SMOOTH",
"349 550 OFFCURVE",
"365 550 OFFCURVE",
"378 549 CURVE SMOOTH",
"424 545 OFFCURVE",
"451 518 OFFCURVE",
"451 466 CURVE SMOOTH",
"451 414 OFFCURVE",
"424 387 OFFCURVE",
"378 383 CURVE SMOOTH",
"365 382 OFFCURVE",
"349 382 OFFCURVE",
"330 382 CURVE SMOOTH",
"240 382 LINE",
"240 242 LINE",
"340 242 LINE SMOOTH",
"383 242 OFFCURVE",
"411 243 OFFCURVE",
"448 247 CURVE SMOOTH",
"548 259 OFFCURVE",
"639 330 OFFCURVE",
"639 466 CURVE SMOOTH",
"639 602 OFFCURVE",
"548 673 OFFCURVE",
"448 685 CURVE SMOOTH",
"411 689 OFFCURVE",
"383 690 OFFCURVE",
"340 690 CURVE SMOOTH"
);
},
{
closed = 1;
nodes = (
"80 690 LINE",
"80 0 LINE",
"260 0 LINE",
"260 690 LINE"
);
}
);
width = 644;
}
);
leftKerningGroup = H;
leftMetricsKey = H;
unicode = 0050;
},
{
glyphname = Thorn;
lastChange = "2014-04-12 01:45:39 +0900";
layers = (
{
layerId = "518735FF-A855-4455-BD68-071AC00DFA4E";
name = Regular;
paths = (
{
closed = 1;
nodes = (
"180 602 LINE",
"180 530 LINE",
"319 530 LINE SMOOTH",
"350 530 OFFCURVE",
"377 529 OFFCURVE",
"396 525 CURVE SMOOTH",
"445 514 OFFCURVE",
"491 482 OFFCURVE",
"491 406 CURVE SMOOTH",
"491 330 OFFCURVE",
"445 299 OFFCURVE",
"396 288 CURVE SMOOTH",
"377 284 OFFCURVE",
"350 283 OFFCURVE",
"319 283 CURVE SMOOTH",
"180 283 LINE",
"180 211 LINE",
"319 211 LINE SMOOTH",
"354 211 OFFCURVE",
"378 211 OFFCURVE",
"409 215 CURVE SMOOTH",
"509 228 OFFCURVE",
"583 295 OFFCURVE",
"583 408 CURVE SMOOTH",
"583 521 OFFCURVE",
"509 585 OFFCURVE",
"409 598 CURVE SMOOTH",
"378 602 OFFCURVE",
"354 602 OFFCURVE",
"319 602 CURVE SMOOTH"
);
},
{
closed = 1;
nodes = (
"100 690 LINE",
"100 0 LINE",
"186 0 LINE",
"186 690 LINE"
);
}
);
width = 630;
},
{
layerId = "4375068D-FDA0-47DA-A897-61BBB4269C7B";
name = Light;
paths = (
{
closed = 1;
nodes = (
"110 572 LINE",
"110 551 LINE",
"249 551 LINE SMOOTH",
"285 551 OFFCURVE",
"312 550 OFFCURVE",
"344 546 CURVE SMOOTH",
"428 536 OFFCURVE",
"491 494 OFFCURVE",
"491 396 CURVE SMOOTH",
"491 292 OFFCURVE",
"428 246 OFFCURVE",
"344 236 CURVE SMOOTH",
"312 232 OFFCURVE",
"285 231 OFFCURVE",
"249 231 CURVE SMOOTH",
"110 231 LINE",
"110 210 LINE",
"249 210 LINE SMOOTH",
"284 210 OFFCURVE",
"316 211 OFFCURVE",
"348 215 CURVE SMOOTH",
"441 227 OFFCURVE",
"515 281 OFFCURVE",
"515 396 CURVE SMOOTH",
"515 508 OFFCURVE",
"441 555 OFFCURVE",
"348 567 CURVE SMOOTH",
"316 571 OFFCURVE",
"284 572 OFFCURVE",
"249 572 CURVE SMOOTH"
);
},
{
closed = 1;
nodes = (
"96 690 LINE",
"96 0 LINE",
"118 0 LINE",
"118 690 LINE"
);
}
);
width = 640;
},
{
layerId = "F37E1481-2EA3-4843-874F-9D06DA6D7C4C";
name = Bold;
paths = (
{
closed = 1;
nodes = (
"240 602 LINE",
"240 462 LINE",
"330 462 LINE SMOOTH",
"349 462 OFFCURVE",
"365 462 OFFCURVE",
"378 461 CURVE SMOOTH",
"424 457 OFFCURVE",
"451 435 OFFCURVE",
"451 388 CURVE SMOOTH",
"451 341 OFFCURVE",
"424 319 OFFCURVE",
"378 315 CURVE SMOOTH",
"365 314 OFFCURVE",
"349 314 OFFCURVE",
"330 314 CURVE SMOOTH",
"240 314 LINE",
"240 174 LINE",
"349 174 LINE SMOOTH",
"392 174 OFFCURVE",
"420 175 OFFCURVE",
"457 179 CURVE SMOOTH",
"557 191 OFFCURVE",
"639 255 OFFCURVE",
"639 388 CURVE SMOOTH",
"639 521 OFFCURVE",
"557 585 OFFCURVE",
"457 597 CURVE SMOOTH",
"420 601 OFFCURVE",
"392 602 OFFCURVE",
"349 602 CURVE SMOOTH"
);
},
{
closed = 1;
nodes = (
"80 690 LINE",
"80 0 LINE",
"260 0 LINE",
"260 690 LINE"
);
}
);
width = 653;
}
);
leftKerningGroup = H;
leftMetricsKey = H;
unicode = 00DE;
},
{
glyphname = Q;
lastChange = "2014-04-12 01:59:20 +0900";
layers = (
{
layerId = "518735FF-A855-4455-BD68-071AC00DFA4E";
name = Regular;
paths = (
{
closed = 1;
nodes = (
"163 704 OFFCURVE",
"47 556 OFFCURVE",
"47 345 CURVE SMOOTH",
"47 135 OFFCURVE",
"163 -14 OFFCURVE",
"373 -14 CURVE",
"373 54 LINE",
"228 54 OFFCURVE",
"143 166 OFFCURVE",
"143 345 CURVE SMOOTH",
"143 525 OFFCURVE",
"228 636 OFFCURVE",
"373 636 CURVE",
"373 704 LINE"
);
},
{
closed = 1;
nodes = (
"373 636 LINE",
"518 636 OFFCURVE",
"603 525 OFFCURVE",
"603 345 CURVE SMOOTH",
"603 166 OFFCURVE",
"518 54 OFFCURVE",
"373 54 CURVE",
"373 -14 LINE",
"549 57 LINE",
"647 115 OFFCURVE",
"699 219 OFFCURVE",
"699 345 CURVE SMOOTH",
"699 556 OFFCURVE",
"583 704 OFFCURVE",
"373 704 CURVE"
);
},
{
closed = 1;
nodes = (
"373 -14 LINE",
"399 -14 OFFCURVE",
"422 -12 OFFCURVE",
"444 -7 CURVE SMOOTH",
"472 -1 OFFCURVE",
"489 2 OFFCURVE",
"517 2 CURVE SMOOTH",
"552 2 OFFCURVE",
"584 -6 OFFCURVE",
"652 -52 CURVE",
"701 7 LINE",
"642 57 OFFCURVE",
"586 82 OFFCURVE",
"512 73 CURVE"
);
}
);
width = 733;
},
{
layerId = "4375068D-FDA0-47DA-A897-61BBB4269C7B";
name = Light;
paths = (
{
closed = 1;
nodes = (
"175 704 OFFCURVE",
"51 552 OFFCURVE",
"51 345 CURVE SMOOTH",
"51 139 OFFCURVE",
"175 -14 OFFCURVE",
"363 -14 CURVE",
"363 7 LINE",
"209 7 OFFCURVE",
"75 129 OFFCURVE",
"75 345 CURVE SMOOTH",
"75 562 OFFCURVE",
"209 683 OFFCURVE",
"363 683 CURVE",
"363 704 LINE"
);
},
{
closed = 1;
nodes = (
"363 683 LINE",
"517 683 OFFCURVE",
"651 562 OFFCURVE",
"651 345 CURVE SMOOTH",
"651 129 OFFCURVE",
"517 7 OFFCURVE",
"363 7 CURVE",
"363 -14 LINE",
"487 11 LINE",
"636 87 OFFCURVE",
"675 222 OFFCURVE",
"675 345 CURVE SMOOTH",
"675 552 OFFCURVE",
"551 704 OFFCURVE",
"363 704 CURVE"
);
},
{
closed = 1;
nodes = (
"363 -14 LINE",
"392 -14 OFFCURVE",
"410 -12 OFFCURVE",
"434 -7 CURVE SMOOTH",
"462 -1 OFFCURVE",
"479 2 OFFCURVE",
"501 2 CURVE SMOOTH",
"552 2 OFFCURVE",
"590 -11 OFFCURVE",
"642 -52 CURVE",
"656 -35 LINE",
"604 7 OFFCURVE",
"567 24 OFFCURVE",
"498 24 CURVE"
);
}
);
width = 715;
},
{
layerId = "F37E1481-2EA3-4843-874F-9D06DA6D7C4C";
name = Bold;
paths = (
{
closed = 1;
nodes = (
"192 705 OFFCURVE",
"54 567 OFFCURVE",
"54 345 CURVE SMOOTH",
"54 124 OFFCURVE",
"192 -14 OFFCURVE",
"407 -14 CURVE",
"407 118 LINE",
"303 118 OFFCURVE",
"238 199 OFFCURVE",
"238 345 CURVE SMOOTH",
"238 492 OFFCURVE",
"303 573 OFFCURVE",
"407 573 CURVE",
"407 705 LINE"
);
},
{
closed = 1;
nodes = (
"407 573 LINE",
"511 573 OFFCURVE",
"576 492 OFFCURVE",
"576 345 CURVE SMOOTH",
"576 199 OFFCURVE",
"511 118 OFFCURVE",
"407 118 CURVE",
"407 -14 LINE",
"509 52 LINE",
"676 75 OFFCURVE",
"760 203 OFFCURVE",
"760 345 CURVE SMOOTH",
"760 567 OFFCURVE",
"622 705 OFFCURVE",
"407 705 CURVE"
);
},
{
closed = 1;
nodes = (
"407 -14 LINE",
"433 -14 OFFCURVE",
"456 -12 OFFCURVE",
"478 -7 CURVE SMOOTH",
"506 -1 OFFCURVE",
"523 2 OFFCURVE",
"551 2 CURVE SMOOTH",
"598 2 OFFCURVE",
"629 -9 OFFCURVE",
"693 -48 CURVE",
"779 66 LINE",
"708 125 OFFCURVE",
"655 140 OFFCURVE",
"556 140 CURVE"
);
}
);
width = 791;
}
);
leftKerningGroup = O;
leftMetricsKey = O;
unicode = 0051;
},
{
glyphname = R;
lastChange = "2014-04-12 01:45:39 +0900";
layers = (
{
anchors = (
{
name = bottom;
position = "{317, 0}";
},
{
name = top;
position = "{322, 690}";
}
);
layerId = "518735FF-A855-4455-BD68-071AC00DFA4E";
name = Regular;
paths = (
{
closed = 1;
nodes = (
"180 690 LINE",
"180 620 LINE",
"326 620 LINE SMOOTH",
"357 620 OFFCURVE",
"376 619 OFFCURVE",
"395 616 CURVE SMOOTH",
"459 606 OFFCURVE",
"496 571 OFFCURVE",
"496 494 CURVE SMOOTH",
"496 416 OFFCURVE",
"449 375 OFFCURVE",
"385 369 CURVE SMOOTH",
"366 367 OFFCURVE",
"349 367 OFFCURVE",
"318 367 CURVE SMOOTH",
"180 367 LINE",
"180 297 LINE",
"316 297 LINE SMOOTH",
"332 297 OFFCURVE",
"349 297 OFFCURVE",
"365 296 CURVE SMOOTH",
"433 291 OFFCURVE",
"460 244 OFFCURVE",
"468 173 CURVE SMOOTH",
"477 88 OFFCURVE",
"486 44 OFFCURVE",
"505 0 CURVE",
"600 0 LINE",
"572 37 OFFCURVE",
"562 91 OFFCURVE",
"554 181 CURVE SMOOTH",
"546 271 OFFCURVE",
"502 352 OFFCURVE",
"403 352 CURVE",
"403 330 LINE",
"486 330 OFFCURVE",
"588 382 OFFCURVE",
"588 502 CURVE SMOOTH",
"588 618 OFFCURVE",
"516 673 OFFCURVE",
"416 686 CURVE SMOOTH",
"385 690 OFFCURVE",
"361 690 OFFCURVE",
"326 690 CURVE SMOOTH"
);
},
{
closed = 1;
nodes = (
"100 690 LINE",
"100 0 LINE",
"186 0 LINE",
"186 690 LINE"
);
}
);
width = 619;
},
{
anchors = (
{
name = bottom;
position = "{293, 0}";
},
{
name = top;
position = "{303, 690}";
}
);
layerId = "4375068D-FDA0-47DA-A897-61BBB4269C7B";
name = Light;
paths = (
{
closed = 1;
nodes = (
"110 690 LINE",
"110 669 LINE",
"263 669 LINE SMOOTH",
"299 669 OFFCURVE",
"326 668 OFFCURVE",
"358 664 CURVE SMOOTH",
"452 652 OFFCURVE",
"505 604 OFFCURVE",
"505 515 CURVE SMOOTH",
"505 429 OFFCURVE",
"448 368 OFFCURVE",
"354 361 CURVE SMOOTH",
"322 359 OFFCURVE",
"305 359 OFFCURVE",
"279 359 CURVE SMOOTH",
"110 359 LINE",
"110 338 LINE",
"279 338 LINE SMOOTH",
"295 338 OFFCURVE",
"320 338 OFFCURVE",
"342 337 CURVE SMOOTH",
"426 333 OFFCURVE",
"461 261 OFFCURVE",
"470 184 CURVE SMOOTH",
"482 84 OFFCURVE",
"498 44 OFFCURVE",
"513 0 CURVE",
"539 0 LINE",
"520 43 OFFCURVE",
"505 86 OFFCURVE",
"493 189 CURVE SMOOTH",
"482 285 OFFCURVE",
"434 354 OFFCURVE",
"343 354 CURVE",
"343 345 LINE",
"458 345 OFFCURVE",
"529 415 OFFCURVE",
"529 516 CURVE SMOOTH",
"529 615 OFFCURVE",
"469 672 OFFCURVE",
"362 685 CURVE SMOOTH",
"330 689 OFFCURVE",
"298 690 OFFCURVE",
"263 690 CURVE SMOOTH"
);
},
{
closed = 1;
nodes = (
"96 690 LINE",
"96 0 LINE",
"118 0 LINE",
"118 690 LINE"
);
}
);
width = 571;
},
{
anchors = (
{
name = bottom;
position = "{353, 0}";
},
{
name = top;
position = "{360, 690}";
}
);
layerId = "F37E1481-2EA3-4843-874F-9D06DA6D7C4C";
name = Bold;
paths = (
{
closed = 1;
nodes = (
"240 690 LINE",
"240 550 LINE",
"330 550 LINE SMOOTH",
"349 550 OFFCURVE",
"365 550 OFFCURVE",
"378 549 CURVE SMOOTH",
"424 545 OFFCURVE",
"461 529 OFFCURVE",
"461 471 CURVE SMOOTH",
"461 413 OFFCURVE",
"419 397 OFFCURVE",
"373 393 CURVE SMOOTH",
"360 392 OFFCURVE",
"344 392 OFFCURVE",
"325 392 CURVE SMOOTH",
"240 392 LINE",
"240 262 LINE",
"300 262 LINE SMOOTH",
"320 262 OFFCURVE",
"337 262 OFFCURVE",
"357 261 CURVE SMOOTH",
"403 258 OFFCURVE",
"433 214 OFFCURVE",
"442 138 CURVE SMOOTH",
"448 89 OFFCURVE",
"458 49 OFFCURVE",
"474 0 CURVE",
"670 0 LINE",
"643 41 OFFCURVE",
"627 90 OFFCURVE",
"618 168 CURVE SMOOTH",
"604 290 OFFCURVE",
"554 347 OFFCURVE",
"376 347 CURVE",
"376 311 LINE",
"556 315 OFFCURVE",
"649 380 OFFCURVE",
"649 502 CURVE SMOOTH",
"649 624 OFFCURVE",
"562 673 OFFCURVE",
"462 685 CURVE SMOOTH",
"425 689 OFFCURVE",
"397 690 OFFCURVE",
"354 690 CURVE SMOOTH"
);
},
{
closed = 1;
nodes = (
"80 690 LINE",
"80 0 LINE",
"260 0 LINE",
"260 690 LINE"
);
}
);
width = 682;
}
);
leftKerningGroup = H;
leftMetricsKey = H;
rightKerningGroup = R;
unicode = 0052;
},
{
glyphname = S;
lastChange = "2014-04-12 01:45:39 +0900";
layers = (
{
anchors = (
{
name = bottom;
position = "{304, 0}";
},
{
name = top;
position = "{304, 690}";
}
);
layerId = "518735FF-A855-4455-BD68-071AC00DFA4E";
name = Regular;
paths = (
{
closed = 1;
nodes = (
"187 704 OFFCURVE",
"84 629 OFFCURVE",
"84 510 CURVE SMOOTH",
"84 396 OFFCURVE",
"169 347 OFFCURVE",
"291 319 CURVE SMOOTH",
"412 291 OFFCURVE",
"460 253 OFFCURVE",
"460 169 CURVE SMOOTH",
"460 97 OFFCURVE",
"396 54 OFFCURVE",
"317 54 CURVE SMOOTH",
"227 54 OFFCURVE",
"164 105 OFFCURVE",
"144 196 CURVE",
"52 196 LINE",
"67 63 OFFCURVE",
"163 -14 OFFCURVE",
"315 -14 CURVE SMOOTH",
"448 -14 OFFCURVE",
"552 64 OFFCURVE",
"552 185 CURVE SMOOTH",
"552 302 OFFCURVE",
"476 364 OFFCURVE",
"324 399 CURVE SMOOTH",
"219 423 OFFCURVE",
"176 455 OFFCURVE",
"176 530 CURVE SMOOTH",
"176 602 OFFCURVE",
"234 636 OFFCURVE",
"307 636 CURVE SMOOTH",
"394 636 OFFCURVE",
"445 586 OFFCURVE",
"453 499 CURVE",
"545 499 LINE",
"532 617 OFFCURVE",
"457 704 OFFCURVE",
"314 704 CURVE SMOOTH"
);
}
);
width = 585;
},
{
anchors = (
{
name = bottom;
position = "{280, 0}";
},
{
name = top;
position = "{280, 690}";
}
);
layerId = "4375068D-FDA0-47DA-A897-61BBB4269C7B";
name = Light;
paths = (
{
closed = 1;
nodes = (
"170 704 OFFCURVE",
"71 632 OFFCURVE",
"71 531 CURVE SMOOTH",
"71 425 OFFCURVE",
"136 383 OFFCURVE",
"284 341 CURVE SMOOTH",
"424 301 OFFCURVE",
"483 264 OFFCURVE",
"483 165 CURVE SMOOTH",
"483 72 OFFCURVE",
"397 7 OFFCURVE",
"284 7 CURVE SMOOTH",
"172 7 OFFCURVE",
"74 67 OFFCURVE",
"61 180 CURVE",
"39 180 LINE",
"53 47 OFFCURVE",
"162 -14 OFFCURVE",
"283 -14 CURVE SMOOTH",
"412 -14 OFFCURVE",
"507 65 OFFCURVE",
"507 167 CURVE SMOOTH",
"507 275 OFFCURVE",
"437 322 OFFCURVE",
"294 363 CURVE SMOOTH",
"156 403 OFFCURVE",
"95 434 OFFCURVE",
"95 533 CURVE SMOOTH",
"95 632 OFFCURVE",
"195 683 OFFCURVE",
"283 683 CURVE SMOOTH",
"380 683 OFFCURVE",
"455 620 OFFCURVE",
"473 514 CURVE",
"495 514 LINE",
"482 617 OFFCURVE",
"413 704 OFFCURVE",
"284 704 CURVE SMOOTH"
);
}
);
width = 560;
},
{
anchors = (
{
name = bottom;
position = "{312, 0}";
},
{
name = top;
position = "{326, 690}";
}
);
layerId = "F37E1481-2EA3-4843-874F-9D06DA6D7C4C";
name = Bold;
paths = (
{
closed = 1;
nodes = (
"185 704 OFFCURVE",
"61 629 OFFCURVE",
"61 496 CURVE SMOOTH",
"61 358 OFFCURVE",
"153 309 OFFCURVE",
"310 270 CURVE SMOOTH",
"395 249 OFFCURVE",
"421 218 OFFCURVE",
"421 182 CURVE SMOOTH",
"421 144 OFFCURVE",
"383 118 OFFCURVE",
"333 118 CURVE SMOOTH",
"279 118 OFFCURVE",
"226 146 OFFCURVE",
"214 211 CURVE",
"34 211 LINE",
"45 56 OFFCURVE",
"163 -14 OFFCURVE",
"338 -14 CURVE SMOOTH",
"477 -14 OFFCURVE",
"609 56 OFFCURVE",
"609 194 CURVE SMOOTH",
"609 300 OFFCURVE",
"547 376 OFFCURVE",
"395 412 CURVE SMOOTH",
"281 439 OFFCURVE",
"249 466 OFFCURVE",
"249 510 CURVE SMOOTH",
"249 552 OFFCURVE",
"277 572 OFFCURVE",
"318 572 CURVE SMOOTH",
"377 572 OFFCURVE",
"407 534 OFFCURVE",
"415 477 CURVE",
"595 477 LINE",
"580 605 OFFCURVE",
"504 704 OFFCURVE",
"322 704 CURVE SMOOTH"
);
}
);
width = 626;
}
);
leftKerningGroup = S;
rightKerningGroup = S;
unicode = 0053;
},
{
glyphname = T;
lastChange = "2014-04-12 01:45:39 +0900";
layers = (
{
anchors = (
{
name = bottom;
position = "{323, 0}";
},
{
name = center;
position = "{323, 345}";
},
{
name = top;
position = "{323, 690}";
}
);
layerId = "518735FF-A855-4455-BD68-071AC00DFA4E";
name = Regular;
paths = (
{
closed = 1;
nodes = (
"280 690 LINE",
"280 0 LINE",
"366 0 LINE",
"366 690 LINE"
);
},
{
closed = 1;
nodes = (
"34 690 LINE",
"34 620 LINE",
"612 620 LINE",
"612 690 LINE"
);
}
);
width = 612;
},
{
anchors = (
{
name = bottom;
position = "{307, 0}";
},
{
name = center;
position = "{307, 345}";
},
{
name = top;
position = "{307, 690}";
}
);
layerId = "4375068D-FDA0-47DA-A897-61BBB4269C7B";
name = Light;
paths = (
{
closed = 1;
nodes = (
"296 690 LINE",
"296 0 LINE",
"318 0 LINE",
"318 690 LINE"
);
},
{
closed = 1;
nodes = (
"32 690 LINE",
"32 670 LINE",
"582 670 LINE",
"582 690 LINE"
);
}
);
width = 580;
},
{
anchors = (
{
name = bottom;
position = "{328, 0}";
},
{
name = center;
position = "{328, 345}";
},
{
name = top;
position = "{328, 690}";
}
);
layerId = "F37E1481-2EA3-4843-874F-9D06DA6D7C4C";
name = Bold;
paths = (
{
closed = 1;
nodes = (
"238 690 LINE",
"238 0 LINE",
"418 0 LINE",
"418 690 LINE"
);
},
{
closed = 1;
nodes = (
"14 690 LINE",
"14 550 LINE",
"642 550 LINE",
"642 690 LINE"
);
}
);
width = 632;
}
);
leftKerningGroup = T;
rightKerningGroup = T;
unicode = 0054;
},
{
glyphname = Tbar;
lastChange = "2014-04-12 01:45:38 +0900";
layers = (
{
components = (
{
disableAlignment = 1;
name = T;
transform = "{1, 0, 0, 1, 0, 0}";
}
);
layerId = "4375068D-FDA0-47DA-A897-61BBB4269C7B";
name = Light;
paths = (
{
closed = 1;
nodes = (
"152 344 LINE",
"152 323 LINE",
"462 323 LINE",
"462 344 LINE"
);
}
);
width = 580;
},
{
components = (
{
disableAlignment = 1;
name = T;
transform = "{1, 0, 0, 1, 0, 0}";
}
);
layerId = "518735FF-A855-4455-BD68-071AC00DFA4E";
name = Regular;
paths = (
{
closed = 1;
nodes = (
"168 361 LINE",
"168 305 LINE",
"478 305 LINE",
"478 361 LINE"
);
}
);
width = 612;
},
{
components = (
{
disableAlignment = 1;
name = T;
transform = "{1, 0, 0, 1, 0, 0}";
}
);
layerId = "F37E1481-2EA3-4843-874F-9D06DA6D7C4C";
name = Bold;
paths = (
{
closed = 1;
nodes = (
"148 389 LINE",
"148 293 LINE",
"508 293 LINE",
"508 389 LINE"
);
}
);
width = 632;
}
);
leftKerningGroup = T;
leftMetricsKey = T;
rightKerningGroup = T;
rightMetricsKey = T;
unicode = 0166;
},
{
glyphname = U;
lastChange = "2014-04-12 01:45:38 +0900";
layers = (
{
anchors = (
{
name = ogonek;
position = "{393, 0}";
},
{
name = top;
position = "{353, 690}";
}
);
layerId = "518735FF-A855-4455-BD68-071AC00DFA4E";
name = Regular;
paths = (
{
closed = 1;
nodes = (
"526 690 LINE",
"526 263 LINE SMOOTH",
"526 241 OFFCURVE",
"526 220 OFFCURVE",
"524 202 CURVE SMOOTH",
"516 115 OFFCURVE",
"459 54 OFFCURVE",
"353 54 CURVE SMOOTH",
"247 54 OFFCURVE",
"190 115 OFFCURVE",
"182 202 CURVE SMOOTH",
"180 220 OFFCURVE",
"180 241 OFFCURVE",
"180 263 CURVE SMOOTH",
"180 690 LINE",
"94 690 LINE",
"94 255 LINE SMOOTH",
"94 233 OFFCURVE",
"94 213 OFFCURVE",
"96 193 CURVE SMOOTH",
"106 78 OFFCURVE",
"184 -14 OFFCURVE",
"353 -14 CURVE SMOOTH",
"522 -14 OFFCURVE",
"600 78 OFFCURVE",
"610 193 CURVE SMOOTH",
"612 213 OFFCURVE",
"612 233 OFFCURVE",
"612 255 CURVE SMOOTH",
"612 690 LINE"
);
}
);
width = 682;
},
{
anchors = (
{
name = ogonek;
position = "{395, 0}";
},
{
name = top;
position = "{312, 690}";
}
);
layerId = "4375068D-FDA0-47DA-A897-61BBB4269C7B";
name = Light;
paths = (
{
closed = 1;
nodes = (
"512 690 LINE",
"512 229 LINE SMOOTH",
"512 206 OFFCURVE",
"511 188 OFFCURVE",
"509 167 CURVE SMOOTH",
"501 80 OFFCURVE",
"443 7 OFFCURVE",
"312 7 CURVE SMOOTH",
"181 7 OFFCURVE",
"123 80 OFFCURVE",
"115 167 CURVE SMOOTH",
"113 188 OFFCURVE",
"112 206 OFFCURVE",
"112 229 CURVE SMOOTH",
"112 690 LINE",
"90 690 LINE",
"90 233 LINE SMOOTH",
"90 218 OFFCURVE",
"91 197 OFFCURVE",
"93 166 CURVE SMOOTH",
"100 60 OFFCURVE",
"174 -14 OFFCURVE",
"312 -14 CURVE SMOOTH",
"450 -14 OFFCURVE",
"524 60 OFFCURVE",
"531 166 CURVE SMOOTH",
"533 197 OFFCURVE",
"534 218 OFFCURVE",
"534 233 CURVE SMOOTH",
"534 690 LINE"
);
}
);
width = 600;
},
{
anchors = (
{
name = ogonek;
position = "{373, 0}";
},
{
name = top;
position = "{374, 690}";
}
);
layerId = "F37E1481-2EA3-4843-874F-9D06DA6D7C4C";
name = Bold;
paths = (
{
closed = 1;
nodes = (
"500 690 LINE",
"500 270 LINE SMOOTH",
"500 251 OFFCURVE",
"500 241 OFFCURVE",
"499 229 CURVE SMOOTH",
"494 157 OFFCURVE",
"453 118 OFFCURVE",
"374 118 CURVE SMOOTH",
"295 118 OFFCURVE",
"254 157 OFFCURVE",
"249 229 CURVE SMOOTH",
"248 241 OFFCURVE",
"248 251 OFFCURVE",
"248 270 CURVE SMOOTH",
"248 690 LINE",
"68 690 LINE",
"68 303 LINE SMOOTH",
"68 268 OFFCURVE",
"68 247 OFFCURVE",
"71 206 CURVE SMOOTH",
"79 90 OFFCURVE",
"161 -14 OFFCURVE",
"374 -14 CURVE SMOOTH",
"587 -14 OFFCURVE",
"669 90 OFFCURVE",
"677 206 CURVE SMOOTH",
"680 247 OFFCURVE",
"680 268 OFFCURVE",
"680 303 CURVE SMOOTH",
"680 690 LINE"
);
}
);
width = 718;
}
);
leftKerningGroup = U;
rightKerningGroup = U;
unicode = 0055;
},
{
glyphname = V;
lastChange = "2014-04-12 01:45:38 +0900";
layers = (
{
layerId = "518735FF-A855-4455-BD68-071AC00DFA4E";
name = Regular;
paths = (
{
closed = 1;
nodes = (
"542 690 LINE",
"330 65 LINE",
"125 690 LINE",
"32 690 LINE",
"270 0 LINE",
"386 0 LINE",
"634 690 LINE"
);
}
);
width = 622;
},
{
layerId = "4375068D-FDA0-47DA-A897-61BBB4269C7B";
name = Light;
paths = (
{
closed = 1;
nodes = (
"566 690 LINE",
"308 19 LINE",
"50 690 LINE",
"26 690 LINE",
"293 0 LINE",
"323 0 LINE",
"590 690 LINE"
);
}
);
width = 583;
},
{
layerId = "F37E1481-2EA3-4843-874F-9D06DA6D7C4C";
name = Bold;
paths = (
{
closed = 1;
nodes = (
"559 690 LINE",
"393 139 LINE",
"228 690 LINE",
"32 690 LINE",
"281 0 LINE",
"501 0 LINE",
"750 690 LINE"
);
}
);
width = 742;
}
);
unicode = 0056;
},
{
glyphname = W;
lastChange = "2014-04-12 01:45:38 +0900";
layers = (
{
anchors = (
{
name = top;
position = "{487, 690}";
}
);
layerId = "518735FF-A855-4455-BD68-071AC00DFA4E";
name = Regular;
paths = (
{
closed = 1;
nodes = (
"854 690 LINE",
"690 31 LINE",
"713 31 LINE",
"545 680 LINE",
"429 680 LINE",
"257 32 LINE",
"280 31 LINE",
"124 690 LINE",
"26 690 LINE",
"208 0 LINE",
"322 0 LINE",
"496 638 LINE",
"473 639 LINE",
"640 0 LINE",
"753 0 LINE",
"945 690 LINE"
);
}
);
width = 952;
},
{
anchors = (
{
name = top;
position = "{416, 690}";
}
);
layerId = "4375068D-FDA0-47DA-A897-61BBB4269C7B";
name = Light;
paths = (
{
closed = 1;
nodes = (
"804 690 LINE",
"622 9 LINE",
"630 9 LINE",
"442 680 LINE",
"412 680 LINE",
"211 9 LINE",
"218 9 LINE",
"49 690 LINE",
"26 690 LINE",
"199 0 LINE",
"228 0 LINE",
"431 670 LINE",
"423 670 LINE",
"612 0 LINE",
"640 0 LINE",
"826 690 LINE"
);
}
);
width = 823;
},
{
anchors = (
{
name = top;
position = "{528, 690}";
}
);
layerId = "F37E1481-2EA3-4843-874F-9D06DA6D7C4C";
name = Bold;
paths = (
{
closed = 1;
nodes = (
"845 690 LINE",
"728 41 LINE",
"761 41 LINE",
"658 680 LINE",
"400 680 LINE",
"293 42 LINE",
"326 41 LINE",
"217 690 LINE",
"26 690 LINE",
"192 0 LINE",
"433 0 LINE",
"549 671 LINE",
"504 672 LINE",
"613 0 LINE",
"853 0 LINE",
"1029 690 LINE"
);
}
);
width = 1016;
}
);
leftKerningGroup = W;
rightKerningGroup = W;
unicode = 0057;
},
{
glyphname = X;
lastChange = "2014-04-12 01:45:38 +0900";
layers = (
{
layerId = "518735FF-A855-4455-BD68-071AC00DFA4E";
name = Regular;
paths = (
{
closed = 1;
nodes = (
"514 690 LINE",
"298 369 LINE",
"350 368 LINE",
"141 690 LINE",
"43 690 LINE",
"271 348 LINE",
"25 0 LINE",
"124 0 LINE",
"346 330 LINE",
"295 329 LINE",
"522 0 LINE",
"623 0 LINE",
"373 351 LINE",
"613 690 LINE"
);
}
);
width = 625;
},
{
layerId = "4375068D-FDA0-47DA-A897-61BBB4269C7B";
name = Light;
paths = (
{
closed = 1;
nodes = (
"533 690 LINE",
"285 356 LINE",
"295 356 LINE",
"70 690 LINE",
"45 690 LINE",
"276 344 LINE",
"28 0 LINE",
"56 0 LINE",
"296 335 LINE",
"287 335 LINE",
"526 0 LINE",
"556 0 LINE",
"304 345 LINE",
"562 690 LINE"
);
}
);
width = 572;
},
{
layerId = "F37E1481-2EA3-4843-874F-9D06DA6D7C4C";
name = Bold;
paths = (
{
closed = 1;
nodes = (
"511 690 LINE",
"318 373 LINE",
"420 372 LINE",
"241 690 LINE",
"31 690 LINE",
"261 348 LINE",
"14 0 LINE",
"231 0 LINE",
"418 326 LINE",
"307 325 LINE",
"510 0 LINE",
"720 0 LINE",
"477 351 LINE",
"718 690 LINE"
);
}
);
width = 717;
}
);
unicode = 0058;
},
{
glyphname = Y;
lastChange = "2014-05-06 11:19:49 +0900";
layers = (
{
anchors = (
{
name = top;
position = "{306, 690}";
}
);
layerId = "518735FF-A855-4455-BD68-071AC00DFA4E";
name = Regular;
paths = (
{
closed = 1;
nodes = (
"496 690 LINE",
"310 355 LINE",
"118 690 LINE",
"19 690 LINE",
"276 250 LINE",
"336 250 LINE",
"593 690 LINE"
);
},
{
closed = 1;
nodes = (
"263 300 LINE",
"263 0 LINE",
"349 0 LINE",
"349 300 LINE"
);
}
);
width = 581;
},
{
anchors = (
{
name = top;
position = "{279, 690}";
}
);
layerId = "4375068D-FDA0-47DA-A897-61BBB4269C7B";
name = Light;
paths = (
{
closed = 1;
nodes = (
"509 690 LINE",
"280 305 LINE",
"49 690 LINE",
"23 690 LINE",
"269 280 LINE",
"289 280 LINE",
"536 690 LINE"
);
},
{
closed = 1;
nodes = (
"268 296 LINE",
"268 0 LINE",
"290 0 LINE",
"290 295 LINE"
);
}
);
width = 545;
},
{
anchors = (
{
name = top;
position = "{347, 690}";
}
);
layerId = "F37E1481-2EA3-4843-874F-9D06DA6D7C4C";
name = Bold;
paths = (
{
closed = 1;
nodes = (
"483 690 LINE",
"352 417 LINE",
"216 690 LINE",
"14 690 LINE",
"267 246 LINE",
"427 246 LINE",
"680 690 LINE"
);
},
{
closed = 1;
nodes = (
"257 380 LINE",
"257 0 LINE",
"437 0 LINE",
"437 380 LINE"
);
}
);
width = 663;
}
);
leftKerningGroup = Y;
rightKerningGroup = Y;
unicode = 0059;
},
{
glyphname = Z;
lastChange = "2014-04-12 01:45:38 +0900";
layers = (
{
anchors = (
{
name = top;
position = "{306, 690}";
}
);
layerId = "518735FF-A855-4455-BD68-071AC00DFA4E";
name = Regular;
paths = (
{
closed = 1;
nodes = (
"74 690 LINE",
"74 620 LINE",
"485 620 LINE",
"485 649 LINE",
"46 66 LINE",
"46 0 LINE",
"569 0 LINE",
"569 70 LINE",
"126 70 LINE",
"126 41 LINE",
"563 621 LINE",
"563 690 LINE"
);
}
);
width = 591;
},
{
anchors = (
{
name = top;
position = "{274, 690}";
}
);
layerId = "4375068D-FDA0-47DA-A897-61BBB4269C7B";
name = Light;
paths = (
{
closed = 1;
nodes = (
"64 690 LINE",
"64 669 LINE",
"490 669 LINE",
"490 684 LINE",
"36 17 LINE",
"36 0 LINE",
"512 0 LINE",
"512 21 LINE",
"54 21 LINE",
"54 6 LINE",
"506 670 LINE",
"506 690 LINE"
);
}
);
width = 537;
},
{
anchors = (
{
name = top;
position = "{341, 690}";
}
);
layerId = "F37E1481-2EA3-4843-874F-9D06DA6D7C4C";
name = Bold;
paths = (
{
closed = 1;
nodes = (
"81 690 LINE",
"81 550 LINE",
"475 550 LINE",
"475 649 LINE",
"53 136 LINE",
"53 0 LINE",
"618 0 LINE",
"618 140 LINE",
"194 140 LINE",
"194 41 LINE",
"614 551 LINE",
"614 690 LINE"
);
}
);
width = 648;
}
);
leftKerningGroup = Z;
rightKerningGroup = Z;
unicode = 005A;
},
{
glyphname = a;
lastChange = "2014-04-12 01:45:39 +0900";
layers = (
{
anchors = (
{
name = ogonek;
position = "{378, 0}";
},
{
name = top;
position = "{264, 530}";
}
);
layerId = "518735FF-A855-4455-BD68-071AC00DFA4E";
name = Regular;
paths = (
{
closed = 1;
nodes = (
"146 544 OFFCURVE",
"67 479 OFFCURVE",
"59 366 CURVE",
"149 366 LINE",
"155 439 OFFCURVE",
"191 478 OFFCURVE",
"263 478 CURVE SMOOTH",
"334 478 OFFCURVE",
"362 446 OFFCURVE",
"366 397 CURVE SMOOTH",
"368 377 OFFCURVE",
"368 356 OFFCURVE",
"368 333 CURVE SMOOTH",
"368 85 LINE",
"378 0 LINE",
"464 0 LINE",
"456 59 OFFCURVE",
"454 95 OFFCURVE",
"454 135 CURVE SMOOTH",
"454 334 LINE SMOOTH",
"454 357 OFFCURVE",
"453 383 OFFCURVE",
"451 404 CURVE SMOOTH",
"442 491 OFFCURVE",
"389 544 OFFCURVE",
"263 544 CURVE SMOOTH"
);
},
{
closed = 1;
nodes = (
"334 319 LINE SMOOTH",
"126 319 OFFCURVE",
"36 257 OFFCURVE",
"36 137 CURVE SMOOTH",
"36 39 OFFCURVE",
"111 -14 OFFCURVE",
"207 -14 CURVE SMOOTH",
"258 -14 OFFCURVE",
"304 -6 OFFCURVE",
"340 19 CURVE",
"375 87 LINE",
"368 201 LINE",
"368 105 OFFCURVE",
"316 52 OFFCURVE",
"236 52 CURVE SMOOTH",
"171 52 OFFCURVE",
"130 80 OFFCURVE",
"130 144 CURVE SMOOTH",
"130 236 OFFCURVE",
"224 267 OFFCURVE",
"373 255 CURVE",
"373 319 LINE"
);
}
);
width = 531;
},
{
anchors = (
{
name = ogonek;
position = "{409, 0}";
},
{
name = top;
position = "{255, 530}";
}
);
layerId = "4375068D-FDA0-47DA-A897-61BBB4269C7B";
name = Light;
paths = (
{
closed = 1;
nodes = (
"150 540 OFFCURVE",
"73 470 OFFCURVE",
"67 382 CURVE",
"89 382 LINE",
"101 480 OFFCURVE",
"180 519 OFFCURVE",
"254 519 CURVE SMOOTH",
"340 519 OFFCURVE",
"392 477 OFFCURVE",
"399 398 CURVE SMOOTH",
"401 375 OFFCURVE",
"401 355 OFFCURVE",
"401 330 CURVE SMOOTH",
"401 149 LINE",
"409 0 LINE",
"432 0 LINE",
"426 69 OFFCURVE",
"423 110 OFFCURVE",
"423 170 CURVE SMOOTH",
"423 332 LINE SMOOTH",
"423 360 OFFCURVE",
"423 374 OFFCURVE",
"421 401 CURVE SMOOTH",
"414 489 OFFCURVE",
"357 540 OFFCURVE",
"254 540 CURVE SMOOTH"
);
},
{
closed = 1;
nodes = (
"367 303 LINE SMOOTH",
"203 303 OFFCURVE",
"47 250 OFFCURVE",
"47 127 CURVE SMOOTH",
"47 33 OFFCURVE",
"109 -14 OFFCURVE",
"209 -14 CURVE SMOOTH",
"280 -14 OFFCURVE",
"342 17 OFFCURVE",
"379 76 CURVE",
"408 142 LINE",
"401 209 LINE",
"401 105 OFFCURVE",
"325 7 OFFCURVE",
"212 7 CURVE SMOOTH",
"116 7 OFFCURVE",
"71 55 OFFCURVE",
"71 128 CURVE SMOOTH",
"71 249 OFFCURVE",
"251 292 OFFCURVE",
"406 281 CURVE",
"406 303 LINE"
);
}
);
width = 494;
},
{
anchors = (
{
name = ogonek;
position = "{367, 0}";
},
{
name = top;
position = "{293, 530}";
}
);
layerId = "F37E1481-2EA3-4843-874F-9D06DA6D7C4C";
name = Bold;
paths = (
{
closed = 1;
nodes = (
"160 548 OFFCURVE",
"49 477 OFFCURVE",
"48 352 CURVE",
"218 353 LINE",
"221 399 OFFCURVE",
"245 426 OFFCURVE",
"287 426 CURVE SMOOTH",
"326 426 OFFCURVE",
"348 402 OFFCURVE",
"351 375 CURVE SMOOTH",
"353 358 OFFCURVE",
"353 347 OFFCURVE",
"353 336 CURVE SMOOTH",
"353 95 LINE",
"367 0 LINE",
"543 0 LINE",
"535 59 OFFCURVE",
"533 95 OFFCURVE",
"533 135 CURVE SMOOTH",
"533 285 LINE SMOOTH",
"533 318 OFFCURVE",
"532 349 OFFCURVE",
"530 376 CURVE SMOOTH",
"522 473 OFFCURVE",
"464 548 OFFCURVE",
"295 548 CURVE SMOOTH"
);
},
{
closed = 1;
nodes = (
"319 328 LINE SMOOTH",
"138 328 OFFCURVE",
"30 258 OFFCURVE",
"30 144 CURVE SMOOTH",
"30 41 OFFCURVE",
"113 -14 OFFCURVE",
"201 -14 CURVE SMOOTH",
"250 -14 OFFCURVE",
"295 -2 OFFCURVE",
"333 22 CURVE",
"360 90 LINE",
"353 191 LINE",
"353 135 OFFCURVE",
"311 108 OFFCURVE",
"275 108 CURVE SMOOTH",
"239 108 OFFCURVE",
"214 126 OFFCURVE",
"214 158 CURVE SMOOTH",
"214 212 OFFCURVE",
"274 233 OFFCURVE",
"358 226 CURVE",
"358 328 LINE"
);
}
);
width = 587;
}
);
leftKerningGroup = a;
rightKerningGroup = a;
rightMetricsKey = "=h-4";
unicode = 0061;
},
{
glyphname = ae;
lastChange = "2014-04-12 01:45:39 +0900";
layers = (
{
anchors = (
{
name = top;
position = "{537, 530}";
}
);
layerId = "4375068D-FDA0-47DA-A897-61BBB4269C7B";
name = Light;
paths = (
{
closed = 1;
nodes = (
"568 540 OFFCURVE",
"470 482 OFFCURVE",
"445 370 CURVE",
"449 370 LINE",
"438 484 OFFCURVE",
"371 540 OFFCURVE",
"259 540 CURVE SMOOTH",
"153 540 OFFCURVE",
"70 470 OFFCURVE",
"64 382 CURVE",
"86 382 LINE",
"98 480 OFFCURVE",
"185 519 OFFCURVE",
"259 519 CURVE SMOOTH",
"380 519 OFFCURVE",
"431 444 OFFCURVE",
"431 304 CURVE SMOOTH",
"431 280 LINE",
"397 280 LINE SMOOTH",
"223 280 OFFCURVE",
"47 250 OFFCURVE",
"47 127 CURVE SMOOTH",
"47 27 OFFCURVE",
"129 -14 OFFCURVE",
"219 -14 CURVE SMOOTH",
"304 -14 OFFCURVE",
"372 20 OFFCURVE",
"423 96 CURVE",
"451 180 LINE",
"440 195 LINE",
"450 47 OFFCURVE",
"560 -14 OFFCURVE",
"657 -14 CURVE SMOOTH",
"757 -14 OFFCURVE",
"846 45 OFFCURVE",
"878 161 CURVE",
"856 161 LINE",
"825 54 OFFCURVE",
"742 7 OFFCURVE",
"659 7 CURVE SMOOTH",
"552 7 OFFCURVE",
"458 76 OFFCURVE",
"454 258 CURVE",
"885 258 LINE",
"886 269 OFFCURVE",
"886 273 OFFCURVE",
"886 277 CURVE SMOOTH",
"886 408 OFFCURVE",
"823 540 OFFCURVE",
"666 540 CURVE SMOOTH"
);
},
{
closed = 1;
nodes = (
"431 229 LINE SMOOTH",
"431 97 OFFCURVE",
"343 7 OFFCURVE",
"222 7 CURVE SMOOTH",
"130 7 OFFCURVE",
"71 55 OFFCURVE",
"71 128 CURVE SMOOTH",
"71 241 OFFCURVE",
"267 265 OFFCURVE",
"431 258 CURVE"
);
},
{
closed = 1;
nodes = (
"760 519 OFFCURVE",
"858 461 OFFCURVE",
"862 279 CURVE",
"454 279 LINE",
"458 444 OFFCURVE",
"556 519 OFFCURVE",
"664 519 CURVE SMOOTH"
);
}
);
width = 922;
},
{
anchors = (
{
name = top;
position = "{480, 530}";
}
);
layerId = "518735FF-A855-4455-BD68-071AC00DFA4E";
name = Regular;
paths = (
{
closed = 1;
nodes = (
"508 544 OFFCURVE",
"437 478 OFFCURVE",
"402 368 CURVE",
"457 368 LINE",
"447 480 OFFCURVE",
"398 544 OFFCURVE",
"263 544 CURVE SMOOTH",
"139 544 OFFCURVE",
"62 479 OFFCURVE",
"59 366 CURVE",
"149 366 LINE",
"152 439 OFFCURVE",
"188 478 OFFCURVE",
"263 478 CURVE SMOOTH",
"346 478 OFFCURVE",
"378 421 OFFCURVE",
"378 333 CURVE SMOOTH",
"378 305 LINE",
"344 305 LINE SMOOTH",
"136 305 OFFCURVE",
"36 257 OFFCURVE",
"36 137 CURVE SMOOTH",
"36 39 OFFCURVE",
"118 -14 OFFCURVE",
"214 -14 CURVE SMOOTH",
"275 -14 OFFCURVE",
"331 1 OFFCURVE",
"384 47 CURVE",
"446 169 LINE",
"388 168 LINE",
"420 33 OFFCURVE",
"506 -14 OFFCURVE",
"610 -14 CURVE SMOOTH",
"719 -14 OFFCURVE",
"820 43 OFFCURVE",
"841 171 CURVE",
"751 171 LINE",
"739 95 OFFCURVE",
"683 52 OFFCURVE",
"614 52 CURVE SMOOTH",
"536 52 OFFCURVE",
"472 107 OFFCURVE",
"464 239 CURVE",
"846 239 LINE",
"848 258 OFFCURVE",
"848 272 OFFCURVE",
"848 280 CURVE SMOOTH",
"848 435 OFFCURVE",
"767 544 OFFCURVE",
"621 544 CURVE SMOOTH"
);
},
{
closed = 1;
nodes = (
"378 209 LINE SMOOTH",
"378 113 OFFCURVE",
"316 52 OFFCURVE",
"236 52 CURVE SMOOTH",
"171 52 OFFCURVE",
"130 80 OFFCURVE",
"130 144 CURVE SMOOTH",
"130 230 OFFCURVE",
"222 245 OFFCURVE",
"378 239 CURVE"
);
},
{
closed = 1;
nodes = (
"706 478 OFFCURVE",
"752 415 OFFCURVE",
"761 305 CURVE",
"464 305 LINE",
"475 418 OFFCURVE",
"534 478 OFFCURVE",
"619 478 CURVE SMOOTH"
);
}
);
width = 888;
},
{
anchors = (
{
name = top;
position = "{621, 530}";
}
);
layerId = "F37E1481-2EA3-4843-874F-9D06DA6D7C4C";
name = Bold;
paths = (
{
closed = 1;
nodes = (
"574 548 OFFCURVE",
"479 492 OFFCURVE",
"453 379 CURVE",
"507 379 LINE",
"499 484 OFFCURVE",
"428 548 OFFCURVE",
"295 548 CURVE SMOOTH",
"160 548 OFFCURVE",
"49 477 OFFCURVE",
"48 352 CURVE",
"218 352 LINE",
"221 399 OFFCURVE",
"255 426 OFFCURVE",
"297 426 CURVE SMOOTH",
"351 426 OFFCURVE",
"377 397 OFFCURVE",
"377 338 CURVE SMOOTH",
"377 332 LINE",
"319 332 LINE SMOOTH",
"148 332 OFFCURVE",
"30 271 OFFCURVE",
"30 149 CURVE SMOOTH",
"30 41 OFFCURVE",
"113 -14 OFFCURVE",
"241 -14 CURVE SMOOTH",
"290 -14 OFFCURVE",
"345 -2 OFFCURVE",
"383 22 CURVE",
"491 148 LINE",
"426 148 LINE",
"467 39 OFFCURVE",
"555 -14 OFFCURVE",
"672 -14 CURVE SMOOTH",
"809 -14 OFFCURVE",
"909 54 OFFCURVE",
"940 175 CURVE",
"763 175 LINE",
"756 134 OFFCURVE",
"725 108 OFFCURVE",
"674 108 CURVE SMOOTH",
"623 108 OFFCURVE",
"584 133 OFFCURVE",
"575 222 CURVE",
"947 222 LINE",
"949 240 OFFCURVE",
"950 258 OFFCURVE",
"950 274 CURVE SMOOTH",
"950 412 OFFCURVE",
"860 548 OFFCURVE",
"692 548 CURVE SMOOTH"
);
},
{
closed = 1;
nodes = (
"378 214 LINE SMOOTH",
"378 146 OFFCURVE",
"341 108 OFFCURVE",
"286 108 CURVE SMOOTH",
"239 108 OFFCURVE",
"214 126 OFFCURVE",
"214 163 CURVE SMOOTH",
"214 210 OFFCURVE",
"264 228 OFFCURVE",
"378 222 CURVE"
);
},
{
closed = 1;
nodes = (
"722 426 OFFCURVE",
"753 394 OFFCURVE",
"762 332 CURVE",
"581 332 LINE",
"594 397 OFFCURVE",
"627 426 OFFCURVE",
"673 426 CURVE SMOOTH"
);
}
);
width = 974;
}
);
leftKerningGroup = a;
leftMetricsKey = a;
rightKerningGroup = e;
rightMetricsKey = e;
unicode = 00E6;
},
{
glyphname = b;
lastChange = "2014-04-12 01:45:39 +0900";
layers = (
{
layerId = "4375068D-FDA0-47DA-A897-61BBB4269C7B";
name = Light;
paths = (
{
closed = 1;
nodes = (
"215 540 OFFCURVE",
"168 522 OFFCURVE",
"121 466 CURVE",
"84 387 LINE",
"93 288 LINE",
"93 461 OFFCURVE",
"181 519 OFFCURVE",
"285 519 CURVE SMOOTH",
"418 519 OFFCURVE",
"490 401 OFFCURVE",
"490 263 CURVE SMOOTH",
"490 112 OFFCURVE",
"401 7 OFFCURVE",
"275 7 CURVE SMOOTH",
"193 7 OFFCURVE",
"93 57 OFFCURVE",
"93 229 CURVE",
"80 149 LINE",
"122 54 LINE",
"165 6 OFFCURVE",
"208 -14 OFFCURVE",
"275 -14 CURVE SMOOTH",
"402 -14 OFFCURVE",
"514 81 OFFCURVE",
"514 267 CURVE SMOOTH",
"514 427 OFFCURVE",
"424 540 OFFCURVE",
"287 540 CURVE SMOOTH"
);
},
{
closed = 1;
nodes = (
"71 735 LINE",
"71 0 LINE",
"93 0 LINE",
"93 735 LINE"
);
}
);
width = 544;
},
{
layerId = "F37E1481-2EA3-4843-874F-9D06DA6D7C4C";
name = Bold;
paths = (
{
closed = 1;
nodes = (
"356 548 OFFCURVE",
"304 537 OFFCURVE",
"274 515 CURVE",
"220 435 LINE",
"234 274 LINE",
"234 386 OFFCURVE",
"282 426 OFFCURVE",
"348 426 CURVE SMOOTH",
"411 426 OFFCURVE",
"461 370 OFFCURVE",
"461 270 CURVE SMOOTH",
"461 161 OFFCURVE",
"413 108 OFFCURVE",
"343 108 CURVE SMOOTH",
"289 108 OFFCURVE",
"234 144 OFFCURVE",
"234 251 CURVE",
"216 99 LINE",
"269 12 LINE",
"296 -4 OFFCURVE",
"348 -14 OFFCURVE",
"392 -14 CURVE SMOOTH",
"529 -14 OFFCURVE",
"645 89 OFFCURVE",
"645 279 CURVE SMOOTH",
"645 437 OFFCURVE",
"555 548 OFFCURVE",
"410 548 CURVE SMOOTH"
);
},
{
closed = 1;
nodes = (
"54 735 LINE",
"54 0 LINE",
"234 0 LINE",
"234 735 LINE"
);
}
);
width = 669;
},
{
layerId = "518735FF-A855-4455-BD68-071AC00DFA4E";
name = Regular;
paths = (
{
closed = 1;
nodes = (
"286 544 OFFCURVE",
"230 527 OFFCURVE",
"200 502 CURVE",
"146 425 LINE",
"160 270 LINE",
"160 422 OFFCURVE",
"239 478 OFFCURVE",
"327 478 CURVE SMOOTH",
"433 478 OFFCURVE",
"487 383 OFFCURVE",
"487 263 CURVE SMOOTH",
"487 124 OFFCURVE",
"415 52 OFFCURVE",
"322 52 CURVE SMOOTH",
"246 52 OFFCURVE",
"160 104 OFFCURVE",
"160 241 CURVE",
"142 99 LINE",
"195 21 LINE",
"222 -1 OFFCURVE",
"278 -14 OFFCURVE",
"322 -14 CURVE SMOOTH",
"459 -14 OFFCURVE",
"581 77 OFFCURVE",
"581 273 CURVE SMOOTH",
"581 428 OFFCURVE",
"495 544 OFFCURVE",
"340 544 CURVE SMOOTH"
);
},
{
closed = 1;
nodes = (
"74 735 LINE",
"74 0 LINE",
"160 0 LINE",
"160 735 LINE"
);
}
);
width = 611;
}
);
leftKerningGroup = h;
leftMetricsKey = h;
rightKerningGroup = o;
rightMetricsKey = o;
unicode = 0062;
},
{
glyphname = c;
lastChange = "2014-04-12 01:45:39 +0900";
layers = (
{
anchors = (
{
name = bottom;
position = "{259, 0}";
},
{
name = top;
position = "{269, 530}";
}
);
layerId = "518735FF-A855-4455-BD68-071AC00DFA4E";
name = Regular;
paths = (
{
closed = 1;
nodes = (
"146 544 OFFCURVE",
"30 443 OFFCURVE",
"30 264 CURVE SMOOTH",
"30 70 OFFCURVE",
"132 -14 OFFCURVE",
"266 -14 CURVE SMOOTH",
"384 -14 OFFCURVE",
"472 46 OFFCURVE",
"498 169 CURVE",
"408 169 LINE",
"390 92 OFFCURVE",
"341 52 OFFCURVE",
"271 52 CURVE SMOOTH",
"192 52 OFFCURVE",
"124 116 OFFCURVE",
"124 270 CURVE SMOOTH",
"124 413 OFFCURVE",
"194 478 OFFCURVE",
"277 478 CURVE SMOOTH",
"348 478 OFFCURVE",
"394 437 OFFCURVE",
"413 352 CURVE",
"503 352 LINE",
"487 468 OFFCURVE",
"406 544 OFFCURVE",
"279 544 CURVE SMOOTH"
);
}
);
width = 529;
},
{
anchors = (
{
name = bottom;
position = "{255, 0}";
},
{
name = top;
position = "{265, 530}";
}
);
layerId = "4375068D-FDA0-47DA-A897-61BBB4269C7B";
name = Light;
paths = (
{
closed = 1;
nodes = (
"139 540 OFFCURVE",
"30 433 OFFCURVE",
"30 263 CURVE SMOOTH",
"30 88 OFFCURVE",
"134 -14 OFFCURVE",
"263 -14 CURVE SMOOTH",
"371 -14 OFFCURVE",
"456 51 OFFCURVE",
"477 157 CURVE",
"455 157 LINE",
"435 60 OFFCURVE",
"356 6 OFFCURVE",
"265 6 CURVE SMOOTH",
"159 6 OFFCURVE",
"54 90 OFFCURVE",
"54 268 CURVE SMOOTH",
"54 438 OFFCURVE",
"170 520 OFFCURVE",
"269 520 CURVE SMOOTH",
"376 520 OFFCURVE",
"442 458 OFFCURVE",
"459 363 CURVE",
"481 363 LINE",
"466 468 OFFCURVE",
"385 540 OFFCURVE",
"271 540 CURVE SMOOTH"
);
}
);
width = 517;
},
{
anchors = (
{
name = bottom;
position = "{293, 0}";
},
{
name = top;
position = "{293, 530}";
}
);
layerId = "F37E1481-2EA3-4843-874F-9D06DA6D7C4C";
name = Bold;
paths = (
{
closed = 1;
nodes = (
"148 548 OFFCURVE",
"24 445 OFFCURVE",
"24 261 CURVE SMOOTH",
"24 85 OFFCURVE",
"140 -14 OFFCURVE",
"293 -14 CURVE SMOOTH",
"438 -14 OFFCURVE",
"545 58 OFFCURVE",
"565 196 CURVE",
"388 196 LINE",
"378 138 OFFCURVE",
"344 108 OFFCURVE",
"303 108 CURVE SMOOTH",
"242 108 OFFCURVE",
"208 158 OFFCURVE",
"208 272 CURVE SMOOTH",
"208 375 OFFCURVE",
"241 426 OFFCURVE",
"301 426 CURVE SMOOTH",
"346 426 OFFCURVE",
"381 400 OFFCURVE",
"389 330 CURVE",
"563 330 LINE",
"558 450 OFFCURVE",
"462 548 OFFCURVE",
"305 548 CURVE SMOOTH"
);
}
);
width = 587;
}
);
leftKerningGroup = o;
leftMetricsKey = o;
rightKerningGroup = c;
unicode = 0063;
},
{
glyphname = d;
lastChange = "2014-04-12 01:45:39 +0900";
layers = (
{
anchors = (
{
name = center;
position = "{294, 265}";
}
);
layerId = "518735FF-A855-4455-BD68-071AC00DFA4E";
name = Regular;
paths = (
{
closed = 1;
nodes = (
"152 544 OFFCURVE",
"30 453 OFFCURVE",
"30 257 CURVE SMOOTH",
"30 102 OFFCURVE",
"116 -14 OFFCURVE",
"271 -14 CURVE SMOOTH",
"325 -14 OFFCURVE",
"381 3 OFFCURVE",
"411 28 CURVE",
"465 105 LINE",
"451 260 LINE",
"451 108 OFFCURVE",
"372 52 OFFCURVE",
"284 52 CURVE SMOOTH",
"178 52 OFFCURVE",
"124 147 OFFCURVE",
"124 267 CURVE SMOOTH",
"124 406 OFFCURVE",
"196 478 OFFCURVE",
"289 478 CURVE SMOOTH",
"365 478 OFFCURVE",
"451 426 OFFCURVE",
"451 289 CURVE",
"469 431 LINE",
"416 509 LINE",
"389 531 OFFCURVE",
"333 544 OFFCURVE",
"289 544 CURVE SMOOTH"
);
},
{
closed = 1;
nodes = (
"451 735 LINE",
"451 0 LINE",
"537 0 LINE",
"537 735 LINE"
);
}
);
width = 615;
},
{
anchors = (
{
name = center;
position = "{264, 265}";
}
);
layerId = "4375068D-FDA0-47DA-A897-61BBB4269C7B";
name = Light;
paths = (
{
closed = 1;
nodes = (
"142 540 OFFCURVE",
"30 445 OFFCURVE",
"30 259 CURVE SMOOTH",
"30 99 OFFCURVE",
"120 -14 OFFCURVE",
"257 -14 CURVE SMOOTH",
"329 -14 OFFCURVE",
"376 4 OFFCURVE",
"423 60 CURVE",
"460 139 LINE",
"451 238 LINE",
"451 65 OFFCURVE",
"363 7 OFFCURVE",
"259 7 CURVE SMOOTH",
"126 7 OFFCURVE",
"54 125 OFFCURVE",
"54 263 CURVE SMOOTH",
"54 414 OFFCURVE",
"143 519 OFFCURVE",
"269 519 CURVE SMOOTH",
"351 519 OFFCURVE",
"451 469 OFFCURVE",
"451 297 CURVE",
"464 377 LINE",
"422 472 LINE",
"379 520 OFFCURVE",
"336 540 OFFCURVE",
"269 540 CURVE SMOOTH"
);
},
{
closed = 1;
nodes = (
"451 735 LINE",
"451 0 LINE",
"473 0 LINE",
"473 735 LINE"
);
}
);
width = 544;
},
{
anchors = (
{
name = center;
position = "{327, 265}";
}
);
layerId = "F37E1481-2EA3-4843-874F-9D06DA6D7C4C";
name = Bold;
paths = (
{
closed = 1;
nodes = (
"140 548 OFFCURVE",
"24 445 OFFCURVE",
"24 255 CURVE SMOOTH",
"24 97 OFFCURVE",
"114 -14 OFFCURVE",
"259 -14 CURVE SMOOTH",
"313 -14 OFFCURVE",
"365 -3 OFFCURVE",
"395 19 CURVE",
"449 99 LINE",
"435 260 LINE",
"435 148 OFFCURVE",
"387 108 OFFCURVE",
"321 108 CURVE SMOOTH",
"258 108 OFFCURVE",
"208 164 OFFCURVE",
"208 264 CURVE SMOOTH",
"208 373 OFFCURVE",
"256 426 OFFCURVE",
"326 426 CURVE SMOOTH",
"380 426 OFFCURVE",
"435 390 OFFCURVE",
"435 283 CURVE",
"453 435 LINE",
"400 522 LINE",
"373 538 OFFCURVE",
"321 548 OFFCURVE",
"277 548 CURVE SMOOTH"
);
},
{
closed = 1;
nodes = (
"435 735 LINE",
"435 0 LINE",
"615 0 LINE",
"615 735 LINE"
);
}
);
width = 669;
}
);
leftKerningGroup = o;
leftMetricsKey = o;
rightKerningGroup = d;
unicode = 0064;
},
{
glyphname = eth;
lastChange = "2014-04-12 01:45:39 +0900";
layers = (
{
layerId = "518735FF-A855-4455-BD68-071AC00DFA4E";
name = Regular;
paths = (
{
closed = 1;
nodes = (
"241 690 LINE",
"370 643 OFFCURVE",
"435 560 OFFCURVE",
"435 425 CURVE",
"456 425 LINE",
"389 515 LINE",
"352 537 OFFCURVE",
"321 544 OFFCURVE",
"272 544 CURVE SMOOTH",
"145 544 OFFCURVE",
"30 437 OFFCURVE",
"30 257 CURVE SMOOTH",
"30 102 OFFCURVE",
"112 -14 OFFCURVE",
"277 -14 CURVE SMOOTH",
"414 -14 OFFCURVE",
"538 74 OFFCURVE",
"538 307 CURVE SMOOTH",
"538 532 OFFCURVE",
"473 671 OFFCURVE",
"295 745 CURVE"
);
},
{
closed = 1;
nodes = (
"358 478 OFFCURVE",
"444 426 OFFCURVE",
"444 289 CURVE SMOOTH",
"444 260 LINE SMOOTH",
"444 117 OFFCURVE",
"371 52 OFFCURVE",
"283 52 CURVE SMOOTH",
"177 52 OFFCURVE",
"124 135 OFFCURVE",
"124 267 CURVE SMOOTH",
"124 392 OFFCURVE",
"189 478 OFFCURVE",
"282 478 CURVE SMOOTH"
);
},
{
closed = 1;
nodes = (
"208 609 LINE",
"228 557 LINE",
"483 662 LINE",
"463 714 LINE"
);
}
);
width = 585;
},
{
layerId = "4375068D-FDA0-47DA-A897-61BBB4269C7B";
name = Light;
paths = (
{
closed = 1;
nodes = (
"234 725 LINE",
"359 700 OFFCURVE",
"438 600 OFFCURVE",
"448 395 CURVE",
"452 425 LINE",
"396 499 LINE",
"357 530 OFFCURVE",
"312 544 OFFCURVE",
"263 544 CURVE SMOOTH",
"116 544 OFFCURVE",
"30 420 OFFCURVE",
"30 257 CURVE SMOOTH",
"30 102 OFFCURVE",
"110 -15 OFFCURVE",
"248 -14 CURVE SMOOTH",
"385 -13 OFFCURVE",
"475 83 OFFCURVE",
"475 307 CURVE SMOOTH",
"475 601 OFFCURVE",
"389 705 OFFCURVE",
"248 745 CURVE"
);
},
{
closed = 1;
nodes = (
"375 523 OFFCURVE",
"451 436 OFFCURVE",
"451 309 CURVE SMOOTH",
"451 290 LINE SMOOTH",
"451 115 OFFCURVE",
"379 7 OFFCURVE",
"251 7 CURVE SMOOTH",
"145 7 OFFCURVE",
"54 94 OFFCURVE",
"54 258 CURVE SMOOTH",
"54 432 OFFCURVE",
"150 523 OFFCURVE",
"263 523 CURVE SMOOTH"
);
},
{
closed = 1;
nodes = (
"185 609 LINE",
"193 589 LINE",
"448 694 LINE",
"440 714 LINE"
);
}
);
width = 522;
},
{
layerId = "F37E1481-2EA3-4843-874F-9D06DA6D7C4C";
name = Bold;
paths = (
{
closed = 1;
nodes = (
"236 679 LINE",
"380 617 OFFCURVE",
"426 525 OFFCURVE",
"426 425 CURVE",
"447 435 LINE",
"380 519 LINE",
"343 541 OFFCURVE",
"317 548 OFFCURVE",
"288 548 CURVE SMOOTH",
"141 548 OFFCURVE",
"24 450 OFFCURVE",
"24 267 CURVE SMOOTH",
"24 102 OFFCURVE",
"123 -14 OFFCURVE",
"327 -14 CURVE SMOOTH",
"464 -14 OFFCURVE",
"619 67 OFFCURVE",
"619 307 CURVE SMOOTH",
"619 561 OFFCURVE",
"547 673 OFFCURVE",
"391 745 CURVE"
);
},
{
closed = 1;
nodes = (
"394 416 OFFCURVE",
"435 364 OFFCURVE",
"435 289 CURVE SMOOTH",
"435 260 LINE SMOOTH",
"435 178 OFFCURVE",
"403 118 OFFCURVE",
"327 118 CURVE SMOOTH",
"256 118 OFFCURVE",
"212 163 OFFCURVE",
"212 267 CURVE SMOOTH",
"212 359 OFFCURVE",
"250 416 OFFCURVE",
"328 416 CURVE SMOOTH"
);
},
{
closed = 1;
nodes = (
"237 632 LINE",
"249 559 LINE",
"593 623 LINE",
"581 696 LINE"
);
}
);
width = 662;
}
);
leftKerningGroup = o;
leftMetricsKey = o;
unicode = 00F0;
},
{
glyphname = dcroat;
lastChange = "2014-04-12 01:45:38 +0900";
layers = (
{
components = (
{
name = d;
transform = "{1, 0, 0, 1, 0, 0}";
}
);
layerId = "4375068D-FDA0-47DA-A897-61BBB4269C7B";
name = Light;
paths = (
{
closed = 1;
nodes = (
"334 634 LINE",
"334 613 LINE",
"515 613 LINE",
"515 634 LINE"
);
}
);
width = 546;
},
{
components = (
{
name = d;
transform = "{1, 0, 0, 1, 0, 0}";
}
);
layerId = "518735FF-A855-4455-BD68-071AC00DFA4E";
name = Regular;
paths = (
{
closed = 1;
nodes = (
"335 651 LINE",
"335 595 LINE",
"581 595 LINE",
"581 651 LINE"
);
}
);
width = 619;
},
{
components = (
{
name = d;
transform = "{1, 0, 0, 1, 0, 0}";
}
);
layerId = "F37E1481-2EA3-4843-874F-9D06DA6D7C4C";
name = Bold;
paths = (
{
closed = 1;
nodes = (
"315 671 LINE",
"315 575 LINE",
"655 575 LINE",
"655 671 LINE"
);
}
);
width = 669;
}
);
leftKerningGroup = o;
leftMetricsKey = d;
rightMetricsKey = "=d-40";
unicode = 0111;
},
{
glyphname = e;
lastChange = "2014-04-12 01:45:39 +0900";
layers = (
{
anchors = (
{
name = bottom;
position = "{268, 0}";
},
{
name = ogonek;
position = "{297, 0}";
},
{
name = top;
position = "{277, 530}";
}
);
layerId = "518735FF-A855-4455-BD68-071AC00DFA4E";
name = Regular;
paths = (
{
closed = 1;
nodes = (
"137 544 OFFCURVE",
"30 435 OFFCURVE",
"30 263 CURVE",
"122 270 LINE",
"122 406 OFFCURVE",
"187 478 OFFCURVE",
"280 478 CURVE SMOOTH",
"376 478 OFFCURVE",
"423 401 OFFCURVE",
"423 268 CURVE",
"458 305 LINE",
"85 305 LINE",
"85 239 LINE",
"507 239 LINE",
"509 258 OFFCURVE",
"509 272 OFFCURVE",
"509 280 CURVE SMOOTH",
"509 435 OFFCURVE",
"428 544 OFFCURVE",
"282 544 CURVE SMOOTH"
);
},
{
closed = 1;
nodes = (
"30 263 LINE",
"30 76 OFFCURVE",
"133 -14 OFFCURVE",
"271 -14 CURVE SMOOTH",
"380 -14 OFFCURVE",
"481 43 OFFCURVE",
"502 171 CURVE",
"412 171 LINE",
"400 95 OFFCURVE",
"344 52 OFFCURVE",
"275 52 CURVE SMOOTH",
"191 52 OFFCURVE",
"122 106 OFFCURVE",
"122 270 CURVE"
);
}
);
width = 549;
},
{
anchors = (
{
name = bottom;
position = "{256, 0}";
},
{
name = ogonek;
position = "{324, 0}";
},
{
name = top;
position = "{256, 530}";
}
);
layerId = "4375068D-FDA0-47DA-A897-61BBB4269C7B";
name = Light;
paths = (
{
closed = 1;
nodes = (
"134 540 OFFCURVE",
"30 431 OFFCURVE",
"30 265 CURVE",
"53 270 LINE",
"53 441 OFFCURVE",
"167 519 OFFCURVE",
"262 519 CURVE SMOOTH",
"354 519 OFFCURVE",
"463 459 OFFCURVE",
"463 268 CURVE",
"471 279 LINE",
"51 279 LINE",
"35 258 LINE",
"484 258 LINE",
"485 269 OFFCURVE",
"485 273 OFFCURVE",
"485 277 CURVE SMOOTH",
"485 408 OFFCURVE",
"415 540 OFFCURVE",
"264 540 CURVE SMOOTH"
);
},
{
closed = 1;
nodes = (
"30 265 LINE",
"30 81 OFFCURVE",
"134 -14 OFFCURVE",
"256 -14 CURVE SMOOTH",
"356 -14 OFFCURVE",
"445 45 OFFCURVE",
"477 161 CURVE",
"455 161 LINE",
"424 54 OFFCURVE",
"341 7 OFFCURVE",
"258 7 CURVE SMOOTH",
"159 7 OFFCURVE",
"53 79 OFFCURVE",
"53 270 CURVE"
);
}
);
width = 521;
},
{
anchors = (
{
name = bottom;
position = "{300, 0}";
},
{
name = ogonek;
position = "{277, 0}";
},
{
name = top;
position = "{302, 530}";
}
);
layerId = "F37E1481-2EA3-4843-874F-9D06DA6D7C4C";
name = Bold;
paths = (
{
closed = 1;
nodes = (
"131 548 OFFCURVE",
"24 421 OFFCURVE",
"24 265 CURVE",
"203 265 LINE",
"203 380 OFFCURVE",
"240 426 OFFCURVE",
"300 426 CURVE SMOOTH",
"359 426 OFFCURVE",
"392 381 OFFCURVE",
"392 288 CURVE",
"436 332 LINE",
"76 332 LINE",
"76 222 LINE",
"574 222 LINE",
"576 240 OFFCURVE",
"577 258 OFFCURVE",
"577 274 CURVE SMOOTH",
"577 412 OFFCURVE",
"487 548 OFFCURVE",
"309 548 CURVE SMOOTH"
);
},
{
closed = 1;
nodes = (
"24 265 LINE",
"24 77 OFFCURVE",
"146 -14 OFFCURVE",
"299 -14 CURVE SMOOTH",
"436 -14 OFFCURVE",
"536 54 OFFCURVE",
"567 175 CURVE",
"390 175 LINE",
"383 134 OFFCURVE",
"352 108 OFFCURVE",
"301 108 CURVE SMOOTH",
"242 108 OFFCURVE",
"200 141 OFFCURVE",
"200 265 CURVE"
);
}
);
width = 601;
}
);
leftKerningGroup = o;
leftMetricsKey = o;
rightKerningGroup = e;
unicode = 0065;
},
{
glyphname = f;
lastChange = "2014-04-12 01:45:39 +0900";
layers = (
{
layerId = "518735FF-A855-4455-BD68-071AC00DFA4E";
name = Regular;
paths = (
{
closed = 1;
nodes = (
"142 754 OFFCURVE",
"90 711 OFFCURVE",
"81 634 CURVE SMOOTH",
"79 616 OFFCURVE",
"78 590 OFFCURVE",
"78 570 CURVE SMOOTH",
"78 0 LINE",
"164 0 LINE",
"164 578 LINE SMOOTH",
"164 593 OFFCURVE",
"165 618 OFFCURVE",
"167 632 CURVE SMOOTH",
"174 675 OFFCURVE",
"217 690 OFFCURVE",
"282 678 CURVE",
"282 749 LINE",
"264 752 OFFCURVE",
"243 754 OFFCURVE",
"221 754 CURVE SMOOTH"
);
},
{
closed = 1;
nodes = (
"21 526 LINE",
"21 460 LINE",
"273 460 LINE",
"273 526 LINE"
);
}
);
width = 290;
},
{
layerId = "4375068D-FDA0-47DA-A897-61BBB4269C7B";
name = Light;
paths = (
{
closed = 1;
nodes = (
"134 754 OFFCURVE",
"90 725 OFFCURVE",
"84 659 CURVE SMOOTH",
"82 638 OFFCURVE",
"82 621 OFFCURVE",
"82 606 CURVE SMOOTH",
"82 0 LINE",
"104 0 LINE",
"104 606 LINE SMOOTH",
"104 621 OFFCURVE",
"104 634 OFFCURVE",
"106 656 CURVE SMOOTH",
"111 709 OFFCURVE",
"144 747 OFFCURVE",
"222 728 CURVE",
"222 749 LINE",
"204 753 OFFCURVE",
"195 754 OFFCURVE",
"175 754 CURVE SMOOTH"
);
},
{
closed = 1;
nodes = (
"25 522 LINE",
"25 501 LINE",
"211 501 LINE",
"211 522 LINE"
);
}
);
width = 230;
},
{
layerId = "F37E1481-2EA3-4843-874F-9D06DA6D7C4C";
name = Bold;
paths = (
{
closed = 1;
nodes = (
"149 754 OFFCURVE",
"85 692 OFFCURVE",
"77 592 CURVE SMOOTH",
"76 574 OFFCURVE",
"76 550 OFFCURVE",
"76 534 CURVE SMOOTH",
"76 0 LINE",
"256 0 LINE",
"256 534 LINE SMOOTH",
"256 547 OFFCURVE",
"256 560 OFFCURVE",
"257 574 CURVE SMOOTH",
"262 621 OFFCURVE",
"309 640 OFFCURVE",
"374 629 CURVE",
"374 746 LINE",
"356 751 OFFCURVE",
"335 754 OFFCURVE",
"314 754 CURVE SMOOTH"
);
},
{
closed = 1;
nodes = (
"19 530 LINE",
"19 418 LINE",
"365 418 LINE",
"365 530 LINE"
);
}
);
width = 378;
}
);
leftKerningGroup = f;
rightKerningGroup = f;
unicode = 0066;
},
{
glyphname = g;
lastChange = "2014-04-12 01:45:39 +0900";
layers = (
{
anchors = (
{
name = top;
position = "{303, 530}";
}
);
layerId = "518735FF-A855-4455-BD68-071AC00DFA4E";
name = Regular;
paths = (
{
closed = 1;
nodes = (
"451 530 LINE",
"451 76 LINE SMOOTH",
"451 60 OFFCURVE",
"451 43 OFFCURVE",
"450 18 CURVE SMOOTH",
"446 -84 OFFCURVE",
"389 -144 OFFCURVE",
"284 -144 CURVE SMOOTH",
"193 -144 OFFCURVE",
"141 -99 OFFCURVE",
"134 -34 CURVE SMOOTH",
"133 -25 LINE",
"46 -25 LINE",
"47 -35 LINE SMOOTH",
"58 -147 OFFCURVE",
"133 -210 OFFCURVE",
"284 -210 CURVE SMOOTH",
"437 -210 OFFCURVE",
"531 -128 OFFCURVE",
"536 27 CURVE SMOOTH",
"537 56 OFFCURVE",
"537 97 OFFCURVE",
"537 130 CURVE SMOOTH",
"537 530 LINE"
);
},
{
closed = 1;
nodes = (
"152 544 OFFCURVE",
"30 453 OFFCURVE",
"30 257 CURVE SMOOTH",
"30 102 OFFCURVE",
"116 -14 OFFCURVE",
"271 -14 CURVE SMOOTH",
"325 -14 OFFCURVE",
"381 3 OFFCURVE",
"411 28 CURVE",
"465 105 LINE",
"451 260 LINE",
"451 108 OFFCURVE",
"372 52 OFFCURVE",
"284 52 CURVE SMOOTH",
"178 52 OFFCURVE",
"124 147 OFFCURVE",
"124 267 CURVE SMOOTH",
"124 406 OFFCURVE",
"196 478 OFFCURVE",
"289 478 CURVE SMOOTH",
"365 478 OFFCURVE",
"451 426 OFFCURVE",
"451 289 CURVE",
"469 431 LINE",
"416 509 LINE",
"389 531 OFFCURVE",
"333 544 OFFCURVE",
"289 544 CURVE SMOOTH"
);
}
);
width = 615;
},
{
anchors = (
{
name = top;
position = "{268, 530}";
}
);
layerId = "4375068D-FDA0-47DA-A897-61BBB4269C7B";
name = Light;
paths = (
{
closed = 1;
nodes = (
"451 530 LINE",
"451 100 LINE SMOOTH",
"451 51 OFFCURVE",
"451 24 OFFCURVE",
"450 -11 CURVE SMOOTH",
"447 -121 OFFCURVE",
"382 -199 OFFCURVE",
"258 -199 CURVE SMOOTH",
"171 -199 OFFCURVE",
"90 -163 OFFCURVE",
"77 -62 CURVE SMOOTH",
"75 -47 LINE",
"53 -47 LINE",
"55 -62 LINE SMOOTH",
"71 -181 OFFCURVE",
"159 -220 OFFCURVE",
"256 -220 CURVE SMOOTH",
"390 -220 OFFCURVE",
"468 -137 OFFCURVE",
"472 -18 CURVE SMOOTH",
"473 16 OFFCURVE",
"473 57 OFFCURVE",
"473 140 CURVE SMOOTH",
"473 530 LINE"
);
},
{
closed = 1;
nodes = (
"142 540 OFFCURVE",
"30 445 OFFCURVE",
"30 259 CURVE SMOOTH",
"30 99 OFFCURVE",
"120 -14 OFFCURVE",
"257 -14 CURVE SMOOTH",
"329 -14 OFFCURVE",
"376 4 OFFCURVE",
"423 60 CURVE",
"460 139 LINE",
"451 238 LINE",
"451 65 OFFCURVE",
"363 7 OFFCURVE",
"259 7 CURVE SMOOTH",
"126 7 OFFCURVE",
"54 125 OFFCURVE",
"54 263 CURVE SMOOTH",
"54 414 OFFCURVE",
"143 519 OFFCURVE",
"269 519 CURVE SMOOTH",
"351 519 OFFCURVE",
"451 469 OFFCURVE",
"451 297 CURVE",
"464 377 LINE",
"422 472 LINE",
"379 520 OFFCURVE",
"336 540 OFFCURVE",
"269 540 CURVE SMOOTH"
);
}
);
width = 544;
},
{
anchors = (
{
name = top;
position = "{330, 530}";
}
);
layerId = "F37E1481-2EA3-4843-874F-9D06DA6D7C4C";
name = Bold;
paths = (
{
closed = 1;
nodes = (
"435 534 LINE",
"435 83 LINE SMOOTH",
"435 54 OFFCURVE",
"434 29 OFFCURVE",
"433 13 CURVE SMOOTH",
"428 -59 OFFCURVE",
"379 -88 OFFCURVE",
"312 -88 CURVE SMOOTH",
"256 -88 OFFCURVE",
"215 -68 OFFCURVE",
"211 -33 CURVE SMOOTH",
"210 -23 LINE",
"36 -23 LINE",
"37 -33 LINE SMOOTH",
"50 -155 OFFCURVE",
"147 -220 OFFCURVE",
"307 -220 CURVE SMOOTH",
"488 -220 OFFCURVE",
"608 -142 OFFCURVE",
"614 33 CURVE SMOOTH",
"615 62 OFFCURVE",
"615 103 OFFCURVE",
"615 136 CURVE SMOOTH",
"615 534 LINE"
);
},
{
closed = 1;
nodes = (
"140 548 OFFCURVE",
"24 453 OFFCURVE",
"24 263 CURVE SMOOTH",
"24 105 OFFCURVE",
"124 6 OFFCURVE",
"269 6 CURVE SMOOTH",
"323 6 OFFCURVE",
"365 17 OFFCURVE",
"395 39 CURVE",
"449 119 LINE",
"435 280 LINE",
"435 168 OFFCURVE",
"387 128 OFFCURVE",
"321 128 CURVE SMOOTH",
"258 128 OFFCURVE",
"208 176 OFFCURVE",
"208 276 CURVE SMOOTH",
"208 385 OFFCURVE",
"256 426 OFFCURVE",
"326 426 CURVE SMOOTH",
"380 426 OFFCURVE",
"435 390 OFFCURVE",
"435 283 CURVE",
"453 435 LINE",
"400 522 LINE",
"373 538 OFFCURVE",
"321 548 OFFCURVE",
"277 548 CURVE SMOOTH"
);
}
);
width = 669;
},
{
anchors = (
{
name = top;
position = "{246, 530}";
}
);
associatedMasterId = "518735FF-A855-4455-BD68-071AC00DFA4E";
layerId = "08F919A0-8930-4093-A33F-9DA10B114F23";
name = "Regular Aug 15 13, 12:28";
paths = (
{
closed = 1;
nodes = (
"100 246 OFFCURVE",
"49 219 OFFCURVE",
"49 153 CURVE SMOOTH",
"49 76 OFFCURVE",
"95 51 OFFCURVE",
"196 51 CURVE SMOOTH",
"236 51 LINE SMOOTH",
"260 51 OFFCURVE",
"274 51 OFFCURVE",
"287 50 CURVE SMOOTH",
"338 47 OFFCURVE",
"366 20 OFFCURVE",
"366 -28 CURVE SMOOTH",
"366 -85 OFFCURVE",
"313 -119 OFFCURVE",
"233 -119 CURVE SMOOTH",
"144 -119 OFFCURVE",
"100 -78 OFFCURVE",
"100 -23 CURVE SMOOTH",
"100 27 OFFCURVE",
"134 61 OFFCURVE",
"168 72 CURVE",
"133 82 LINE",
"52 47 LINE",
"24 23 OFFCURVE",
"12 -5 OFFCURVE",
"12 -46 CURVE SMOOTH",
"12 -132 OFFCURVE",
"90 -185 OFFCURVE",
"222 -185 CURVE SMOOTH",
"376 -185 OFFCURVE",
"457 -114 OFFCURVE",
"457 -18 CURVE SMOOTH",
"457 59 OFFCURVE",
"417 116 OFFCURVE",
"314 127 CURVE SMOOTH",
"294 129 OFFCURVE",
"280 129 OFFCURVE",
"258 129 CURVE SMOOTH",
"235 129 LINE SMOOTH",
"204 129 OFFCURVE",
"180 130 OFFCURVE",
"165 132 CURVE SMOOTH",
"136 136 OFFCURVE",
"122 149 OFFCURVE",
"122 174 CURVE SMOOTH",
"122 202 OFFCURVE",
"143 216 OFFCURVE",
"184 228 CURVE",
"142 256 LINE"
);
},
{
closed = 1;
nodes = (
"150 544 OFFCURVE",
"51 486 OFFCURVE",
"51 364 CURVE SMOOTH",
"51 242 OFFCURVE",
"150 184 OFFCURVE",
"246 184 CURVE",
"246 250 LINE",
"181 250 OFFCURVE",
"139 295 OFFCURVE",
"139 364 CURVE SMOOTH",
"139 433 OFFCURVE",
"181 478 OFFCURVE",
"246 478 CURVE",
"246 544 LINE"
);
},
{
closed = 1;
nodes = (
"246 478 LINE",
"311 478 OFFCURVE",
"353 433 OFFCURVE",
"353 364 CURVE SMOOTH",
"353 295 OFFCURVE",
"311 250 OFFCURVE",
"246 250 CURVE",
"246 184 LINE",
"342 184 OFFCURVE",
"441 242 OFFCURVE",
"441 364 CURVE SMOOTH",
"441 486 OFFCURVE",
"342 544 OFFCURVE",
"246 544 CURVE"
);
},
{
closed = 1;
nodes = (
"311 526 LINE",
"374 460 LINE",
"480 460 LINE",
"480 526 LINE"
);
}
);
width = 497;
},
{
anchors = (
{
name = top;
position = "{269, 530}";
}
);
associatedMasterId = "F37E1481-2EA3-4843-874F-9D06DA6D7C4C";
layerId = "22B07598-1A03-4148-AF7E-4552536AC72B";
name = "Bold Aug 17 13, 20:23";
paths = (
{
closed = 1;
nodes = (
"62 207 OFFCURVE",
"34 178 OFFCURVE",
"34 134 CURVE SMOOTH",
"34 54 OFFCURVE",
"108 29 OFFCURVE",
"218 29 CURVE SMOOTH",
"252 29 LINE SMOOTH",
"260 29 OFFCURVE",
"271 29 OFFCURVE",
"283 28 CURVE SMOOTH",
"318 25 OFFCURVE",
"336 15 OFFCURVE",
"336 -18 CURVE SMOOTH",
"336 -49 OFFCURVE",
"309 -67 OFFCURVE",
"254 -67 CURVE SMOOTH",
"199 -67 OFFCURVE",
"164 -46 OFFCURVE",
"164 -11 CURVE SMOOTH",
"164 12 OFFCURVE",
"170 31 OFFCURVE",
"190 48 CURVE",
"155 58 LINE",
"40 40 LINE",
"14 16 OFFCURVE",
"0 -11 OFFCURVE",
"0 -46 CURVE SMOOTH",
"0 -128 OFFCURVE",
"73 -185 OFFCURVE",
"246 -185 CURVE SMOOTH",
"404 -185 OFFCURVE",
"500 -119 OFFCURVE",
"500 -14 CURVE SMOOTH",
"500 72 OFFCURVE",
"449 130 OFFCURVE",
"348 135 CURVE SMOOTH",
"318 137 OFFCURVE",
"302 137 OFFCURVE",
"280 137 CURVE SMOOTH",
"237 137 LINE SMOOTH",
"222 137 OFFCURVE",
"210 137 OFFCURVE",
"195 138 CURVE SMOOTH",
"153 141 OFFCURVE",
"140 154 OFFCURVE",
"140 169 CURVE SMOOTH",
"140 180 OFFCURVE",
"147 190 OFFCURVE",
"162 198 CURVE",
"112 225 LINE"
);
},
{
closed = 1;
nodes = (
"137 544 OFFCURVE",
"42 482 OFFCURVE",
"42 356 CURVE SMOOTH",
"42 230 OFFCURVE",
"137 168 OFFCURVE",
"263 168 CURVE",
"263 278 LINE",
"217 278 OFFCURVE",
"191 312 OFFCURVE",
"191 356 CURVE SMOOTH",
"191 400 OFFCURVE",
"217 434 OFFCURVE",
"263 434 CURVE",
"263 544 LINE"
);
},
{
closed = 1;
nodes = (
"263 434 LINE",
"309 434 OFFCURVE",
"336 400 OFFCURVE",
"336 356 CURVE SMOOTH",
"336 312 OFFCURVE",
"309 278 OFFCURVE",
"263 278 CURVE",
"263 168 LINE",
"389 168 OFFCURVE",
"484 230 OFFCURVE",
"484 356 CURVE SMOOTH",
"484 482 OFFCURVE",
"389 544 OFFCURVE",
"263 544 CURVE"
);
},
{
closed = 1;
nodes = (
"313 526 LINE",
"376 414 LINE",
"515 414 LINE",
"515 526 LINE"
);
}
);
width = 538;
},
{
anchors = (
{
name = top;
position = "{242, 530}";
}
);
associatedMasterId = "4375068D-FDA0-47DA-A897-61BBB4269C7B";
layerId = "B72595FD-738C-433C-9E15-6D67AA440AFF";
name = "Light Aug 17 13, 20:28";
paths = (
{
closed = 1;
nodes = (
"90 205 OFFCURVE",
"74 183 OFFCURVE",
"74 152 CURVE SMOOTH",
"74 100 OFFCURVE",
"119 74 OFFCURVE",
"212 74 CURVE SMOOTH",
"258 74 LINE SMOOTH",
"277 74 OFFCURVE",
"295 74 OFFCURVE",
"318 71 CURVE SMOOTH",
"376 63 OFFCURVE",
"412 31 OFFCURVE",
"412 -32 CURVE SMOOTH",
"412 -119 OFFCURVE",
"327 -164 OFFCURVE",
"231 -164 CURVE SMOOTH",
"137 -164 OFFCURVE",
"54 -129 OFFCURVE",
"54 -43 CURVE SMOOTH",
"54 5 OFFCURVE",
"84 61 OFFCURVE",
"168 79 CURVE",
"131 87 LINE",
"89 69 LINE",
"53 43 OFFCURVE",
"30 0 OFFCURVE",
"30 -43 CURVE SMOOTH",
"30 -144 OFFCURVE",
"120 -185 OFFCURVE",
"231 -185 CURVE SMOOTH",
"349 -185 OFFCURVE",
"436 -123 OFFCURVE",
"436 -31 CURVE SMOOTH",
"436 49 OFFCURVE",
"381 85 OFFCURVE",
"322 93 CURVE SMOOTH",
"300 96 OFFCURVE",
"284 96 OFFCURVE",
"260 96 CURVE SMOOTH",
"218 96 LINE SMOOTH",
"203 96 OFFCURVE",
"184 96 OFFCURVE",
"169 98 CURVE SMOOTH",
"120 105 OFFCURVE",
"98 124 OFFCURVE",
"98 157 CURVE SMOOTH",
"98 176 OFFCURVE",
"109 196 OFFCURVE",
"131 203 CURVE",
"116 220 LINE"
);
},
{
closed = 1;
nodes = (
"133 544 OFFCURVE",
"50 470 OFFCURVE",
"50 354 CURVE SMOOTH",
"50 238 OFFCURVE",
"133 164 OFFCURVE",
"239 164 CURVE",
"239 184 LINE",
"164 184 OFFCURVE",
"74 235 OFFCURVE",
"74 354 CURVE SMOOTH",
"74 473 OFFCURVE",
"164 524 OFFCURVE",
"239 524 CURVE",
"239 544 LINE"
);
},
{
closed = 1;
nodes = (
"239 524 LINE",
"314 524 OFFCURVE",
"407 473 OFFCURVE",
"407 354 CURVE SMOOTH",
"407 235 OFFCURVE",
"314 184 OFFCURVE",
"239 184 CURVE",
"239 164 LINE",
"345 164 OFFCURVE",
"431 238 OFFCURVE",
"431 354 CURVE SMOOTH",
"431 470 OFFCURVE",
"345 544 OFFCURVE",
"239 544 CURVE"
);
},
{
closed = 1;
nodes = (
"294 526 LINE",
"327 505 LINE",
"440 505 LINE",
"440 526 LINE"
);
}
);
width = 483;
}
);
leftKerningGroup = o;
leftMetricsKey = d;
rightKerningGroup = g;
rightMetricsKey = d;
unicode = 0067;
},
{
glyphname = h;
lastChange = "2014-04-12 01:45:39 +0900";
layers = (
{
anchors = (
{
name = center;
position = "{296, 265}";
},
{
name = top;
position = "{296, 530}";
}
);
layerId = "518735FF-A855-4455-BD68-071AC00DFA4E";
name = Regular;
paths = (
{
closed = 1;
nodes = (
"277 544 OFFCURVE",
"238 535 OFFCURVE",
"193 500 CURVE",
"156 432 LINE",
"160 233 LINE",
"160 414 OFFCURVE",
"230 474 OFFCURVE",
"313 476 CURVE SMOOTH",
"395 478 OFFCURVE",
"429 430 OFFCURVE",
"434 368 CURVE SMOOTH",
"436 341 OFFCURVE",
"436 319 OFFCURVE",
"436 292 CURVE SMOOTH",
"436 0 LINE",
"522 0 LINE",
"522 298 LINE SMOOTH",
"522 341 OFFCURVE",
"522 362 OFFCURVE",
"520 389 CURVE SMOOTH",
"512 482 OFFCURVE",
"447 544 OFFCURVE",
"331 544 CURVE SMOOTH"
);
},
{
closed = 1;
nodes = (
"74 740 LINE",
"74 0 LINE",
"160 0 LINE",
"160 740 LINE"
);
}
);
width = 593;
},
{
anchors = (
{
name = center;
position = "{262, 265}";
},
{
name = top;
position = "{262, 530}";
}
);
layerId = "4375068D-FDA0-47DA-A897-61BBB4269C7B";
name = Light;
paths = (
{
closed = 1;
nodes = (
"214 540 OFFCURVE",
"153 513 OFFCURVE",
"114 458 CURVE",
"89 396 LINE",
"93 312 LINE",
"93 452 OFFCURVE",
"183 519 OFFCURVE",
"279 519 CURVE SMOOTH",
"379 519 OFFCURVE",
"428 459 OFFCURVE",
"438 370 CURVE SMOOTH",
"441 343 OFFCURVE",
"442 320 OFFCURVE",
"442 283 CURVE SMOOTH",
"442 0 LINE",
"464 0 LINE",
"464 292 LINE SMOOTH",
"464 335 OFFCURVE",
"463 351 OFFCURVE",
"460 378 CURVE SMOOTH",
"449 481 OFFCURVE",
"385 540 OFFCURVE",
"279 540 CURVE SMOOTH"
);
},
{
closed = 1;
nodes = (
"71 740 LINE",
"71 0 LINE",
"93 0 LINE",
"93 740 LINE"
);
}
);
width = 530;
},
{
anchors = (
{
name = center;
position = "{321, 265}";
},
{
name = top;
position = "{321, 530}";
}
);
layerId = "F37E1481-2EA3-4843-874F-9D06DA6D7C4C";
name = Bold;
paths = (
{
closed = 1;
nodes = (
"353 548 OFFCURVE",
"315 537 OFFCURVE",
"282 517 CURVE",
"230 446 LINE",
"234 252 LINE",
"234 373 OFFCURVE",
"273 426 OFFCURVE",
"328 426 CURVE SMOOTH",
"382 426 OFFCURVE",
"410 396 OFFCURVE",
"414 345 CURVE SMOOTH",
"416 318 OFFCURVE",
"416 289 OFFCURVE",
"416 272 CURVE SMOOTH",
"416 0 LINE",
"596 0 LINE",
"596 302 LINE SMOOTH",
"596 345 OFFCURVE",
"595 376 OFFCURVE",
"591 403 CURVE SMOOTH",
"577 496 OFFCURVE",
"512 548 OFFCURVE",
"402 548 CURVE SMOOTH"
);
},
{
closed = 1;
nodes = (
"54 740 LINE",
"54 0 LINE",
"234 0 LINE",
"234 740 LINE"
);
}
);
width = 644;
}
);
leftKerningGroup = h;
rightKerningGroup = h;
unicode = 0068;
},
{
glyphname = hbar;
lastChange = "2014-04-12 01:45:38 +0900";
layers = (
{
components = (
{
name = h;
transform = "{1, 0, 0, 1, 16, 0}";
}
);
layerId = "518735FF-A855-4455-BD68-071AC00DFA4E";
name = Regular;
paths = (
{
closed = 1;
nodes = (
"34 651 LINE",
"34 595 LINE",
"280 595 LINE",
"280 651 LINE"
);
}
);
width = 609;
},
{
components = (
{
name = h;
transform = "{1, 0, 0, 1, 10, 0}";
}
);
layerId = "4375068D-FDA0-47DA-A897-61BBB4269C7B";
name = Light;
paths = (
{
closed = 1;
nodes = (
"31 634 LINE",
"31 613 LINE",
"213 613 LINE",
"213 634 LINE"
);
}
);
width = 540;
},
{
components = (
{
name = h;
transform = "{1, 0, 0, 1, 12, 0}";
}
);
layerId = "F37E1481-2EA3-4843-874F-9D06DA6D7C4C";
name = Bold;
paths = (
{
closed = 1;
nodes = (
"14 671 LINE",
"14 575 LINE",
"354 575 LINE",
"354 671 LINE"
);
}
);
width = 656;
}
);
leftMetricsKey = "=h-40";
rightKerningGroup = h;
rightMetricsKey = h;
unicode = 0127;
},
{
glyphname = dotlessi;
lastChange = "2014-04-12 01:45:38 +0900";
layers = (
{
anchors = (
{
name = ogonek;
position = "{74, 0}";
},
{
name = top;
position = "{117, 530}";
}
);
layerId = "518735FF-A855-4455-BD68-071AC00DFA4E";
name = Regular;
paths = (
{
closed = 1;
nodes = (
"74 530 LINE",
"74 0 LINE",
"160 0 LINE",
"160 530 LINE"
);
}
);
width = 238;
},
{
anchors = (
{
name = ogonek;
position = "{71, 0}";
},
{
name = top;
position = "{82, 530}";
}
);
layerId = "4375068D-FDA0-47DA-A897-61BBB4269C7B";
name = Light;
paths = (
{
closed = 1;
nodes = (
"71 526 LINE",
"71 0 LINE",
"93 0 LINE",
"93 526 LINE"
);
}
);
width = 164;
},
{
anchors = (
{
name = ogonek;
position = "{54, 0}";
},
{
name = top;
position = "{144, 530}";
}
);
layerId = "F37E1481-2EA3-4843-874F-9D06DA6D7C4C";
name = Bold;
paths = (
{
closed = 1;
nodes = (
"54 534 LINE",
"54 0 LINE",
"234 0 LINE",
"234 534 LINE"
);
}
);
width = 288;
}
);
leftKerningGroup = i;
leftMetricsKey = n;
rightKerningGroup = i;
rightMetricsKey = d;
unicode = 0131;
},
{
glyphname = j;
lastChange = "2014-04-12 01:45:39 +0900";
layers = (
{
layerId = "4375068D-FDA0-47DA-A897-61BBB4269C7B";
name = Light;
paths = (
{
closed = 1;
nodes = (
"64 526 LINE",
"64 -84 LINE SMOOTH",
"64 -99 OFFCURVE",
"64 -109 OFFCURVE",
"63 -123 CURVE SMOOTH",
"60 -186 OFFCURVE",
"23 -197 OFFCURVE",
"-32 -187 CURVE",
"-32 -206 LINE",
"-19 -209 OFFCURVE",
"-8 -210 OFFCURVE",
"3 -210 CURVE SMOOTH",
"45 -210 OFFCURVE",
"82 -184 OFFCURVE",
"85 -125 CURVE SMOOTH",
"86 -107 OFFCURVE",
"86 -93 OFFCURVE",
"86 -73 CURVE SMOOTH",
"86 526 LINE"
);
},
{
closed = 1;
nodes = (
"64 653 OFFCURVE",
"55 644 OFFCURVE",
"55 633 CURVE SMOOTH",
"55 622 OFFCURVE",
"64 613 OFFCURVE",
"75 613 CURVE SMOOTH",
"86 613 OFFCURVE",
"95 622 OFFCURVE",
"95 633 CURVE SMOOTH",
"95 644 OFFCURVE",
"86 653 OFFCURVE",
"75 653 CURVE SMOOTH"
);
}
);
width = 156;
},
{
layerId = "F37E1481-2EA3-4843-874F-9D06DA6D7C4C";
name = Bold;
paths = (
{
closed = 1;
nodes = (
"52 534 LINE",
"52 15 LINE SMOOTH",
"52 0 OFFCURVE",
"51 -19 OFFCURVE",
"50 -33 CURVE SMOOTH",
"45 -80 OFFCURVE",
"15 -91 OFFCURVE",
"-50 -85 CURVE",
"-50 -206 LINE",
"-32 -209 OFFCURVE",
"-11 -210 OFFCURVE",
"10 -210 CURVE SMOOTH",
"165 -210 OFFCURVE",
"223 -148 OFFCURVE",
"230 -48 CURVE SMOOTH",
"231 -30 OFFCURVE",
"232 -4 OFFCURVE",
"232 16 CURVE SMOOTH",
"232 534 LINE"
);
},
{
closed = 1;
nodes = (
"78 751 OFFCURVE",
"49 725 OFFCURVE",
"49 663 CURVE SMOOTH",
"49 601 OFFCURVE",
"78 575 OFFCURVE",
"142 575 CURVE SMOOTH",
"206 575 OFFCURVE",
"235 601 OFFCURVE",
"235 663 CURVE SMOOTH",
"235 725 OFFCURVE",
"206 751 OFFCURVE",
"142 751 CURVE SMOOTH"
);
}
);
width = 282;
},
{
layerId = "518735FF-A855-4455-BD68-071AC00DFA4E";
name = Regular;
paths = (
{
closed = 1;
nodes = (
"69 530 LINE",
"69 -50 LINE SMOOTH",
"69 -65 OFFCURVE",
"69 -80 OFFCURVE",
"67 -94 CURVE SMOOTH",
"63 -126 OFFCURVE",
"42 -143 OFFCURVE",
"-13 -138 CURVE",
"-13 -208 LINE",
"0 -210 OFFCURVE",
"12 -210 OFFCURVE",
"28 -210 CURVE SMOOTH",
"110 -210 OFFCURVE",
"145 -174 OFFCURVE",
"152 -110 CURVE SMOOTH",
"154 -92 OFFCURVE",
"155 -66 OFFCURVE",
"155 -46 CURVE SMOOTH",
"155 530 LINE"
);
},
{
closed = 1;
nodes = (
"81 704 OFFCURVE",
"57 680 OFFCURVE",
"57 649 CURVE SMOOTH",
"57 618 OFFCURVE",
"81 594 OFFCURVE",
"112 594 CURVE SMOOTH",
"143 594 OFFCURVE",
"167 618 OFFCURVE",
"167 649 CURVE SMOOTH",
"167 680 OFFCURVE",
"143 704 OFFCURVE",
"112 704 CURVE SMOOTH"
);
}
);
width = 233;
}
);
leftKerningGroup = j;
rightKerningGroup = j;
unicode = 006A;
},
{
glyphname = k;
lastChange = "2014-04-12 01:45:39 +0900";
layers = (
{
anchors = (
{
name = bottom;
position = "{273, 0}";
}
);
layerId = "518735FF-A855-4455-BD68-071AC00DFA4E";
name = Regular;
paths = (
{
closed = 1;
nodes = (
"407 530 LINE",
"160 263 LINE",
"160 169 LINE",
"225 241 LINE",
"185 253 LINE",
"403 0 LINE",
"520 0 LINE",
"233 321 LINE",
"231 240 LINE",
"517 530 LINE"
);
},
{
closed = 1;
nodes = (
"74 735 LINE",
"74 0 LINE",
"160 0 LINE",
"160 735 LINE"
);
}
);
width = 522;
},
{
anchors = (
{
name = bottom;
position = "{229, 0}";
}
);
layerId = "4375068D-FDA0-47DA-A897-61BBB4269C7B";
name = Light;
paths = (
{
closed = 1;
nodes = (
"403 526 LINE",
"92 240 LINE",
"92 214 LINE",
"143 261 LINE",
"131 263 LINE",
"404 0 LINE",
"437 0 LINE",
"148 278 LINE",
"147 263 LINE",
"436 526 LINE"
);
},
{
closed = 1;
nodes = (
"71 735 LINE",
"71 0 LINE",
"93 0 LINE",
"93 735 LINE"
);
}
);
width = 458;
},
{
anchors = (
{
name = bottom;
position = "{322, 0}";
}
);
layerId = "F37E1481-2EA3-4843-874F-9D06DA6D7C4C";
name = Bold;
paths = (
{
closed = 1;
nodes = (
"422 534 LINE",
"229 304 LINE",
"229 150 LINE",
"289 216 LINE",
"245 236 LINE",
"415 0 LINE",
"636 0 LINE",
"366 341 LINE",
"366 245 LINE",
"633 534 LINE"
);
},
{
closed = 1;
nodes = (
"54 735 LINE",
"54 0 LINE",
"234 0 LINE",
"234 735 LINE"
);
}
);
width = 632;
}
);
leftKerningGroup = h;
leftMetricsKey = h;
rightKerningGroup = k;
unicode = 006B;
},
{
glyphname = l;
lastChange = "2014-04-12 01:45:39 +0900";
layers = (
{
anchors = (
{
name = bottom;
position = "{123, 0}";
},
{
name = top;
position = "{113, 735}";
},
{
name = topright;
position = "{214, 530}";
}
);
layerId = "518735FF-A855-4455-BD68-071AC00DFA4E";
name = Regular;
paths = (
{
closed = 1;
nodes = (
"70 735 LINE",
"70 149 LINE SMOOTH",
"70 120 OFFCURVE",
"70 97 OFFCURVE",
"71 79 CURVE SMOOTH",
"74 12 OFFCURVE",
"111 -4 OFFCURVE",
"161 -4 CURVE SMOOTH",
"181 -4 OFFCURVE",
"203 -3 OFFCURVE",
"222 0 CURVE",
"222 62 LINE",
"175 57 OFFCURVE",
"159 68 OFFCURVE",
"157 102 CURVE SMOOTH",
"156 119 OFFCURVE",
"156 136 OFFCURVE",
"156 152 CURVE SMOOTH",
"156 735 LINE"
);
}
);
width = 247;
},
{
anchors = (
{
name = bottom;
position = "{112, 0}";
},
{
name = top;
position = "{79, 735}";
},
{
name = topright;
position = "{144, 530}";
}
);
layerId = "4375068D-FDA0-47DA-A897-61BBB4269C7B";
name = Light;
paths = (
{
closed = 1;
nodes = (
"68 735 LINE",
"68 120 LINE SMOOTH",
"68 82 OFFCURVE",
"68 66 OFFCURVE",
"69 46 CURVE SMOOTH",
"71 6 OFFCURVE",
"91 -5 OFFCURVE",
"118 -5 CURVE SMOOTH",
"128 -5 OFFCURVE",
"137 -5 OFFCURVE",
"147 -3 CURVE",
"147 16 LINE",
"106 11 OFFCURVE",
"93 18 OFFCURVE",
"91 51 CURVE SMOOTH",
"90 65 OFFCURVE",
"90 85 OFFCURVE",
"90 120 CURVE SMOOTH",
"90 735 LINE"
);
}
);
width = 173;
},
{
anchors = (
{
name = bottom;
position = "{162, 0}";
},
{
name = top;
position = "{133, 738}";
},
{
name = topright;
position = "{296, 530}";
}
);
layerId = "F37E1481-2EA3-4843-874F-9D06DA6D7C4C";
name = Bold;
paths = (
{
closed = 1;
nodes = (
"50 735 LINE",
"50 189 LINE SMOOTH",
"50 149 OFFCURVE",
"50 122 OFFCURVE",
"52 94 CURVE SMOOTH",
"56 23 OFFCURVE",
"103 -10 OFFCURVE",
"186 -10 CURVE SMOOTH",
"226 -10 OFFCURVE",
"258 -8 OFFCURVE",
"291 -5 CURVE",
"291 117 LINE",
"244 115 OFFCURVE",
"235 122 OFFCURVE",
"232 143 CURVE SMOOTH",
"230 156 OFFCURVE",
"230 167 OFFCURVE",
"230 192 CURVE SMOOTH",
"230 735 LINE"
);
}
);
width = 305;
}
);
leftKerningGroup = l;
rightKerningGroup = l;
unicode = 006C;
},
{
glyphname = ldot;
lastChange = "2014-08-19 21:31:03 +0900";
layers = (
{
components = (
{
disableAlignment = 1;
name = l;
transform = "{1, 0, 0, 1, 0, 0}";
}
);
layerId = "4375068D-FDA0-47DA-A897-61BBB4269C7B";
name = Light;
paths = (
{
closed = 1;
nodes = (
"146 420 OFFCURVE",
"137 411 OFFCURVE",
"137 400 CURVE SMOOTH",
"137 389 OFFCURVE",
"146 380 OFFCURVE",
"157 380 CURVE SMOOTH",
"168 380 OFFCURVE",
"177 389 OFFCURVE",
"177 400 CURVE SMOOTH",
"177 411 OFFCURVE",
"168 420 OFFCURVE",
"157 420 CURVE SMOOTH"
);
}
);
width = 180;
},
{
components = (
{
disableAlignment = 1;
name = l;
transform = "{1, 0, 0, 1, 0, 0}";
}
);
layerId = "518735FF-A855-4455-BD68-071AC00DFA4E";
name = Regular;
paths = (
{
closed = 1;
nodes = (
"250 455 OFFCURVE",
"226 431 OFFCURVE",
"226 400 CURVE SMOOTH",
"226 369 OFFCURVE",
"250 345 OFFCURVE",
"281 345 CURVE SMOOTH",
"312 345 OFFCURVE",
"336 369 OFFCURVE",
"336 400 CURVE SMOOTH",
"336 431 OFFCURVE",
"312 455 OFFCURVE",
"281 455 CURVE SMOOTH"
);
}
);
width = 350;
},
{
components = (
{
disableAlignment = 1;
name = l;
transform = "{1, 0, 0, 1, 0, 0}";
}
);
layerId = "F37E1481-2EA3-4843-874F-9D06DA6D7C4C";
name = Bold;
paths = (
{
closed = 1;
nodes = (
"326 488 OFFCURVE",
"287 452 OFFCURVE",
"287 400 CURVE SMOOTH",
"287 348 OFFCURVE",
"326 312 OFFCURVE",
"380 312 CURVE SMOOTH",
"434 312 OFFCURVE",
"473 348 OFFCURVE",
"473 400 CURVE SMOOTH",
"473 452 OFFCURVE",
"434 488 OFFCURVE",
"380 488 CURVE SMOOTH"
);
}
);
width = 480;
}
);
leftKerningGroup = l;
leftMetricsKey = l;
rightKerningGroup = l;
unicode = 0140;
},
{
glyphname = lslash;
lastChange = "2014-04-12 01:45:38 +0900";
layers = (
{
components = (
{
disableAlignment = 1;
name = l;
transform = "{1, 0, 0, 1, 27, 0}";
}
);
layerId = "518735FF-A855-4455-BD68-071AC00DFA4E";
name = Regular;
paths = (
{
closed = 1;
nodes = (
"32 292 LINE",
"32 225 LINE",
"248 353 LINE",
"248 420 LINE"
);
}
);
width = 284;
},
{
components = (
{
disableAlignment = 1;
name = l;
transform = "{1, 0, 0, 1, 19, 0}";
}
);
layerId = "4375068D-FDA0-47DA-A897-61BBB4269C7B";
name = Light;
paths = (
{
closed = 1;
nodes = (
"30 286 LINE",
"30 260 LINE",
"166 358 LINE",
"166 384 LINE"
);
}
);
width = 202;
},
{
components = (
{
disableAlignment = 1;
name = l;
transform = "{1, 0, 0, 1, 22, 0}";
}
);
layerId = "F37E1481-2EA3-4843-874F-9D06DA6D7C4C";
name = Bold;
paths = (
{
closed = 1;
nodes = (
"12 287 LINE",
"12 168 LINE",
"312 358 LINE",
"312 477 LINE"
);
}
);
width = 337;
}
);
leftMetricsKey = "=l-38";
rightMetricsKey = "=l+10";
unicode = 0142;
},
{
glyphname = m;
lastChange = "2014-04-12 01:45:39 +0900";
layers = (
{
layerId = "518735FF-A855-4455-BD68-071AC00DFA4E";
name = Regular;
paths = (
{
closed = 1;
nodes = (
"571 544 OFFCURVE",
"533 535 OFFCURVE",
"506 513 CURVE",
"447 427 LINE",
"472 262 LINE",
"472 423 OFFCURVE",
"521 476 OFFCURVE",
"588 476 CURVE SMOOTH",
"648 476 OFFCURVE",
"686 447 OFFCURVE",
"694 387 CURVE SMOOTH",
"697 360 OFFCURVE",
"698 331 OFFCURVE",
"698 284 CURVE SMOOTH",
"698 0 LINE",
"784 0 LINE",
"784 324 LINE SMOOTH",
"784 367 OFFCURVE",
"783 388 OFFCURVE",
"779 415 CURVE SMOOTH",
"767 488 OFFCURVE",
"713 544 OFFCURVE",
"618 544 CURVE SMOOTH"
);
},
{
closed = 1;
nodes = (
"74 530 LINE",
"74 0 LINE",
"160 0 LINE",
"160 530 LINE"
);
},
{
closed = 1;
nodes = (
"259 544 OFFCURVE",
"221 535 OFFCURVE",
"194 513 CURVE",
"156 446 LINE",
"160 262 LINE",
"160 423 OFFCURVE",
"209 476 OFFCURVE",
"276 476 CURVE SMOOTH",
"336 476 OFFCURVE",
"374 447 OFFCURVE",
"382 387 CURVE SMOOTH",
"385 360 OFFCURVE",
"386 331 OFFCURVE",
"386 284 CURVE SMOOTH",
"386 0 LINE",
"472 0 LINE",
"472 324 LINE SMOOTH",
"472 367 OFFCURVE",
"471 388 OFFCURVE",
"467 415 CURVE SMOOTH",
"455 488 OFFCURVE",
"401 544 OFFCURVE",
"306 544 CURVE SMOOTH"
);
}
);
width = 855;
},
{
layerId = "4375068D-FDA0-47DA-A897-61BBB4269C7B";
name = Light;
paths = (
{
closed = 1;
nodes = (
"526 540 OFFCURVE",
"478 518 OFFCURVE",
"442 471 CURVE",
"404 389 LINE",
"418 302 LINE",
"418 452 OFFCURVE",
"492 520 OFFCURVE",
"580 520 CURVE SMOOTH",
"666 520 OFFCURVE",
"707 459 OFFCURVE",
"717 370 CURVE SMOOTH",
"720 343 OFFCURVE",
"721 320 OFFCURVE",
"721 283 CURVE SMOOTH",
"721 0 LINE",
"743 0 LINE",
"743 292 LINE SMOOTH",
"743 335 OFFCURVE",
"742 351 OFFCURVE",
"739 378 CURVE SMOOTH",
"728 481 OFFCURVE",
"675 540 OFFCURVE",
"581 540 CURVE SMOOTH"
);
},
{
closed = 1;
nodes = (
"71 526 LINE",
"71 0 LINE",
"93 0 LINE",
"93 526 LINE"
);
},
{
closed = 1;
nodes = (
"201 540 OFFCURVE",
"153 518 OFFCURVE",
"117 471 CURVE",
"89 404 LINE",
"93 302 LINE",
"93 452 OFFCURVE",
"167 520 OFFCURVE",
"255 520 CURVE SMOOTH",
"341 520 OFFCURVE",
"382 459 OFFCURVE",
"392 370 CURVE SMOOTH",
"395 343 OFFCURVE",
"396 320 OFFCURVE",
"396 283 CURVE SMOOTH",
"396 0 LINE",
"418 0 LINE",
"418 312 LINE SMOOTH",
"418 335 OFFCURVE",
"417 351 OFFCURVE",
"414 378 CURVE SMOOTH",
"403 481 OFFCURVE",
"350 540 OFFCURVE",
"256 540 CURVE SMOOTH"
);
}
);
width = 809;
},
{
layerId = "F37E1481-2EA3-4843-874F-9D06DA6D7C4C";
name = Bold;
paths = (
{
closed = 1;
nodes = (
"685 548 OFFCURVE",
"652 537 OFFCURVE",
"619 517 CURVE",
"553 432 LINE",
"576 282 LINE",
"576 373 OFFCURVE",
"599 426 OFFCURVE",
"657 426 CURVE SMOOTH",
"704 426 OFFCURVE",
"728 396 OFFCURVE",
"734 345 CURVE SMOOTH",
"737 318 OFFCURVE",
"738 289 OFFCURVE",
"738 272 CURVE SMOOTH",
"738 0 LINE",
"918 0 LINE",
"918 312 LINE SMOOTH",
"918 355 OFFCURVE",
"917 386 OFFCURVE",
"913 413 CURVE SMOOTH",
"901 486 OFFCURVE",
"841 548 OFFCURVE",
"734 548 CURVE SMOOTH"
);
},
{
closed = 1;
nodes = (
"54 534 LINE",
"54 0 LINE",
"234 0 LINE",
"234 534 LINE"
);
},
{
closed = 1;
nodes = (
"343 548 OFFCURVE",
"310 537 OFFCURVE",
"277 517 CURVE",
"230 442 LINE",
"234 282 LINE",
"234 373 OFFCURVE",
"257 426 OFFCURVE",
"315 426 CURVE SMOOTH",
"362 426 OFFCURVE",
"386 396 OFFCURVE",
"392 345 CURVE SMOOTH",
"395 318 OFFCURVE",
"396 289 OFFCURVE",
"396 272 CURVE SMOOTH",
"396 0 LINE",
"576 0 LINE",
"576 312 LINE SMOOTH",
"576 355 OFFCURVE",
"575 386 OFFCURVE",
"571 413 CURVE SMOOTH",
"559 486 OFFCURVE",
"499 548 OFFCURVE",
"392 548 CURVE SMOOTH"
);
}
);
width = 966;
}
);
leftKerningGroup = n;
leftMetricsKey = h;
rightKerningGroup = h;
rightMetricsKey = h;
unicode = 006D;
},
{
glyphname = n;
lastChange = "2014-04-12 01:45:39 +0900";
layers = (
{
anchors = (
{
name = bottom;
position = "{296, 0}";
},
{
name = top;
position = "{305, 530}";
}
);
hints = (
{
place = "{127.193709, 0.000000}";
},
{
origin = "{0, 14}";
target = "{0, 15}";
},
{
origin = "{1, 1}";
target = "{1, 2}";
},
{
horizontal = 1;
origin = "{0, 22}";
target = "{0, 7}";
}
);
layerId = "518735FF-A855-4455-BD68-071AC00DFA4E";
name = Regular;
paths = (
{
closed = 1;
nodes = (
"277 544 OFFCURVE",
"238 535 OFFCURVE",
"193 500 CURVE",
"156 432 LINE",
"160 233 LINE",
"160 414 OFFCURVE",
"230 476 OFFCURVE",
"313 476 CURVE SMOOTH",
"395 476 OFFCURVE",
"429 430 OFFCURVE",
"434 368 CURVE SMOOTH",
"436 341 OFFCURVE",
"436 319 OFFCURVE",
"436 292 CURVE SMOOTH",
"436 0 LINE",
"522 0 LINE",
"522 298 LINE SMOOTH",
"522 341 OFFCURVE",
"522 362 OFFCURVE",
"520 389 CURVE SMOOTH",
"512 482 OFFCURVE",
"447 544 OFFCURVE",
"331 544 CURVE SMOOTH"
);
},
{
closed = 1;
nodes = (
"74 530 LINE",
"74 0 LINE",
"160 0 LINE",
"160 530 LINE"
);
}
);
width = 593;
},
{
anchors = (
{
name = bottom;
position = "{262, 0}";
},
{
name = top;
position = "{262, 530}";
}
);
layerId = "4375068D-FDA0-47DA-A897-61BBB4269C7B";
name = Light;
paths = (
{
closed = 1;
nodes = (
"214 540 OFFCURVE",
"153 513 OFFCURVE",
"114 458 CURVE",
"89 396 LINE",
"93 312 LINE",
"93 452 OFFCURVE",
"183 519 OFFCURVE",
"279 519 CURVE SMOOTH",
"379 519 OFFCURVE",
"428 459 OFFCURVE",
"438 370 CURVE SMOOTH",
"441 343 OFFCURVE",
"442 320 OFFCURVE",
"442 283 CURVE SMOOTH",
"442 0 LINE",
"464 0 LINE",
"464 292 LINE SMOOTH",
"464 335 OFFCURVE",
"463 351 OFFCURVE",
"460 378 CURVE SMOOTH",
"449 481 OFFCURVE",
"385 540 OFFCURVE",
"279 540 CURVE SMOOTH"
);
},
{
closed = 1;
nodes = (
"71 526 LINE",
"71 0 LINE",
"93 0 LINE",
"93 526 LINE"
);
}
);
width = 530;
},
{
anchors = (
{
name = bottom;
position = "{321, 0}";
},
{
name = top;
position = "{321, 530}";
}
);
layerId = "F37E1481-2EA3-4843-874F-9D06DA6D7C4C";
name = Bold;
paths = (
{
closed = 1;
nodes = (
"353 548 OFFCURVE",
"315 537 OFFCURVE",
"282 517 CURVE",
"230 446 LINE",
"234 252 LINE",
"234 373 OFFCURVE",
"273 426 OFFCURVE",
"328 426 CURVE SMOOTH",
"382 426 OFFCURVE",
"410 396 OFFCURVE",
"414 345 CURVE SMOOTH",
"416 318 OFFCURVE",
"416 289 OFFCURVE",
"416 272 CURVE SMOOTH",
"416 0 LINE",
"596 0 LINE",
"596 302 LINE SMOOTH",
"596 345 OFFCURVE",
"595 376 OFFCURVE",
"591 403 CURVE SMOOTH",
"577 496 OFFCURVE",
"512 548 OFFCURVE",
"402 548 CURVE SMOOTH"
);
},
{
closed = 1;
nodes = (
"54 534 LINE",
"54 0 LINE",
"234 0 LINE",
"234 534 LINE"
);
}
);
width = 644;
}
);
leftKerningGroup = n;
leftMetricsKey = h;
rightKerningGroup = h;
rightMetricsKey = h;
unicode = 006E;
},
{
glyphname = eng;
lastChange = "2014-04-12 01:45:39 +0900";
layers = (
{
hints = (
{
origin = "{0, 0}";
}
);
layerId = "518735FF-A855-4455-BD68-071AC00DFA4E";
name = Regular;
paths = (
{
closed = 1;
nodes = (
"277 544 OFFCURVE",
"238 535 OFFCURVE",
"193 500 CURVE",
"156 432 LINE",
"160 233 LINE",
"160 414 OFFCURVE",
"230 476 OFFCURVE",
"313 476 CURVE SMOOTH",
"395 476 OFFCURVE",
"429 430 OFFCURVE",
"434 368 CURVE SMOOTH",
"436 341 OFFCURVE",
"436 319 OFFCURVE",
"436 292 CURVE SMOOTH",
"436 -60 LINE SMOOTH",
"436 -70 OFFCURVE",
"436 -79 OFFCURVE",
"435 -87 CURVE SMOOTH",
"431 -129 OFFCURVE",
"409 -140 OFFCURVE",
"355 -140 CURVE",
"355 -210 LINE",
"454 -210 OFFCURVE",
"514 -189 OFFCURVE",
"521 -95 CURVE SMOOTH",
"522 -81 OFFCURVE",
"522 -72 OFFCURVE",
"522 -54 CURVE SMOOTH",
"522 298 LINE SMOOTH",
"522 341 OFFCURVE",
"522 362 OFFCURVE",
"520 389 CURVE SMOOTH",
"512 482 OFFCURVE",
"447 544 OFFCURVE",
"331 544 CURVE SMOOTH"
);
},
{
closed = 1;
nodes = (
"74 530 LINE",
"74 0 LINE",
"160 0 LINE",
"160 530 LINE"
);
}
);
width = 593;
},
{
layerId = "4375068D-FDA0-47DA-A897-61BBB4269C7B";
name = Light;
paths = (
{
closed = 1;
nodes = (
"214 540 OFFCURVE",
"153 513 OFFCURVE",
"114 458 CURVE",
"89 396 LINE",
"93 312 LINE",
"93 452 OFFCURVE",
"183 519 OFFCURVE",
"279 519 CURVE SMOOTH",
"379 519 OFFCURVE",
"428 459 OFFCURVE",
"438 370 CURVE SMOOTH",
"441 343 OFFCURVE",
"442 320 OFFCURVE",
"442 283 CURVE SMOOTH",
"442 -57 LINE SMOOTH",
"442 -73 OFFCURVE",
"442 -84 OFFCURVE",
"441 -99 CURVE SMOOTH",
"436 -168 OFFCURVE",
"394 -189 OFFCURVE",
"326 -189 CURVE",
"326 -210 LINE",
"412 -210 OFFCURVE",
"457 -176 OFFCURVE",
"463 -95 CURVE SMOOTH",
"464 -81 OFFCURVE",
"464 -72 OFFCURVE",
"464 -54 CURVE SMOOTH",
"464 292 LINE SMOOTH",
"464 335 OFFCURVE",
"463 351 OFFCURVE",
"460 378 CURVE SMOOTH",
"449 481 OFFCURVE",
"385 540 OFFCURVE",
"279 540 CURVE SMOOTH"
);
},
{
closed = 1;
nodes = (
"71 526 LINE",
"71 0 LINE",
"93 0 LINE",
"93 526 LINE"
);
}
);
width = 530;
},
{
layerId = "F37E1481-2EA3-4843-874F-9D06DA6D7C4C";
name = Bold;
paths = (
{
closed = 1;
nodes = (
"353 548 OFFCURVE",
"315 537 OFFCURVE",
"282 517 CURVE",
"230 446 LINE",
"234 252 LINE",
"234 373 OFFCURVE",
"273 426 OFFCURVE",
"328 426 CURVE SMOOTH",
"382 426 OFFCURVE",
"410 396 OFFCURVE",
"414 345 CURVE SMOOTH",
"416 318 OFFCURVE",
"416 289 OFFCURVE",
"416 272 CURVE SMOOTH",
"416 -3 LINE SMOOTH",
"416 -13 OFFCURVE",
"416 -26 OFFCURVE",
"415 -35 CURVE SMOOTH",
"411 -69 OFFCURVE",
"386 -78 OFFCURVE",
"341 -78 CURVE",
"341 -210 LINE",
"537 -210 OFFCURVE",
"586 -163 OFFCURVE",
"595 -75 CURVE SMOOTH",
"596 -61 OFFCURVE",
"596 -52 OFFCURVE",
"596 -34 CURVE SMOOTH",
"596 302 LINE SMOOTH",
"596 345 OFFCURVE",
"595 376 OFFCURVE",
"591 403 CURVE SMOOTH",
"577 496 OFFCURVE",
"512 548 OFFCURVE",
"402 548 CURVE SMOOTH"
);
},
{
closed = 1;
nodes = (
"54 534 LINE",
"54 0 LINE",
"234 0 LINE",
"234 534 LINE"
);
}
);
width = 644;
}
);
leftKerningGroup = n;
leftMetricsKey = n;
rightKerningGroup = h;
rightMetricsKey = n;
unicode = 014B;
},
{
glyphname = o;
lastChange = "2014-04-12 01:45:39 +0900";
layers = (
{
anchors = (
{
name = top;
position = "{293, 530}";
}
);
layerId = "518735FF-A855-4455-BD68-071AC00DFA4E";
name = Regular;
paths = (
{
closed = 1;
nodes = (
"293 478 LINE",
"400 478 OFFCURVE",
"462 390 OFFCURVE",
"462 265 CURVE SMOOTH",
"462 141 OFFCURVE",
"400 52 OFFCURVE",
"293 52 CURVE",
"293 -14 LINE",
"473 -14 OFFCURVE",
"556 116 OFFCURVE",
"556 265 CURVE SMOOTH",
"556 415 OFFCURVE",
"473 544 OFFCURVE",
"293 544 CURVE"
);
},
{
closed = 1;
nodes = (
"113 544 OFFCURVE",
"30 415 OFFCURVE",
"30 265 CURVE SMOOTH",
"30 116 OFFCURVE",
"113 -14 OFFCURVE",
"293 -14 CURVE",
"293 52 LINE",
"186 52 OFFCURVE",
"124 141 OFFCURVE",
"124 265 CURVE SMOOTH",
"124 390 OFFCURVE",
"186 478 OFFCURVE",
"293 478 CURVE",
"293 544 LINE"
);
}
);
width = 586;
},
{
anchors = (
{
name = top;
position = "{277, 530}";
}
);
layerId = "4375068D-FDA0-47DA-A897-61BBB4269C7B";
name = Light;
paths = (
{
closed = 1;
nodes = (
"277 519 LINE",
"391 519 OFFCURVE",
"500 439 OFFCURVE",
"500 262 CURVE SMOOTH",
"500 86 OFFCURVE",
"391 7 OFFCURVE",
"277 7 CURVE",
"277 -14 LINE",
"425 -14 OFFCURVE",
"524 96 OFFCURVE",
"524 262 CURVE SMOOTH",
"524 429 OFFCURVE",
"425 540 OFFCURVE",
"277 540 CURVE"
);
},
{
closed = 1;
nodes = (
"129 540 OFFCURVE",
"30 429 OFFCURVE",
"30 262 CURVE SMOOTH",
"30 96 OFFCURVE",
"129 -14 OFFCURVE",
"277 -14 CURVE",
"277 7 LINE",
"163 7 OFFCURVE",
"54 86 OFFCURVE",
"54 262 CURVE SMOOTH",
"54 439 OFFCURVE",
"163 519 OFFCURVE",
"277 519 CURVE",
"277 540 LINE"
);
}
);
width = 554;
},
{
anchors = (
{
name = top;
position = "{311, 530}";
}
);
layerId = "F37E1481-2EA3-4843-874F-9D06DA6D7C4C";
name = Bold;
paths = (
{
closed = 1;
nodes = (
"311 426 LINE",
"375 426 OFFCURVE",
"414 374 OFFCURVE",
"414 267 CURVE SMOOTH",
"414 161 OFFCURVE",
"375 108 OFFCURVE",
"311 108 CURVE",
"311 -14 LINE",
"486 -14 OFFCURVE",
"598 96 OFFCURVE",
"598 267 CURVE SMOOTH",
"598 439 OFFCURVE",
"486 548 OFFCURVE",
"311 548 CURVE"
);
},
{
closed = 1;
nodes = (
"136 548 OFFCURVE",
"24 439 OFFCURVE",
"24 267 CURVE SMOOTH",
"24 96 OFFCURVE",
"136 -14 OFFCURVE",
"311 -14 CURVE",
"311 108 LINE",
"247 108 OFFCURVE",
"208 161 OFFCURVE",
"208 267 CURVE SMOOTH",
"208 374 OFFCURVE",
"247 426 OFFCURVE",
"311 426 CURVE",
"311 548 LINE"
);
}
);
width = 622;
}
);
leftKerningGroup = o;
rightKerningGroup = o;
unicode = 006F;
},
{
glyphname = oslash;
lastChange = "2014-04-12 01:45:38 +0900";
layers = (
{
anchors = (
{
name = top;
position = "{297, 530}";
}
);
components = (
{
name = o;
transform = "{1, 0, 0, 1, 16, 0}";
}
);
layerId = "4375068D-FDA0-47DA-A897-61BBB4269C7B";
name = Light;
paths = (
{
closed = 1;
nodes = (
"26 7 LINE",
"41 -8 LINE",
"568 519 LINE",
"553 534 LINE"
);
}
);
width = 594;
},
{
anchors = (
{
name = top;
position = "{310, 530}";
}
);
components = (
{
name = o;
transform = "{1, 0, 0, 1, 9, 0}";
}
);
layerId = "518735FF-A855-4455-BD68-071AC00DFA4E";
name = Regular;
paths = (
{
closed = 1;
nodes = (
"26 22 LINE",
"67 -19 LINE",
"594 508 LINE",
"553 549 LINE"
);
}
);
width = 620;
},
{
anchors = (
{
name = top;
position = "{319, 530}";
}
);
components = (
{
name = o;
transform = "{1, 0, 0, 1, 4, 0}";
}
);
layerId = "F37E1481-2EA3-4843-874F-9D06DA6D7C4C";
name = Bold;
paths = (
{
closed = 1;
nodes = (
"20 39 LINE",
"91 -32 LINE",
"618 495 LINE",
"547 566 LINE"
);
}
);
width = 638;
}
);
leftKerningGroup = o;
leftMetricsKey = "=o-4";
rightKerningGroup = o;
rightMetricsKey = "=o-4";
unicode = 00F8;
},
{
glyphname = oe;
lastChange = "2014-04-12 01:45:39 +0900";
layers = (
{
anchors = (
{
name = top;
position = "{535, 530}";
}
);
layerId = "4375068D-FDA0-47DA-A897-61BBB4269C7B";
name = Light;
paths = (
{
closed = 1;
nodes = (
"630 540 OFFCURVE",
"533 468 OFFCURVE",
"510 340 CURVE",
"515 341 LINE",
"490 468 OFFCURVE",
"397 540 OFFCURVE",
"277 540 CURVE SMOOTH",
"129 540 OFFCURVE",
"30 429 OFFCURVE",
"30 262 CURVE SMOOTH",
"30 96 OFFCURVE",
"129 -14 OFFCURVE",
"277 -14 CURVE SMOOTH",
"396 -14 OFFCURVE",
"487 59 OFFCURVE",
"513 184 CURVE",
"508 185 LINE",
"532 50 OFFCURVE",
"626 -14 OFFCURVE",
"726 -14 CURVE SMOOTH",
"826 -14 OFFCURVE",
"915 45 OFFCURVE",
"947 161 CURVE",
"925 161 LINE",
"894 54 OFFCURVE",
"811 7 OFFCURVE",
"728 7 CURVE SMOOTH",
"631 7 OFFCURVE",
"528 76 OFFCURVE",
"524 258 CURVE",
"954 258 LINE",
"955 269 OFFCURVE",
"955 273 OFFCURVE",
"955 277 CURVE SMOOTH",
"955 408 OFFCURVE",
"886 540 OFFCURVE",
"735 540 CURVE SMOOTH"
);
},
{
closed = 1;
nodes = (
"391 519 OFFCURVE",
"500 439 OFFCURVE",
"500 262 CURVE SMOOTH",
"500 86 OFFCURVE",
"391 7 OFFCURVE",
"277 7 CURVE SMOOTH",
"163 7 OFFCURVE",
"54 86 OFFCURVE",
"54 262 CURVE SMOOTH",
"54 439 OFFCURVE",
"163 519 OFFCURVE",
"277 519 CURVE SMOOTH"
);
},
{
closed = 1;
nodes = (
"823 519 OFFCURVE",
"928 461 OFFCURVE",
"932 279 CURVE",
"524 279 LINE",
"528 444 OFFCURVE",
"637 519 OFFCURVE",
"733 519 CURVE SMOOTH"
);
}
);
width = 991;
},
{
anchors = (
{
name = top;
position = "{569, 530}";
}
);
layerId = "518735FF-A855-4455-BD68-071AC00DFA4E";
name = Regular;
paths = (
{
closed = 1;
nodes = (
"618 544 OFFCURVE",
"539 497 OFFCURVE",
"497 385 CURVE",
"522 388 LINE",
"482 493 OFFCURVE",
"406 544 OFFCURVE",
"293 544 CURVE SMOOTH",
"113 544 OFFCURVE",
"30 415 OFFCURVE",
"30 265 CURVE SMOOTH",
"30 116 OFFCURVE",
"113 -14 OFFCURVE",
"293 -14 CURVE SMOOTH",
"405 -14 OFFCURVE",
"478 36 OFFCURVE",
"518 140 CURVE",
"493 143 LINE",
"533 30 OFFCURVE",
"611 -14 OFFCURVE",
"703 -14 CURVE SMOOTH",
"812 -14 OFFCURVE",
"913 43 OFFCURVE",
"934 171 CURVE",
"844 171 LINE",
"832 95 OFFCURVE",
"776 52 OFFCURVE",
"707 52 CURVE SMOOTH",
"629 52 OFFCURVE",
"565 107 OFFCURVE",
"557 239 CURVE",
"939 239 LINE",
"941 258 OFFCURVE",
"941 272 OFFCURVE",
"941 280 CURVE SMOOTH",
"941 435 OFFCURVE",
"860 544 OFFCURVE",
"714 544 CURVE SMOOTH"
);
},
{
closed = 1;
nodes = (
"400 478 OFFCURVE",
"462 390 OFFCURVE",
"462 265 CURVE SMOOTH",
"462 141 OFFCURVE",
"400 52 OFFCURVE",
"293 52 CURVE SMOOTH",
"186 52 OFFCURVE",
"124 141 OFFCURVE",
"124 265 CURVE SMOOTH",
"124 390 OFFCURVE",
"186 478 OFFCURVE",
"293 478 CURVE SMOOTH"
);
},
{
closed = 1;
nodes = (
"799 478 OFFCURVE",
"845 415 OFFCURVE",
"854 305 CURVE",
"557 305 LINE",
"568 418 OFFCURVE",
"627 478 OFFCURVE",
"712 478 CURVE SMOOTH"
);
}
);
width = 981;
},
{
anchors = (
{
name = top;
position = "{615, 530}";
}
);
layerId = "F37E1481-2EA3-4843-874F-9D06DA6D7C4C";
name = Bold;
paths = (
{
closed = 1;
nodes = (
"600 548 OFFCURVE",
"513 496 OFFCURVE",
"474 375 CURVE",
"542 375 LINE",
"502 498 OFFCURVE",
"412 548 OFFCURVE",
"311 548 CURVE SMOOTH",
"136 548 OFFCURVE",
"24 439 OFFCURVE",
"24 267 CURVE SMOOTH",
"24 96 OFFCURVE",
"136 -14 OFFCURVE",
"311 -14 CURVE SMOOTH",
"410 -14 OFFCURVE",
"498 31 OFFCURVE",
"538 151 CURVE",
"467 155 LINE",
"507 28 OFFCURVE",
"598 -14 OFFCURVE",
"694 -14 CURVE SMOOTH",
"826 -14 OFFCURVE",
"926 54 OFFCURVE",
"957 175 CURVE",
"780 175 LINE",
"773 134 OFFCURVE",
"742 108 OFFCURVE",
"691 108 CURVE SMOOTH",
"640 108 OFFCURVE",
"601 133 OFFCURVE",
"592 222 CURVE",
"964 222 LINE",
"966 240 OFFCURVE",
"967 258 OFFCURVE",
"967 274 CURVE SMOOTH",
"967 412 OFFCURVE",
"877 548 OFFCURVE",
"708 548 CURVE SMOOTH"
);
},
{
closed = 1;
nodes = (
"375 426 OFFCURVE",
"414 374 OFFCURVE",
"414 267 CURVE SMOOTH",
"414 161 OFFCURVE",
"375 108 OFFCURVE",
"311 108 CURVE SMOOTH",
"247 108 OFFCURVE",
"208 161 OFFCURVE",
"208 267 CURVE SMOOTH",
"208 374 OFFCURVE",
"247 426 OFFCURVE",
"311 426 CURVE SMOOTH"
);
},
{
closed = 1;
nodes = (
"739 426 OFFCURVE",
"770 394 OFFCURVE",
"779 332 CURVE",
"598 332 LINE",
"611 397 OFFCURVE",
"644 426 OFFCURVE",
"690 426 CURVE SMOOTH"
);
}
);
width = 991;
}
);
leftKerningGroup = o;
leftMetricsKey = o;
rightKerningGroup = e;
rightMetricsKey = e;
unicode = 0153;
},
{
glyphname = p;
lastChange = "2014-04-12 01:45:39 +0900";
layers = (
{
layerId = "518735FF-A855-4455-BD68-071AC00DFA4E";
name = Regular;
paths = (
{
closed = 1;
nodes = (
"286 544 OFFCURVE",
"230 527 OFFCURVE",
"200 502 CURVE",
"146 425 LINE",
"160 270 LINE",
"160 422 OFFCURVE",
"239 478 OFFCURVE",
"327 478 CURVE SMOOTH",
"433 478 OFFCURVE",
"487 383 OFFCURVE",
"487 263 CURVE SMOOTH",
"487 124 OFFCURVE",
"415 52 OFFCURVE",
"322 52 CURVE SMOOTH",
"246 52 OFFCURVE",
"160 104 OFFCURVE",
"160 241 CURVE",
"142 99 LINE",
"195 21 LINE",
"222 -1 OFFCURVE",
"278 -14 OFFCURVE",
"322 -14 CURVE SMOOTH",
"459 -14 OFFCURVE",
"581 77 OFFCURVE",
"581 273 CURVE SMOOTH",
"581 428 OFFCURVE",
"495 544 OFFCURVE",
"340 544 CURVE SMOOTH"
);
},
{
closed = 1;
nodes = (
"74 530 LINE",
"74 -196 LINE",
"160 -196 LINE",
"160 530 LINE"
);
}
);
width = 611;
},
{
layerId = "4375068D-FDA0-47DA-A897-61BBB4269C7B";
name = Light;
paths = (
{
closed = 1;
nodes = (
"215 540 OFFCURVE",
"168 522 OFFCURVE",
"121 466 CURVE",
"84 387 LINE",
"93 288 LINE",
"93 461 OFFCURVE",
"181 519 OFFCURVE",
"285 519 CURVE SMOOTH",
"418 519 OFFCURVE",
"490 401 OFFCURVE",
"490 263 CURVE SMOOTH",
"490 112 OFFCURVE",
"401 7 OFFCURVE",
"275 7 CURVE SMOOTH",
"193 7 OFFCURVE",
"93 57 OFFCURVE",
"93 229 CURVE",
"80 149 LINE",
"122 54 LINE",
"165 6 OFFCURVE",
"208 -14 OFFCURVE",
"275 -14 CURVE SMOOTH",
"402 -14 OFFCURVE",
"514 81 OFFCURVE",
"514 267 CURVE SMOOTH",
"514 427 OFFCURVE",
"424 540 OFFCURVE",
"287 540 CURVE SMOOTH"
);
},
{
closed = 1;
nodes = (
"71 534 LINE",
"71 -196 LINE",
"93 -196 LINE",
"93 534 LINE"
);
}
);
width = 544;
},
{
layerId = "F37E1481-2EA3-4843-874F-9D06DA6D7C4C";
name = Bold;
paths = (
{
closed = 1;
nodes = (
"356 548 OFFCURVE",
"304 537 OFFCURVE",
"274 515 CURVE",
"220 435 LINE",
"234 274 LINE",
"234 386 OFFCURVE",
"282 426 OFFCURVE",
"348 426 CURVE SMOOTH",
"411 426 OFFCURVE",
"461 370 OFFCURVE",
"461 270 CURVE SMOOTH",
"461 161 OFFCURVE",
"413 108 OFFCURVE",
"343 108 CURVE SMOOTH",
"289 108 OFFCURVE",
"234 144 OFFCURVE",
"234 251 CURVE",
"216 99 LINE",
"269 12 LINE",
"296 -4 OFFCURVE",
"348 -14 OFFCURVE",
"392 -14 CURVE SMOOTH",
"529 -14 OFFCURVE",
"645 89 OFFCURVE",
"645 279 CURVE SMOOTH",
"645 437 OFFCURVE",
"555 548 OFFCURVE",
"410 548 CURVE SMOOTH"
);
},
{
closed = 1;
nodes = (
"54 534 LINE",
"54 -196 LINE",
"234 -196 LINE",
"234 534 LINE"
);
}
);
width = 669;
}
);
leftKerningGroup = n;
leftMetricsKey = h;
rightKerningGroup = o;
rightMetricsKey = o;
unicode = 0070;
},
{
glyphname = thorn;
lastChange = "2014-04-12 01:45:39 +0900";
layers = (
{
layerId = "518735FF-A855-4455-BD68-071AC00DFA4E";
name = Regular;
paths = (
{
closed = 1;
nodes = (
"286 544 OFFCURVE",
"230 527 OFFCURVE",
"200 502 CURVE",
"146 425 LINE",
"160 270 LINE",
"160 422 OFFCURVE",
"239 478 OFFCURVE",
"327 478 CURVE SMOOTH",
"433 478 OFFCURVE",
"487 383 OFFCURVE",
"487 263 CURVE SMOOTH",
"487 124 OFFCURVE",
"415 52 OFFCURVE",
"322 52 CURVE SMOOTH",
"246 52 OFFCURVE",
"160 104 OFFCURVE",
"160 241 CURVE",
"142 99 LINE",
"195 21 LINE",
"222 -1 OFFCURVE",
"278 -14 OFFCURVE",
"322 -14 CURVE SMOOTH",
"459 -14 OFFCURVE",
"581 77 OFFCURVE",
"581 273 CURVE SMOOTH",
"581 428 OFFCURVE",
"495 544 OFFCURVE",
"340 544 CURVE SMOOTH"
);
},
{
closed = 1;
nodes = (
"74 735 LINE",
"74 -196 LINE",
"160 -196 LINE",
"160 735 LINE"
);
}
);
width = 611;
},
{
layerId = "4375068D-FDA0-47DA-A897-61BBB4269C7B";
name = Light;
paths = (
{
closed = 1;
nodes = (
"215 540 OFFCURVE",
"168 522 OFFCURVE",
"121 466 CURVE",
"84 387 LINE",
"93 288 LINE",
"93 461 OFFCURVE",
"181 519 OFFCURVE",
"285 519 CURVE SMOOTH",
"418 519 OFFCURVE",
"490 401 OFFCURVE",
"490 263 CURVE SMOOTH",
"490 112 OFFCURVE",
"401 7 OFFCURVE",
"275 7 CURVE SMOOTH",
"193 7 OFFCURVE",
"93 57 OFFCURVE",
"93 229 CURVE",
"80 149 LINE",
"122 54 LINE",
"165 6 OFFCURVE",
"208 -14 OFFCURVE",
"275 -14 CURVE SMOOTH",
"402 -14 OFFCURVE",
"514 81 OFFCURVE",
"514 267 CURVE SMOOTH",
"514 427 OFFCURVE",
"424 540 OFFCURVE",
"287 540 CURVE SMOOTH"
);
},
{
closed = 1;
nodes = (
"71 735 LINE",
"71 -196 LINE",
"93 -196 LINE",
"93 735 LINE"
);
}
);
width = 544;
},
{
layerId = "F37E1481-2EA3-4843-874F-9D06DA6D7C4C";
name = Bold;
paths = (
{
closed = 1;
nodes = (
"356 548 OFFCURVE",
"304 537 OFFCURVE",
"274 515 CURVE",
"220 435 LINE",
"234 274 LINE",
"234 386 OFFCURVE",
"282 426 OFFCURVE",
"348 426 CURVE SMOOTH",
"411 426 OFFCURVE",
"461 370 OFFCURVE",
"461 270 CURVE SMOOTH",
"461 161 OFFCURVE",
"413 108 OFFCURVE",
"343 108 CURVE SMOOTH",
"289 108 OFFCURVE",
"234 144 OFFCURVE",
"234 251 CURVE",
"216 99 LINE",
"269 12 LINE",
"296 -4 OFFCURVE",
"348 -14 OFFCURVE",
"392 -14 CURVE SMOOTH",
"529 -14 OFFCURVE",
"645 89 OFFCURVE",
"645 279 CURVE SMOOTH",
"645 437 OFFCURVE",
"555 548 OFFCURVE",
"410 548 CURVE SMOOTH"
);
},
{
closed = 1;
nodes = (
"54 735 LINE",
"54 -196 LINE",
"234 -196 LINE",
"234 735 LINE"
);
}
);
width = 669;
}
);
leftKerningGroup = h;
leftMetricsKey = h;
rightKerningGroup = o;
rightMetricsKey = o;
unicode = 00FE;
},
{
glyphname = q;
lastChange = "2014-04-12 01:45:39 +0900";
layers = (
{
layerId = "518735FF-A855-4455-BD68-071AC00DFA4E";
name = Regular;
paths = (
{
closed = 1;
nodes = (
"152 544 OFFCURVE",
"30 453 OFFCURVE",
"30 257 CURVE SMOOTH",
"30 102 OFFCURVE",
"116 -14 OFFCURVE",
"271 -14 CURVE SMOOTH",
"325 -14 OFFCURVE",
"381 3 OFFCURVE",
"411 28 CURVE",
"465 105 LINE",
"451 260 LINE",
"451 108 OFFCURVE",
"372 52 OFFCURVE",
"284 52 CURVE SMOOTH",
"178 52 OFFCURVE",
"124 147 OFFCURVE",
"124 267 CURVE SMOOTH",
"124 406 OFFCURVE",
"196 478 OFFCURVE",
"289 478 CURVE SMOOTH",
"365 478 OFFCURVE",
"451 426 OFFCURVE",
"451 289 CURVE",
"469 431 LINE",
"416 509 LINE",
"389 531 OFFCURVE",
"333 544 OFFCURVE",
"289 544 CURVE SMOOTH"
);
},
{
closed = 1;
nodes = (
"451 530 LINE",
"451 -196 LINE",
"537 -196 LINE",
"537 530 LINE"
);
}
);
width = 615;
},
{
layerId = "4375068D-FDA0-47DA-A897-61BBB4269C7B";
name = Light;
paths = (
{
closed = 1;
nodes = (
"142 540 OFFCURVE",
"30 445 OFFCURVE",
"30 259 CURVE SMOOTH",
"30 99 OFFCURVE",
"120 -14 OFFCURVE",
"257 -14 CURVE SMOOTH",
"329 -14 OFFCURVE",
"376 4 OFFCURVE",
"423 60 CURVE",
"460 139 LINE",
"451 238 LINE",
"451 65 OFFCURVE",
"363 7 OFFCURVE",
"259 7 CURVE SMOOTH",
"126 7 OFFCURVE",
"54 125 OFFCURVE",
"54 263 CURVE SMOOTH",
"54 414 OFFCURVE",
"143 519 OFFCURVE",
"269 519 CURVE SMOOTH",
"351 519 OFFCURVE",
"451 469 OFFCURVE",
"451 297 CURVE",
"464 377 LINE",
"422 472 LINE",
"379 520 OFFCURVE",
"336 540 OFFCURVE",
"269 540 CURVE SMOOTH"
);
},
{
closed = 1;
nodes = (
"452 534 LINE",
"452 -196 LINE",
"474 -196 LINE",
"474 534 LINE"
);
}
);
width = 545;
},
{
layerId = "F37E1481-2EA3-4843-874F-9D06DA6D7C4C";
name = Bold;
paths = (
{
closed = 1;
nodes = (
"140 548 OFFCURVE",
"24 445 OFFCURVE",
"24 255 CURVE SMOOTH",
"24 97 OFFCURVE",
"114 -14 OFFCURVE",
"259 -14 CURVE SMOOTH",
"313 -14 OFFCURVE",
"365 -3 OFFCURVE",
"395 19 CURVE",
"449 99 LINE",
"435 260 LINE",
"435 148 OFFCURVE",
"387 108 OFFCURVE",
"321 108 CURVE SMOOTH",
"258 108 OFFCURVE",
"208 164 OFFCURVE",
"208 264 CURVE SMOOTH",
"208 373 OFFCURVE",
"256 426 OFFCURVE",
"326 426 CURVE SMOOTH",
"380 426 OFFCURVE",
"435 390 OFFCURVE",
"435 283 CURVE",
"453 435 LINE",
"400 522 LINE",
"373 538 OFFCURVE",
"321 548 OFFCURVE",
"277 548 CURVE SMOOTH"
);
},
{
closed = 1;
nodes = (
"435 534 LINE",
"435 -196 LINE",
"615 -196 LINE",
"615 534 LINE"
);
}
);
width = 669;
}
);
leftKerningGroup = o;
leftMetricsKey = o;
rightKerningGroup = u;
rightMetricsKey = d;
unicode = 0071;
},
{
glyphname = r;
lastChange = "2014-04-12 01:59:26 +0900";
layers = (
{
anchors = (
{
name = bottom;
position = "{117, 0}";
},
{
name = top;
position = "{184, 530}";
}
);
layerId = "518735FF-A855-4455-BD68-071AC00DFA4E";
name = Regular;
paths = (
{
closed = 1;
nodes = (
"74 530 LINE",
"74 0 LINE",
"160 0 LINE",
"160 530 LINE"
);
},
{
closed = 1;
nodes = (
"257 542 OFFCURVE",
"230 533 OFFCURVE",
"208 518 CURVE",
"156 441 LINE",
"160 302 LINE",
"160 423 OFFCURVE",
"228 476 OFFCURVE",
"318 470 CURVE",
"318 535 LINE",
"308 540 OFFCURVE",
"296 542 OFFCURVE",
"282 542 CURVE SMOOTH"
);
}
);
width = 330;
},
{
anchors = (
{
name = bottom;
position = "{82, 0}";
},
{
name = top;
position = "{128, 530}";
}
);
layerId = "4375068D-FDA0-47DA-A897-61BBB4269C7B";
name = Light;
paths = (
{
closed = 1;
nodes = (
"71 526 LINE",
"71 0 LINE",
"93 0 LINE",
"93 526 LINE"
);
},
{
closed = 1;
nodes = (
"184 540 OFFCURVE",
"142 515 OFFCURVE",
"114 473 CURVE",
"89 401 LINE",
"93 288 LINE",
"93 462 OFFCURVE",
"160 527 OFFCURVE",
"256 519 CURVE",
"256 539 LINE",
"249 540 OFFCURVE",
"241 540 OFFCURVE",
"233 540 CURVE SMOOTH"
);
}
);
width = 257;
},
{
anchors = (
{
name = bottom;
position = "{144, 0}";
},
{
name = top;
position = "{213, 530}";
}
);
layerId = "F37E1481-2EA3-4843-874F-9D06DA6D7C4C";
name = Bold;
paths = (
{
closed = 1;
nodes = (
"54 534 LINE",
"54 0 LINE",
"234 0 LINE",
"234 534 LINE"
);
},
{
closed = 1;
nodes = (
"343 548 OFFCURVE",
"301 533 OFFCURVE",
"272 501 CURVE",
"230 418 LINE",
"234 196 LINE",
"234 357 OFFCURVE",
"283 407 OFFCURVE",
"418 398 CURVE",
"418 545 LINE",
"405 547 OFFCURVE",
"394 548 OFFCURVE",
"377 548 CURVE SMOOTH"
);
}
);
width = 420;
}
);
leftKerningGroup = n;
leftMetricsKey = n;
rightKerningGroup = r;
unicode = 0072;
},
{
glyphname = s;
lastChange = "2014-04-12 01:45:38 +0900";
layers = (
{
anchors = (
{
name = bottom;
position = "{240, 0}";
},
{
name = top;
position = "{232, 530}";
}
);
hints = (
{
origin = "{0, 2}";
target = "{0, 27}";
},
{
origin = "{0, 15}";
target = "{0, 14}";
},
{
origin = "{0, 8}";
target = "{0, 21}";
},
{
origin = "{0, 33}";
target = "{0, 34}";
},
{
horizontal = 1;
origin = "{0, 37}";
target = "{0, 30}";
},
{
horizontal = 1;
origin = "{0, 18}";
target = "{0, 11}";
}
);
layerId = "518735FF-A855-4455-BD68-071AC00DFA4E";
name = Regular;
paths = (
{
closed = 1;
nodes = (
"119 544 OFFCURVE",
"45 486 OFFCURVE",
"45 389 CURVE SMOOTH",
"45 296 OFFCURVE",
"121 257 OFFCURVE",
"216 231 CURVE SMOOTH",
"305 207 OFFCURVE",
"341 180 OFFCURVE",
"341 129 CURVE SMOOTH",
"341 78 OFFCURVE",
"295 52 OFFCURVE",
"238 52 CURVE SMOOTH",
"177 52 OFFCURVE",
"128 79 OFFCURVE",
"114 156 CURVE",
"24 156 LINE",
"40 36 OFFCURVE",
"123 -14 OFFCURVE",
"232 -14 CURVE SMOOTH",
"344 -14 OFFCURVE",
"429 36 OFFCURVE",
"429 136 CURVE SMOOTH",
"429 226 OFFCURVE",
"371 274 OFFCURVE",
"249 306 CURVE SMOOTH",
"177 325 OFFCURVE",
"133 346 OFFCURVE",
"133 399 CURVE SMOOTH",
"133 445 OFFCURVE",
"161 478 OFFCURVE",
"221 478 CURVE SMOOTH",
"283 478 OFFCURVE",
"321 441 OFFCURVE",
"333 379 CURVE",
"423 379 LINE",
"412 476 OFFCURVE",
"347 544 OFFCURVE",
"228 544 CURVE SMOOTH"
);
}
);
width = 459;
},
{
anchors = (
{
name = bottom;
position = "{223, 0}";
},
{
name = top;
position = "{213, 530}";
}
);
layerId = "4375068D-FDA0-47DA-A897-61BBB4269C7B";
name = Light;
paths = (
{
closed = 1;
nodes = (
"119 540 OFFCURVE",
"51 479 OFFCURVE",
"51 398 CURVE SMOOTH",
"51 309 OFFCURVE",
"124 275 OFFCURVE",
"207 256 CURVE SMOOTH",
"333 227 OFFCURVE",
"375 196 OFFCURVE",
"375 123 CURVE SMOOTH",
"375 47 OFFCURVE",
"306 7 OFFCURVE",
"223 7 CURVE SMOOTH",
"135 7 OFFCURVE",
"65 45 OFFCURVE",
"48 156 CURVE",
"26 156 LINE",
"39 36 OFFCURVE",
"123 -14 OFFCURVE",
"221 -14 CURVE SMOOTH",
"324 -14 OFFCURVE",
"398 40 OFFCURVE",
"398 124 CURVE SMOOTH",
"398 212 OFFCURVE",
"338 250 OFFCURVE",
"217 277 CURVE SMOOTH",
"133 296 OFFCURVE",
"74 325 OFFCURVE",
"74 399 CURVE SMOOTH",
"74 476 OFFCURVE",
"141 519 OFFCURVE",
"214 519 CURVE SMOOTH",
"300 519 OFFCURVE",
"349 475 OFFCURVE",
"371 383 CURVE",
"393 383 LINE",
"379 470 OFFCURVE",
"324 540 OFFCURVE",
"215 540 CURVE SMOOTH"
);
}
);
width = 435;
},
{
anchors = (
{
name = bottom;
position = "{269, 0}";
},
{
name = top;
position = "{269, 530}";
}
);
layerId = "F37E1481-2EA3-4843-874F-9D06DA6D7C4C";
name = Bold;
paths = (
{
closed = 1;
nodes = (
"132 548 OFFCURVE",
"40 482 OFFCURVE",
"40 376 CURVE SMOOTH",
"40 285 OFFCURVE",
"101 238 OFFCURVE",
"203 214 CURVE SMOOTH",
"298 192 OFFCURVE",
"332 173 OFFCURVE",
"332 139 CURVE SMOOTH",
"332 111 OFFCURVE",
"307 98 OFFCURVE",
"275 98 CURVE SMOOTH",
"237 98 OFFCURVE",
"205 125 OFFCURVE",
"195 166 CURVE",
"18 166 LINE",
"32 46 OFFCURVE",
"131 -14 OFFCURVE",
"276 -14 CURVE SMOOTH",
"405 -14 OFFCURVE",
"512 39 OFFCURVE",
"512 153 CURVE SMOOTH",
"512 256 OFFCURVE",
"443 298 OFFCURVE",
"346 322 CURVE SMOOTH",
"244 347 OFFCURVE",
"220 367 OFFCURVE",
"220 397 CURVE SMOOTH",
"220 420 OFFCURVE",
"238 436 OFFCURVE",
"263 436 CURVE SMOOTH",
"295 436 OFFCURVE",
"313 415 OFFCURVE",
"321 378 CURVE",
"498 378 LINE",
"484 475 OFFCURVE",
"407 548 OFFCURVE",
"274 548 CURVE SMOOTH"
);
}
);
width = 528;
}
);
leftKerningGroup = s;
rightKerningGroup = s;
unicode = 0073;
},
{
glyphname = germandbls;
lastChange = "2014-04-12 01:45:38 +0900";
layers = (
{
layerId = "518735FF-A855-4455-BD68-071AC00DFA4E";
name = Regular;
paths = (
{
closed = 1;
nodes = (
"184 754 OFFCURVE",
"84 687 OFFCURVE",
"76 544 CURVE SMOOTH",
"75 526 OFFCURVE",
"74 500 OFFCURVE",
"74 480 CURVE SMOOTH",
"74 0 LINE",
"160 0 LINE",
"160 488 LINE SMOOTH",
"160 509 OFFCURVE",
"161 528 OFFCURVE",
"162 542 CURVE SMOOTH",
"169 638 OFFCURVE",
"227 686 OFFCURVE",
"302 686 CURVE SMOOTH",
"388 686 OFFCURVE",
"430 644 OFFCURVE",
"430 578 CURVE SMOOTH",
"430 555 OFFCURVE",
"426 538 OFFCURVE",
"412 514 CURVE",
"349 483 OFFCURVE",
"322 445 OFFCURVE",
"322 398 CURVE SMOOTH",
"322 341 OFFCURVE",
"346 311 OFFCURVE",
"408 257 CURVE SMOOTH",
"462 210 OFFCURVE",
"472 182 OFFCURVE",
"472 149 CURVE SMOOTH",
"472 97 OFFCURVE",
"442 62 OFFCURVE",
"376 62 CURVE SMOOTH",
"354 62 OFFCURVE",
"326 64 OFFCURVE",
"282 75 CURVE",
"282 6 LINE",
"321 -2 OFFCURVE",
"347 -4 OFFCURVE",
"380 -4 CURVE SMOOTH",
"483 -4 OFFCURVE",
"568 50 OFFCURVE",
"568 142 CURVE SMOOTH",
"568 214 OFFCURVE",
"541 255 OFFCURVE",
"483 302 CURVE SMOOTH",
"437 340 OFFCURVE",
"418 362 OFFCURVE",
"418 398 CURVE SMOOTH",
"418 425 OFFCURVE",
"444 449 OFFCURVE",
"495 476 CURVE",
"518 513 OFFCURVE",
"526 550 OFFCURVE",
"526 579 CURVE SMOOTH",
"526 684 OFFCURVE",
"442 754 OFFCURVE",
"306 754 CURVE SMOOTH"
);
}
);
width = 608;
},
{
layerId = "4375068D-FDA0-47DA-A897-61BBB4269C7B";
name = Light;
paths = (
{
closed = 1;
nodes = (
"165 754 OFFCURVE",
"80 681 OFFCURVE",
"73 554 CURVE SMOOTH",
"72 536 OFFCURVE",
"71 510 OFFCURVE",
"71 490 CURVE SMOOTH",
"71 0 LINE",
"93 0 LINE",
"93 492 LINE SMOOTH",
"93 519 OFFCURVE",
"94 538 OFFCURVE",
"95 552 CURVE SMOOTH",
"103 668 OFFCURVE",
"176 733 OFFCURVE",
"272 733 CURVE SMOOTH",
"359 733 OFFCURVE",
"429 681 OFFCURVE",
"429 588 CURVE SMOOTH",
"429 560 OFFCURVE",
"422 530 OFFCURVE",
"407 506 CURVE",
"342 472 OFFCURVE",
"307 445 OFFCURVE",
"307 393 CURVE SMOOTH",
"307 349 OFFCURVE",
"319 323 OFFCURVE",
"378 269 CURVE SMOOTH",
"446 206 OFFCURVE",
"464 173 OFFCURVE",
"464 129 CURVE SMOOTH",
"464 57 OFFCURVE",
"404 17 OFFCURVE",
"312 17 CURVE SMOOTH",
"279 17 OFFCURVE",
"244 20 OFFCURVE",
"204 29 CURVE",
"204 6 LINE",
"243 -2 OFFCURVE",
"279 -4 OFFCURVE",
"312 -4 CURVE SMOOTH",
"423 -4 OFFCURVE",
"488 46 OFFCURVE",
"488 132 CURVE SMOOTH",
"488 186 OFFCURVE",
"456 232 OFFCURVE",
"390 290 CURVE SMOOTH",
"344 330 OFFCURVE",
"331 357 OFFCURVE",
"331 393 CURVE SMOOTH",
"331 435 OFFCURVE",
"363 459 OFFCURVE",
"420 486 CURVE",
"445 523 OFFCURVE",
"453 553 OFFCURVE",
"453 589 CURVE SMOOTH",
"453 694 OFFCURVE",
"370 754 OFFCURVE",
"275 754 CURVE SMOOTH"
);
}
);
width = 533;
},
{
layerId = "F37E1481-2EA3-4843-874F-9D06DA6D7C4C";
name = Bold;
paths = (
{
closed = 1;
nodes = (
"166 754 OFFCURVE",
"65 671 OFFCURVE",
"56 534 CURVE SMOOTH",
"55 516 OFFCURVE",
"54 490 OFFCURVE",
"54 430 CURVE SMOOTH",
"54 0 LINE",
"234 0 LINE",
"234 438 LINE SMOOTH",
"234 499 OFFCURVE",
"235 518 OFFCURVE",
"236 532 CURVE SMOOTH",
"240 588 OFFCURVE",
"270 622 OFFCURVE",
"329 622 CURVE SMOOTH",
"386 622 OFFCURVE",
"413 599 OFFCURVE",
"413 558 CURVE SMOOTH",
"413 542 OFFCURVE",
"410 527 OFFCURVE",
"400 514 CURVE",
"353 484 OFFCURVE",
"332 448 OFFCURVE",
"332 398 CURVE SMOOTH",
"332 341 OFFCURVE",
"356 311 OFFCURVE",
"408 257 CURVE SMOOTH",
"438 226 OFFCURVE",
"452 202 OFFCURVE",
"452 175 CURVE SMOOTH",
"452 145 OFFCURVE",
"432 128 OFFCURVE",
"396 128 CURVE SMOOTH",
"374 128 OFFCURVE",
"346 130 OFFCURVE",
"302 141 CURVE",
"302 6 LINE",
"341 -2 OFFCURVE",
"367 -4 OFFCURVE",
"440 -4 CURVE SMOOTH",
"543 -4 OFFCURVE",
"640 46 OFFCURVE",
"640 152 CURVE SMOOTH",
"640 228 OFFCURVE",
"620 257 OFFCURVE",
"568 312 CURVE SMOOTH",
"535 347 OFFCURVE",
"520 371 OFFCURVE",
"520 398 CURVE SMOOTH",
"520 430 OFFCURVE",
"535 453 OFFCURVE",
"575 476 CURVE",
"592 501 OFFCURVE",
"601 525 OFFCURVE",
"601 560 CURVE SMOOTH",
"601 675 OFFCURVE",
"504 754 OFFCURVE",
"335 754 CURVE SMOOTH"
);
}
);
width = 666;
}
);
leftMetricsKey = h;
unicode = 00DF;
},
{
glyphname = t;
lastChange = "2014-04-12 01:45:39 +0900";
layers = (
{
anchors = (
{
name = bottom;
position = "{174, 0}";
},
{
name = center;
position = "{152, 265}";
}
);
layerId = "518735FF-A855-4455-BD68-071AC00DFA4E";
name = Regular;
paths = (
{
closed = 1;
nodes = (
"91 649 LINE",
"91 151 LINE SMOOTH",
"91 121 OFFCURVE",
"91 99 OFFCURVE",
"92 85 CURVE SMOOTH",
"97 19 OFFCURVE",
"131 -8 OFFCURVE",
"197 -8 CURVE SMOOTH",
"221 -8 OFFCURVE",
"245 -7 OFFCURVE",
"270 -3 CURVE",
"270 60 LINE",
"203 52 OFFCURVE",
"182 63 OFFCURVE",
"178 114 CURVE SMOOTH",
"177 128 OFFCURVE",
"177 137 OFFCURVE",
"177 155 CURVE SMOOTH",
"177 649 LINE"
);
},
{
closed = 1;
nodes = (
"20 526 LINE",
"20 460 LINE",
"276 460 LINE",
"276 526 LINE"
);
}
);
width = 313;
},
{
anchors = (
{
name = bottom;
position = "{157, 0}";
},
{
name = center;
position = "{119, 265}";
}
);
layerId = "4375068D-FDA0-47DA-A897-61BBB4269C7B";
name = Light;
paths = (
{
closed = 1;
nodes = (
"91 630 LINE",
"91 132 LINE SMOOTH",
"91 102 OFFCURVE",
"91 85 OFFCURVE",
"93 61 CURVE SMOOTH",
"97 15 OFFCURVE",
"122 -7 OFFCURVE",
"169 -7 CURVE SMOOTH",
"186 -7 OFFCURVE",
"206 -6 OFFCURVE",
"219 -4 CURVE",
"219 14 LINE",
"141 3 OFFCURVE",
"118 19 OFFCURVE",
"114 71 CURVE SMOOTH",
"113 85 OFFCURVE",
"113 100 OFFCURVE",
"113 128 CURVE SMOOTH",
"113 630 LINE"
);
},
{
closed = 1;
nodes = (
"28 522 LINE",
"28 504 LINE",
"216 504 LINE",
"216 522 LINE"
);
}
);
width = 236;
},
{
anchors = (
{
name = bottom;
position = "{226, 0}";
},
{
name = center;
position = "{196, 265}";
}
);
layerId = "F37E1481-2EA3-4843-874F-9D06DA6D7C4C";
name = Bold;
paths = (
{
closed = 1;
nodes = (
"90 668 LINE",
"90 195 LINE SMOOTH",
"90 165 OFFCURVE",
"90 140 OFFCURVE",
"92 109 CURVE SMOOTH",
"98 27 OFFCURVE",
"138 -14 OFFCURVE",
"271 -14 CURVE SMOOTH",
"309 -14 OFFCURVE",
"342 -11 OFFCURVE",
"377 -5 CURVE",
"377 107 LINE",
"292 103 OFFCURVE",
"275 115 OFFCURVE",
"271 169 CURVE SMOOTH",
"270 183 OFFCURVE",
"270 203 OFFCURVE",
"270 221 CURVE SMOOTH",
"270 668 LINE"
);
},
{
closed = 1;
nodes = (
"5 530 LINE",
"5 418 LINE",
"388 418 LINE",
"388 530 LINE"
);
}
);
width = 400;
}
);
leftKerningGroup = t;
rightKerningGroup = t;
unicode = 0074;
},
{
glyphname = u;
lastChange = "2014-04-12 01:45:39 +0900";
layers = (
{
anchors = (
{
name = ogonek;
position = "{428, 0}";
},
{
name = top;
position = "{290, 530}";
}
);
layerId = "518735FF-A855-4455-BD68-071AC00DFA4E";
name = Regular;
paths = (
{
closed = 1;
nodes = (
"66 530 LINE",
"66 212 LINE SMOOTH",
"66 169 OFFCURVE",
"67 148 OFFCURVE",
"71 121 CURVE SMOOTH",
"83 48 OFFCURVE",
"147 -14 OFFCURVE",
"257 -14 CURVE SMOOTH",
"311 -14 OFFCURVE",
"350 -5 OFFCURVE",
"395 28 CURVE",
"432 98 LINE",
"428 297 LINE",
"428 116 OFFCURVE",
"362 54 OFFCURVE",
"279 54 CURVE SMOOTH",
"207 54 OFFCURVE",
"164 95 OFFCURVE",
"156 155 CURVE SMOOTH",
"153 182 OFFCURVE",
"152 211 OFFCURVE",
"152 228 CURVE SMOOTH",
"152 530 LINE"
);
},
{
closed = 1;
nodes = (
"428 530 LINE",
"428 0 LINE",
"514 0 LINE",
"514 530 LINE"
);
}
);
width = 592;
},
{
anchors = (
{
name = ogonek;
position = "{433, 0}";
},
{
name = top;
position = "{258, 530}";
}
);
layerId = "4375068D-FDA0-47DA-A897-61BBB4269C7B";
name = Light;
paths = (
{
closed = 1;
nodes = (
"62 526 LINE",
"62 234 LINE SMOOTH",
"62 191 OFFCURVE",
"63 175 OFFCURVE",
"66 148 CURVE SMOOTH",
"77 45 OFFCURVE",
"141 -14 OFFCURVE",
"247 -14 CURVE SMOOTH",
"312 -14 OFFCURVE",
"373 13 OFFCURVE",
"412 68 CURVE",
"437 130 LINE",
"433 214 LINE",
"433 74 OFFCURVE",
"343 7 OFFCURVE",
"247 7 CURVE SMOOTH",
"147 7 OFFCURVE",
"98 67 OFFCURVE",
"88 156 CURVE SMOOTH",
"85 183 OFFCURVE",
"84 206 OFFCURVE",
"84 243 CURVE SMOOTH",
"84 526 LINE"
);
},
{
closed = 1;
nodes = (
"433 526 LINE",
"433 0 LINE",
"455 0 LINE",
"455 526 LINE"
);
}
);
width = 526;
},
{
anchors = (
{
name = ogonek;
position = "{406, 0}";
},
{
name = top;
position = "{315, 530}";
}
);
layerId = "F37E1481-2EA3-4843-874F-9D06DA6D7C4C";
name = Bold;
paths = (
{
closed = 1;
nodes = (
"44 534 LINE",
"44 222 LINE SMOOTH",
"44 179 OFFCURVE",
"45 148 OFFCURVE",
"49 121 CURVE SMOOTH",
"61 48 OFFCURVE",
"128 -14 OFFCURVE",
"238 -14 CURVE SMOOTH",
"287 -14 OFFCURVE",
"325 -3 OFFCURVE",
"358 17 CURVE",
"410 96 LINE",
"406 232 LINE",
"406 161 OFFCURVE",
"372 108 OFFCURVE",
"315 108 CURVE SMOOTH",
"258 108 OFFCURVE",
"234 138 OFFCURVE",
"228 189 CURVE SMOOTH",
"225 216 OFFCURVE",
"224 245 OFFCURVE",
"224 262 CURVE SMOOTH",
"224 534 LINE"
);
},
{
closed = 1;
nodes = (
"406 534 LINE",
"406 0 LINE",
"586 0 LINE",
"586 534 LINE"
);
}
);
width = 640;
}
);
leftKerningGroup = u;
rightKerningGroup = u;
rightMetricsKey = d;
unicode = 0075;
},
{
glyphname = v;
lastChange = "2014-04-12 01:45:38 +0900";
layers = (
{
layerId = "518735FF-A855-4455-BD68-071AC00DFA4E";
name = Regular;
paths = (
{
closed = 1;
nodes = (
"417 530 LINE",
"249 38 LINE",
"266 39 LINE",
"96 530 LINE",
"1 530 LINE",
"202 0 LINE",
"307 0 LINE",
"508 530 LINE"
);
}
);
width = 514;
},
{
layerId = "4375068D-FDA0-47DA-A897-61BBB4269C7B";
name = Light;
paths = (
{
closed = 1;
nodes = (
"435 526 LINE",
"235 15 LINE",
"238 15 LINE",
"38 526 LINE",
"13 526 LINE",
"221 0 LINE",
"252 0 LINE",
"460 526 LINE"
);
}
);
width = 468;
},
{
layerId = "F37E1481-2EA3-4843-874F-9D06DA6D7C4C";
name = Bold;
paths = (
{
closed = 1;
nodes = (
"419 534 LINE",
"284 48 LINE",
"337 49 LINE",
"200 534 LINE",
"0 534 LINE",
"211 0 LINE",
"405 0 LINE",
"616 534 LINE"
);
}
);
width = 608;
}
);
unicode = 0076;
},
{
glyphname = w;
lastChange = "2014-04-12 01:45:38 +0900";
layers = (
{
anchors = (
{
name = top;
position = "{392, 530}";
}
);
layerId = "518735FF-A855-4455-BD68-071AC00DFA4E";
name = Regular;
paths = (
{
closed = 1;
nodes = (
"687 530 LINE",
"545 15 LINE",
"583 15 LINE",
"446 530 LINE",
"339 530 LINE",
"205 15 LINE",
"241 15 LINE",
"100 530 LINE",
"1 530 LINE",
"170 0 LINE",
"272 0 LINE",
"402 491 LINE",
"378 491 LINE",
"508 0 LINE",
"610 0 LINE",
"779 530 LINE"
);
}
);
width = 785;
},
{
anchors = (
{
name = top;
position = "{363, 530}";
}
);
layerId = "4375068D-FDA0-47DA-A897-61BBB4269C7B";
name = Light;
paths = (
{
closed = 1;
nodes = (
"684 526 LINE",
"527 17 LINE",
"532 17 LINE",
"379 524 LINE",
"348 524 LINE",
"196 17 LINE",
"199 17 LINE",
"38 526 LINE",
"13 526 LINE",
"180 0 LINE",
"214 0 LINE",
"366 506 LINE",
"362 506 LINE",
"514 0 LINE",
"542 0 LINE",
"708 526 LINE"
);
}
);
width = 716;
},
{
anchors = (
{
name = top;
position = "{438, 530}";
}
);
layerId = "F37E1481-2EA3-4843-874F-9D06DA6D7C4C";
name = Bold;
paths = (
{
closed = 1;
nodes = (
"682 534 LINE",
"591 25 LINE",
"636 25 LINE",
"546 530 LINE",
"332 530 LINE",
"246 25 LINE",
"291 25 LINE",
"198 534 LINE",
"0 534 LINE",
"169 0 LINE",
"370 0 LINE",
"460 477 LINE",
"416 477 LINE",
"506 0 LINE",
"707 0 LINE",
"876 534 LINE"
);
}
);
width = 868;
}
);
leftKerningGroup = w;
leftMetricsKey = v;
rightKerningGroup = w;
rightMetricsKey = v;
unicode = 0077;
},
{
glyphname = x;
lastChange = "2014-04-12 01:45:38 +0900";
layers = (
{
layerId = "518735FF-A855-4455-BD68-071AC00DFA4E";
name = Regular;
paths = (
{
closed = 1;
nodes = (
"369 530 LINE",
"236 325 LINE",
"103 530 LINE",
"1 530 LINE",
"184 268 LINE",
"-6 0 LINE",
"93 0 LINE",
"231 213 LINE",
"370 0 LINE",
"470 0 LINE",
"282 270 LINE",
"468 530 LINE"
);
}
);
width = 482;
},
{
layerId = "4375068D-FDA0-47DA-A897-61BBB4269C7B";
name = Light;
paths = (
{
closed = 1;
nodes = (
"377 526 LINE",
"205 280 LINE",
"37 526 LINE",
"11 526 LINE",
"190 264 LINE",
"3 0 LINE",
"30 0 LINE",
"205 249 LINE",
"376 0 LINE",
"404 0 LINE",
"218 264 LINE",
"404 526 LINE"
);
}
);
width = 417;
},
{
layerId = "F37E1481-2EA3-4843-874F-9D06DA6D7C4C";
name = Bold;
paths = (
{
closed = 1;
nodes = (
"382 534 LINE",
"300 380 LINE",
"216 534 LINE",
"6 534 LINE",
"185 271 LINE",
"-1 0 LINE",
"206 0 LINE",
"296 161 LINE",
"381 0 LINE",
"591 0 LINE",
"407 269 LINE",
"589 534 LINE"
);
}
);
width = 590;
}
);
unicode = 0078;
},
{
glyphname = y;
lastChange = "2014-04-12 01:45:38 +0900";
layers = (
{
anchors = (
{
name = top;
position = "{257, 530}";
}
);
layerId = "518735FF-A855-4455-BD68-071AC00DFA4E";
name = Regular;
paths = (
{
closed = 1;
nodes = (
"413 530 LINE",
"242 21 LINE",
"271 21 LINE",
"98 530 LINE",
"1 530 LINE",
"235 -86 LINE",
"228 14 LINE",
"205 -46 LINE SMOOTH",
"178 -116 OFFCURVE",
"143 -139 OFFCURVE",
"90 -139 CURVE SMOOTH",
"81 -139 OFFCURVE",
"72 -139 OFFCURVE",
"59 -138 CURVE",
"59 -208 LINE",
"72 -210 OFFCURVE",
"84 -210 OFFCURVE",
"103 -210 CURVE SMOOTH",
"189 -210 OFFCURVE",
"246 -157 OFFCURVE",
"289 -45 CURVE SMOOTH",
"507 530 LINE"
);
}
);
width = 513;
},
{
anchors = (
{
name = top;
position = "{230, 530}";
}
);
layerId = "4375068D-FDA0-47DA-A897-61BBB4269C7B";
name = Light;
paths = (
{
closed = 1;
nodes = (
"424 526 LINE",
"229 13 LINE",
"233 13 LINE",
"38 526 LINE",
"13 526 LINE",
"227 -29 LINE",
"223 -1 LINE",
"202 -52 LINE SMOOTH",
"157 -162 OFFCURVE",
"119 -190 OFFCURVE",
"79 -190 CURVE SMOOTH",
"66 -190 OFFCURVE",
"53 -189 OFFCURVE",
"40 -186 CURVE",
"40 -206 LINE",
"51 -209 OFFCURVE",
"61 -210 OFFCURVE",
"75 -210 CURVE SMOOTH",
"133 -210 OFFCURVE",
"175 -185 OFFCURVE",
"246 0 CURVE SMOOTH",
"449 526 LINE"
);
}
);
width = 457;
},
{
anchors = (
{
name = top;
position = "{299, 530}";
}
);
layerId = "F37E1481-2EA3-4843-874F-9D06DA6D7C4C";
name = Bold;
paths = (
{
closed = 1;
nodes = (
"419 534 LINE",
"284 48 LINE",
"337 49 LINE",
"200 534 LINE",
"0 534 LINE",
"225 -34 LINE",
"239 15 LINE",
"214 -39 LINE SMOOTH",
"197 -77 OFFCURVE",
"168 -91 OFFCURVE",
"126 -91 CURVE SMOOTH",
"108 -91 OFFCURVE",
"92 -91 OFFCURVE",
"77 -89 CURVE",
"77 -205 LINE",
"103 -209 OFFCURVE",
"124 -210 OFFCURVE",
"153 -210 CURVE SMOOTH",
"280 -210 OFFCURVE",
"338 -169 OFFCURVE",
"405 0 CURVE SMOOTH",
"616 534 LINE"
);
}
);
width = 608;
}
);
leftKerningGroup = y;
leftMetricsKey = v;
rightKerningGroup = y;
rightMetricsKey = v;
unicode = 0079;
},
{
glyphname = z;
lastChange = "2014-04-12 01:45:38 +0900";
layers = (
{
anchors = (
{
name = top;
position = "{230, 530}";
}
);
layerId = "518735FF-A855-4455-BD68-071AC00DFA4E";
name = Regular;
paths = (
{
closed = 1;
nodes = (
"42 526 LINE",
"42 458 LINE",
"349 458 LINE",
"349 485 LINE",
"20 66 LINE",
"20 0 LINE",
"433 0 LINE",
"433 68 LINE",
"101 68 LINE",
"101 41 LINE",
"428 457 LINE",
"428 526 LINE"
);
}
);
width = 462;
},
{
anchors = (
{
name = top;
position = "{222, 530}";
}
);
layerId = "4375068D-FDA0-47DA-A897-61BBB4269C7B";
name = Light;
paths = (
{
closed = 1;
nodes = (
"40 518 LINE",
"40 497 LINE",
"398 497 LINE",
"398 507 LINE",
"13 18 LINE",
"13 0 LINE",
"422 0 LINE",
"422 19 LINE",
"35 19 LINE",
"35 11 LINE",
"419 498 LINE",
"419 518 LINE"
);
}
);
width = 444;
},
{
anchors = (
{
name = top;
position = "{276, 530}";
}
);
layerId = "F37E1481-2EA3-4843-874F-9D06DA6D7C4C";
name = Bold;
paths = (
{
closed = 1;
nodes = (
"49 530 LINE",
"49 418 LINE",
"365 418 LINE",
"365 489 LINE",
"34 105 LINE",
"34 0 LINE",
"497 0 LINE",
"497 112 LINE",
"115 112 LINE",
"165 41 LINE",
"494 420 LINE",
"494 530 LINE"
);
}
);
width = 526;
}
);
leftKerningGroup = z;
rightKerningGroup = z;
unicode = 007A;
},
{
glyphname = fi;
lastChange = "2014-08-19 21:23:55 +0900";
layers = (
{
layerId = "4375068D-FDA0-47DA-A897-61BBB4269C7B";
name = Light;
paths = (
{
closed = 1;
nodes = (
"154 754 OFFCURVE",
"91 695 OFFCURVE",
"84 619 CURVE SMOOTH",
"82 598 OFFCURVE",
"82 581 OFFCURVE",
"82 566 CURVE SMOOTH",
"82 0 LINE",
"104 0 LINE",
"104 566 LINE SMOOTH",
"104 581 OFFCURVE",
"104 594 OFFCURVE",
"106 616 CURVE SMOOTH",
"112 684 OFFCURVE",
"169 746 OFFCURVE",
"303 728 CURVE",
"303 749 LINE",
"285 753 OFFCURVE",
"276 754 OFFCURVE",
"256 754 CURVE SMOOTH"
);
},
{
closed = 1;
nodes = (
"303 522 LINE",
"303 0 LINE",
"325 0 LINE",
"325 522 LINE"
);
},
{
closed = 1;
nodes = (
"25 522 LINE",
"25 501 LINE",
"311 501 LINE",
"311 522 LINE"
);
}
);
width = 396;
},
{
layerId = "518735FF-A855-4455-BD68-071AC00DFA4E";
name = Regular;
paths = (
{
closed = 1;
nodes = (
"158 754 OFFCURVE",
"92 701 OFFCURVE",
"81 604 CURVE SMOOTH",
"79 586 OFFCURVE",
"78 560 OFFCURVE",
"78 540 CURVE SMOOTH",
"78 0 LINE",
"164 0 LINE",
"164 548 LINE SMOOTH",
"164 563 OFFCURVE",
"165 588 OFFCURVE",
"167 602 CURVE SMOOTH",
"176 665 OFFCURVE",
"225 689 OFFCURVE",
"358 678 CURVE",
"358 749 LINE",
"340 752 OFFCURVE",
"319 754 OFFCURVE",
"297 754 CURVE SMOOTH"
);
},
{
closed = 1;
nodes = (
"358 526 LINE",
"358 0 LINE",
"444 0 LINE",
"444 526 LINE"
);
},
{
closed = 1;
nodes = (
"21 526 LINE",
"21 460 LINE",
"373 460 LINE",
"373 526 LINE"
);
}
);
width = 522;
},
{
layerId = "F37E1481-2EA3-4843-874F-9D06DA6D7C4C";
name = Bold;
paths = (
{
closed = 1;
nodes = (
"147 754 OFFCURVE",
"85 692 OFFCURVE",
"77 592 CURVE SMOOTH",
"76 574 OFFCURVE",
"76 550 OFFCURVE",
"76 534 CURVE SMOOTH",
"76 0 LINE",
"256 0 LINE",
"256 534 LINE SMOOTH",
"256 547 OFFCURVE",
"256 560 OFFCURVE",
"257 574 CURVE SMOOTH",
"262 621 OFFCURVE",
"297 637 OFFCURVE",
"432 629 CURVE",
"432 746 LINE",
"404 751 OFFCURVE",
"383 754 OFFCURVE",
"342 754 CURVE SMOOTH"
);
},
{
closed = 1;
nodes = (
"432 530 LINE",
"432 0 LINE",
"612 0 LINE",
"612 530 LINE"
);
},
{
closed = 1;
nodes = (
"19 530 LINE",
"19 418 LINE",
"455 418 LINE",
"455 530 LINE"
);
}
);
width = 666;
}
);
leftKerningGroup = f;
leftMetricsKey = f;
rightKerningGroup = i;
rightMetricsKey = dotlessi;
unicode = FB01;
},
{
glyphname = fl;
lastChange = "2014-04-12 02:00:09 +0900";
layers = (
{
layerId = "4375068D-FDA0-47DA-A897-61BBB4269C7B";
name = Light;
paths = (
{
closed = 1;
nodes = (
"126 754 OFFCURVE",
"81 695 OFFCURVE",
"74 619 CURVE SMOOTH",
"72 598 OFFCURVE",
"72 581 OFFCURVE",
"72 566 CURVE SMOOTH",
"72 0 LINE",
"94 0 LINE",
"94 566 LINE SMOOTH",
"94 581 OFFCURVE",
"94 594 OFFCURVE",
"96 616 CURVE SMOOTH",
"101 676 OFFCURVE",
"133 733 OFFCURVE",
"217 733 CURVE SMOOTH",
"244 733 OFFCURVE",
"263 728 OFFCURVE",
"276 719 CURVE",
"295 735 LINE",
"277 747 OFFCURVE",
"249 754 OFFCURVE",
"216 754 CURVE SMOOTH"
);
},
{
closed = 1;
nodes = (
"25 522 LINE",
"25 501 LINE",
"201 501 LINE",
"201 522 LINE"
);
},
{
closed = 1;
nodes = (
"273 735 LINE",
"273 120 LINE SMOOTH",
"273 82 OFFCURVE",
"273 66 OFFCURVE",
"274 46 CURVE SMOOTH",
"276 6 OFFCURVE",
"296 -5 OFFCURVE",
"323 -5 CURVE SMOOTH",
"333 -5 OFFCURVE",
"342 -5 OFFCURVE",
"352 -3 CURVE",
"352 16 LINE",
"311 11 OFFCURVE",
"298 18 OFFCURVE",
"296 51 CURVE SMOOTH",
"295 65 OFFCURVE",
"295 85 OFFCURVE",
"295 120 CURVE SMOOTH",
"295 735 LINE"
);
}
);
width = 378;
},
{
layerId = "518735FF-A855-4455-BD68-071AC00DFA4E";
name = Regular;
paths = (
{
closed = 1;
nodes = (
"148 754 OFFCURVE",
"82 701 OFFCURVE",
"71 604 CURVE SMOOTH",
"69 586 OFFCURVE",
"68 560 OFFCURVE",
"68 540 CURVE SMOOTH",
"68 0 LINE",
"154 0 LINE",
"154 548 LINE SMOOTH",
"154 563 OFFCURVE",
"155 588 OFFCURVE",
"157 602 CURVE SMOOTH",
"164 651 OFFCURVE",
"195 688 OFFCURVE",
"263 688 CURVE SMOOTH",
"292 688 OFFCURVE",
"318 686 OFFCURVE",
"340 680 CURVE",
"418 735 LINE",
"378 748 OFFCURVE",
"329 754 OFFCURVE",
"267 754 CURVE SMOOTH"
);
},
{
closed = 1;
nodes = (
"21 526 LINE",
"21 460 LINE",
"263 460 LINE",
"263 526 LINE"
);
},
{
closed = 1;
nodes = (
"332 735 LINE",
"332 149 LINE SMOOTH",
"332 120 OFFCURVE",
"332 97 OFFCURVE",
"333 79 CURVE SMOOTH",
"336 12 OFFCURVE",
"373 -4 OFFCURVE",
"423 -4 CURVE SMOOTH",
"443 -4 OFFCURVE",
"465 -3 OFFCURVE",
"484 0 CURVE",
"484 63 LINE",
"437 57 OFFCURVE",
"421 68 OFFCURVE",
"419 102 CURVE SMOOTH",
"418 119 OFFCURVE",
"418 136 OFFCURVE",
"418 152 CURVE SMOOTH",
"418 735 LINE"
);
}
);
width = 509;
},
{
layerId = "F37E1481-2EA3-4843-874F-9D06DA6D7C4C";
name = Bold;
paths = (
{
closed = 1;
nodes = (
"147 754 OFFCURVE",
"75 682 OFFCURVE",
"67 582 CURVE SMOOTH",
"66 564 OFFCURVE",
"66 550 OFFCURVE",
"66 534 CURVE SMOOTH",
"66 0 LINE",
"246 0 LINE",
"246 534 LINE SMOOTH",
"246 547 OFFCURVE",
"246 560 OFFCURVE",
"247 574 CURVE SMOOTH",
"251 613 OFFCURVE",
"286 632 OFFCURVE",
"362 632 CURVE SMOOTH",
"393 632 OFFCURVE",
"409 630 OFFCURVE",
"437 620 CURVE",
"602 723 LINE",
"544 742 OFFCURVE",
"463 754 OFFCURVE",
"362 754 CURVE SMOOTH"
);
},
{
closed = 1;
nodes = (
"19 530 LINE",
"19 418 LINE",
"355 418 LINE",
"355 530 LINE"
);
},
{
closed = 1;
nodes = (
"422 735 LINE",
"422 189 LINE SMOOTH",
"422 149 OFFCURVE",
"422 122 OFFCURVE",
"424 94 CURVE SMOOTH",
"428 23 OFFCURVE",
"475 -10 OFFCURVE",
"548 -10 CURVE SMOOTH",
"588 -10 OFFCURVE",
"625 -8 OFFCURVE",
"663 -4 CURVE",
"663 107 LINE",
"623 105 OFFCURVE",
"608 112 OFFCURVE",
"604 143 CURVE SMOOTH",
"602 156 OFFCURVE",
"602 167 OFFCURVE",
"602 192 CURVE SMOOTH",
"602 723 LINE"
);
}
);
width = 677;
}
);
leftKerningGroup = f;
leftMetricsKey = f;
rightKerningGroup = l;
rightMetricsKey = l;
unicode = FB02;
},
{
export = 0;
glyphname = s_t;
lastChange = "2014-04-12 01:45:32 +0900";
layers = (
{
hints = (
{
origin = "{0, 2}";
target = "{0, 27}";
},
{
origin = "{0, 15}";
target = "{0, 14}";
},
{
origin = "{0, 8}";
target = "{0, 21}";
},
{
origin = "{0, 33}";
target = "{0, 34}";
},
{
horizontal = 1;
origin = "{0, 37}";
target = "{0, 30}";
},
{
horizontal = 1;
origin = "{0, 18}";
target = "{0, 11}";
}
);
layerId = "518735FF-A855-4455-BD68-071AC00DFA4E";
name = Regular;
paths = (
{
closed = 1;
nodes = (
"119 544 OFFCURVE",
"45 486 OFFCURVE",
"45 389 CURVE SMOOTH",
"45 296 OFFCURVE",
"121 257 OFFCURVE",
"216 231 CURVE SMOOTH",
"305 207 OFFCURVE",
"341 180 OFFCURVE",
"341 129 CURVE SMOOTH",
"341 78 OFFCURVE",
"295 52 OFFCURVE",
"238 52 CURVE SMOOTH",
"177 52 OFFCURVE",
"128 79 OFFCURVE",
"114 156 CURVE",
"24 156 LINE",
"40 36 OFFCURVE",
"123 -14 OFFCURVE",
"232 -14 CURVE SMOOTH",
"344 -14 OFFCURVE",
"429 36 OFFCURVE",
"429 136 CURVE SMOOTH",
"429 226 OFFCURVE",
"371 274 OFFCURVE",
"249 306 CURVE SMOOTH",
"177 325 OFFCURVE",
"133 346 OFFCURVE",
"133 399 CURVE SMOOTH",
"133 445 OFFCURVE",
"161 478 OFFCURVE",
"221 478 CURVE SMOOTH",
"283 478 OFFCURVE",
"321 441 OFFCURVE",
"333 379 CURVE",
"423 379 LINE",
"377 389 OFFCURVE",
"361 544 OFFCURVE",
"225 544 CURVE SMOOTH"
);
},
{
closed = 1;
nodes = (
"550 526 LINE",
"550 151 LINE SMOOTH",
"550 121 OFFCURVE",
"550 99 OFFCURVE",
"551 85 CURVE SMOOTH",
"556 19 OFFCURVE",
"590 -8 OFFCURVE",
"656 -8 CURVE SMOOTH",
"680 -8 OFFCURVE",
"704 -7 OFFCURVE",
"729 -3 CURVE",
"729 60 LINE",
"662 52 OFFCURVE",
"641 63 OFFCURVE",
"637 114 CURVE SMOOTH",
"636 128 OFFCURVE",
"636 137 OFFCURVE",
"636 155 CURVE SMOOTH",
"636 526 LINE"
);
},
{
closed = 1;
nodes = (
"382 721 OFFCURVE",
"296 670 OFFCURVE",
"296 558 CURVE SMOOTH",
"296 493 OFFCURVE",
"349 437 OFFCURVE",
"333 379 CURVE",
"423 379 LINE",
"420 400 OFFCURVE",
"410 435 OFFCURVE",
"398 459 CURVE SMOOTH",
"382 491 OFFCURVE",
"375 515 OFFCURVE",
"375 553 CURVE SMOOTH",
"375 618 OFFCURVE",
"416 653 OFFCURVE",
"467 653 CURVE SMOOTH",
"524 653 OFFCURVE",
"554 628 OFFCURVE",
"554 577 CURVE SMOOTH",
"554 560 OFFCURVE",
"552 538 OFFCURVE",
"550 526 CURVE",
"636 526 LINE",
"638 545 OFFCURVE",
"640 561 OFFCURVE",
"640 578 CURVE SMOOTH",
"640 666 OFFCURVE",
"590 721 OFFCURVE",
"475 721 CURVE SMOOTH"
);
},
{
closed = 1;
nodes = (
"479 526 LINE",
"479 460 LINE",
"735 460 LINE",
"735 526 LINE"
);
}
);
width = 772;
},
{
layerId = "4375068D-FDA0-47DA-A897-61BBB4269C7B";
name = Light;
width = 901;
},
{
layerId = "F37E1481-2EA3-4843-874F-9D06DA6D7C4C";
name = Bold;
width = 810;
}
);
leftKerningGroup = s;
leftMetricsKey = s;
rightKerningGroup = t;
rightMetricsKey = t;
},
{
glyphname = zero;
lastChange = "2014-04-12 01:45:39 +0900";
layers = (
{
layerId = "4375068D-FDA0-47DA-A897-61BBB4269C7B";
name = Light;
paths = (
{
closed = 1;
nodes = (
"265 683 LINE",
"418 683 OFFCURVE",
"470 535 OFFCURVE",
"470 345 CURVE SMOOTH",
"470 154 OFFCURVE",
"418 7 OFFCURVE",
"265 7 CURVE",
"265 -14 LINE",
"430 -14 OFFCURVE",
"494 134 OFFCURVE",
"494 345 CURVE SMOOTH",
"494 555 OFFCURVE",
"430 704 OFFCURVE",
"265 704 CURVE"
);
},
{
closed = 1;
nodes = (
"100 704 OFFCURVE",
"36 556 OFFCURVE",
"36 345 CURVE SMOOTH",
"36 135 OFFCURVE",
"100 -14 OFFCURVE",
"265 -14 CURVE",
"265 7 LINE",
"112 7 OFFCURVE",
"60 155 OFFCURVE",
"60 345 CURVE SMOOTH",
"60 536 OFFCURVE",
"112 683 OFFCURVE",
"265 683 CURVE",
"265 704 LINE"
);
}
);
width = 530;
},
{
layerId = "518735FF-A855-4455-BD68-071AC00DFA4E";
name = Regular;
paths = (
{
closed = 1;
nodes = (
"290 636 LINE",
"400 636 OFFCURVE",
"443 526 OFFCURVE",
"443 345 CURVE SMOOTH",
"443 165 OFFCURVE",
"400 54 OFFCURVE",
"290 54 CURVE",
"290 -14 LINE",
"480 -14 OFFCURVE",
"539 145 OFFCURVE",
"539 345 CURVE SMOOTH",
"539 546 OFFCURVE",
"480 704 OFFCURVE",
"290 704 CURVE"
);
},
{
closed = 1;
nodes = (
"100 704 OFFCURVE",
"41 546 OFFCURVE",
"41 345 CURVE SMOOTH",
"41 145 OFFCURVE",
"100 -14 OFFCURVE",
"290 -14 CURVE",
"290 54 LINE",
"180 54 OFFCURVE",
"137 165 OFFCURVE",
"137 345 CURVE SMOOTH",
"137 526 OFFCURVE",
"180 636 OFFCURVE",
"290 636 CURVE",
"290 704 LINE"
);
}
);
width = 580;
},
{
layerId = "F37E1481-2EA3-4843-874F-9D06DA6D7C4C";
name = Bold;
paths = (
{
closed = 1;
nodes = (
"331 572 LINE",
"394 572 OFFCURVE",
"428 516 OFFCURVE",
"428 345 CURVE SMOOTH",
"428 175 OFFCURVE",
"394 118 OFFCURVE",
"331 118 CURVE",
"331 -14 LINE",
"531 -14 OFFCURVE",
"616 115 OFFCURVE",
"616 345 CURVE SMOOTH",
"616 576 OFFCURVE",
"531 704 OFFCURVE",
"331 704 CURVE"
);
},
{
closed = 1;
nodes = (
"131 704 OFFCURVE",
"46 576 OFFCURVE",
"46 345 CURVE SMOOTH",
"46 115 OFFCURVE",
"131 -14 OFFCURVE",
"331 -14 CURVE",
"331 118 LINE",
"268 118 OFFCURVE",
"234 175 OFFCURVE",
"234 345 CURVE SMOOTH",
"234 516 OFFCURVE",
"268 572 OFFCURVE",
"331 572 CURVE",
"331 704 LINE"
);
}
);
width = 662;
}
);
unicode = 0030;
},
{
glyphname = one;
lastChange = "2014-04-12 01:45:39 +0900";
layers = (
{
layerId = "4375068D-FDA0-47DA-A897-61BBB4269C7B";
name = Light;
paths = (
{
closed = 1;
nodes = (
"338 690 LINE SMOOTH",
"327 690 OFFCURVE",
"320 688 OFFCURVE",
"296 673 CURVE SMOOTH",
"137 573 LINE",
"137 548 LINE",
"334 670 LINE",
"327 677 LINE",
"327 0 LINE",
"349 0 LINE",
"349 690 LINE"
);
}
);
width = 530;
},
{
layerId = "518735FF-A855-4455-BD68-071AC00DFA4E";
name = Regular;
paths = (
{
closed = 1;
nodes = (
"351 690 LINE SMOOTH",
"327 690 OFFCURVE",
"303 685 OFFCURVE",
"276 668 CURVE SMOOTH",
"130 577 LINE",
"130 486 LINE",
"333 607 LINE",
"320 610 LINE",
"320 0 LINE",
"406 0 LINE",
"406 690 LINE"
);
}
);
width = 580;
},
{
layerId = "F37E1481-2EA3-4843-874F-9D06DA6D7C4C";
name = Bold;
paths = (
{
closed = 1;
nodes = (
"430 690 LINE SMOOTH",
"379 690 OFFCURVE",
"333 676 OFFCURVE",
"289 651 CURVE SMOOTH",
"118 553 LINE",
"118 392 LINE",
"366 522 LINE",
"328 543 LINE",
"328 0 LINE",
"508 0 LINE",
"508 690 LINE"
);
}
);
width = 662;
}
);
unicode = 0031;
},
{
glyphname = two;
lastChange = "2014-04-12 01:45:39 +0900";
layers = (
{
layerId = "4375068D-FDA0-47DA-A897-61BBB4269C7B";
name = Light;
paths = (
{
closed = 1;
nodes = (
"170 704 OFFCURVE",
"84 623 OFFCURVE",
"71 498 CURVE SMOOTH",
"70 488 LINE",
"92 488 LINE",
"93 498 LINE SMOOTH",
"104 610 OFFCURVE",
"180 683 OFFCURVE",
"283 683 CURVE SMOOTH",
"392 683 OFFCURVE",
"452 610 OFFCURVE",
"452 516 CURVE SMOOTH",
"452 438 OFFCURVE",
"412 378 OFFCURVE",
"279 248 CURVE SMOOTH",
"40 16 LINE",
"40 0 LINE",
"481 0 LINE",
"481 21 LINE",
"58 21 LINE",
"66 13 LINE",
"298 237 LINE SMOOTH",
"416 350 OFFCURVE",
"476 428 OFFCURVE",
"476 516 CURVE SMOOTH",
"476 619 OFFCURVE",
"412 704 OFFCURVE",
"283 704 CURVE SMOOTH"
);
}
);
width = 530;
},
{
layerId = "518735FF-A855-4455-BD68-071AC00DFA4E";
name = Regular;
paths = (
{
closed = 1;
nodes = (
"178 704 OFFCURVE",
"92 628 OFFCURVE",
"78 484 CURVE SMOOTH",
"77 474 LINE",
"163 474 LINE",
"164 484 LINE SMOOTH",
"174 581 OFFCURVE",
"217 636 OFFCURVE",
"306 636 CURVE SMOOTH",
"389 636 OFFCURVE",
"430 575 OFFCURVE",
"430 504 CURVE SMOOTH",
"430 437 OFFCURVE",
"391 387 OFFCURVE",
"310 304 CURVE SMOOTH",
"60 49 LINE",
"60 0 LINE",
"523 0 LINE",
"523 70 LINE",
"108 70 LINE",
"153 38 LINE",
"358 241 LINE SMOOTH",
"475 356 OFFCURVE",
"526 420 OFFCURVE",
"526 514 CURVE SMOOTH",
"526 617 OFFCURVE",
"457 704 OFFCURVE",
"316 704 CURVE SMOOTH"
);
}
);
width = 580;
},
{
layerId = "F37E1481-2EA3-4843-874F-9D06DA6D7C4C";
name = Bold;
paths = (
{
closed = 1;
nodes = (
"181 706 OFFCURVE",
"85 621 OFFCURVE",
"70 469 CURVE SMOOTH",
"69 459 LINE",
"249 459 LINE",
"250 469 LINE SMOOTH",
"257 541 OFFCURVE",
"283 574 OFFCURVE",
"335 574 CURVE SMOOTH",
"384 574 OFFCURVE",
"413 545 OFFCURVE",
"413 493 CURVE SMOOTH",
"413 427 OFFCURVE",
"378 379 OFFCURVE",
"275 282 CURVE SMOOTH",
"58 78 LINE",
"58 0 LINE",
"593 0 LINE",
"593 140 LINE",
"226 140 LINE",
"295 98 LINE",
"431 229 LINE SMOOTH",
"564 357 OFFCURVE",
"601 419 OFFCURVE",
"601 500 CURVE SMOOTH",
"601 629 OFFCURVE",
"511 706 OFFCURVE",
"350 706 CURVE SMOOTH"
);
}
);
width = 662;
}
);
unicode = 0032;
},
{
glyphname = three;
lastChange = "2014-04-12 01:45:39 +0900";
layers = (
{
layerId = "4375068D-FDA0-47DA-A897-61BBB4269C7B";
name = Light;
paths = (
{
closed = 1;
nodes = (
"176 704 OFFCURVE",
"89 633 OFFCURVE",
"77 509 CURVE SMOOTH",
"76 499 LINE",
"98 499 LINE",
"99 509 LINE SMOOTH",
"110 619 OFFCURVE",
"183 683 OFFCURVE",
"286 683 CURVE SMOOTH",
"379 683 OFFCURVE",
"453 635 OFFCURVE",
"453 529 CURVE SMOOTH",
"453 425 OFFCURVE",
"348 364 OFFCURVE",
"256 364 CURVE SMOOTH",
"239 364 LINE",
"239 343 LINE",
"256 343 LINE SMOOTH",
"401 343 OFFCURVE",
"464 274 OFFCURVE",
"464 183 CURVE SMOOTH",
"464 70 OFFCURVE",
"378 7 OFFCURVE",
"264 7 CURVE SMOOTH",
"146 7 OFFCURVE",
"79 86 OFFCURVE",
"68 194 CURVE SMOOTH",
"67 204 LINE",
"45 204 LINE",
"46 194 LINE SMOOTH",
"60 58 OFFCURVE",
"144 -14 OFFCURVE",
"264 -14 CURVE SMOOTH",
"391 -14 OFFCURVE",
"488 60 OFFCURVE",
"488 183 CURVE SMOOTH",
"488 299 OFFCURVE",
"411 354 OFFCURVE",
"293 361 CURVE",
"287 353 LINE",
"391 353 OFFCURVE",
"477 432 OFFCURVE",
"477 531 CURVE SMOOTH",
"477 629 OFFCURVE",
"411 704 OFFCURVE",
"287 704 CURVE SMOOTH"
);
}
);
width = 530;
},
{
layerId = "518735FF-A855-4455-BD68-071AC00DFA4E";
name = Regular;
paths = (
{
closed = 1;
nodes = (
"171 704 OFFCURVE",
"86 626 OFFCURVE",
"73 501 CURVE SMOOTH",
"72 491 LINE",
"158 491 LINE",
"159 501 LINE SMOOTH",
"168 592 OFFCURVE",
"227 636 OFFCURVE",
"300 636 CURVE SMOOTH",
"373 636 OFFCURVE",
"422 588 OFFCURVE",
"422 519 CURVE SMOOTH",
"422 432 OFFCURVE",
"356 384 OFFCURVE",
"274 384 CURVE SMOOTH",
"257 384 LINE",
"257 314 LINE",
"274 314 LINE SMOOTH",
"386 314 OFFCURVE",
"438 268 OFFCURVE",
"438 187 CURVE SMOOTH",
"438 103 OFFCURVE",
"377 54 OFFCURVE",
"292 54 CURVE SMOOTH",
"208 54 OFFCURVE",
"142 97 OFFCURVE",
"132 194 CURVE SMOOTH",
"131 204 LINE",
"45 204 LINE",
"46 194 LINE SMOOTH",
"61 45 OFFCURVE",
"153 -14 OFFCURVE",
"284 -14 CURVE SMOOTH",
"417 -14 OFFCURVE",
"534 63 OFFCURVE",
"534 192 CURVE SMOOTH",
"534 311 OFFCURVE",
"443 378 OFFCURVE",
"305 378 CURVE",
"335 358 LINE",
"439 358 OFFCURVE",
"518 429 OFFCURVE",
"518 529 CURVE SMOOTH",
"518 633 OFFCURVE",
"438 704 OFFCURVE",
"311 704 CURVE SMOOTH"
);
}
);
width = 580;
},
{
layerId = "F37E1481-2EA3-4843-874F-9D06DA6D7C4C";
name = Bold;
paths = (
{
closed = 1;
nodes = (
"165 704 OFFCURVE",
"79 600 OFFCURVE",
"67 484 CURVE SMOOTH",
"66 474 LINE",
"246 474 LINE",
"247 484 LINE SMOOTH",
"251 529 OFFCURVE",
"273 572 OFFCURVE",
"326 572 CURVE SMOOTH",
"376 572 OFFCURVE",
"403 544 OFFCURVE",
"403 499 CURVE SMOOTH",
"403 452 OFFCURVE",
"370 416 OFFCURVE",
"304 411 CURVE SMOOTH",
"277 409 LINE",
"277 293 LINE",
"304 292 LINE SMOOTH",
"376 289 OFFCURVE",
"419 259 OFFCURVE",
"419 200 CURVE SMOOTH",
"419 153 OFFCURVE",
"380 118 OFFCURVE",
"318 118 CURVE SMOOTH",
"259 118 OFFCURVE",
"225 161 OFFCURVE",
"215 209 CURVE SMOOTH",
"213 219 LINE",
"33 219 LINE",
"34 209 LINE SMOOTH",
"48 71 OFFCURVE",
"150 -14 OFFCURVE",
"325 -14 CURVE SMOOTH",
"499 -14 OFFCURVE",
"607 73 OFFCURVE",
"607 205 CURVE SMOOTH",
"607 322 OFFCURVE",
"522 372 OFFCURVE",
"354 372 CURVE",
"354 352 LINE",
"517 352 OFFCURVE",
"591 412 OFFCURVE",
"591 520 CURVE SMOOTH",
"591 618 OFFCURVE",
"513 704 OFFCURVE",
"344 704 CURVE SMOOTH"
);
}
);
width = 662;
}
);
unicode = 0033;
},
{
glyphname = four;
lastChange = "2014-04-12 01:45:39 +0900";
layers = (
{
layerId = "4375068D-FDA0-47DA-A897-61BBB4269C7B";
name = Light;
paths = (
{
closed = 1;
nodes = (
"21 216 LINE",
"21 200 LINE",
"504 200 LINE",
"504 221 LINE",
"32 221 LINE",
"44 213 LINE",
"293 535 LINE SMOOTH",
"334 588 OFFCURVE",
"367 632 OFFCURVE",
"386 660 CURVE",
"388 690 LINE"
);
},
{
closed = 1;
nodes = (
"388 690 LINE",
"383 675 LINE",
"383 0 LINE",
"405 0 LINE",
"405 690 LINE"
);
}
);
width = 530;
},
{
layerId = "518735FF-A855-4455-BD68-071AC00DFA4E";
name = Regular;
paths = (
{
closed = 1;
nodes = (
"33 217 LINE",
"33 174 LINE",
"548 174 LINE",
"548 244 LINE",
"74 244 LINE",
"120 213 LINE",
"318 487 LINE SMOOTH",
"357 541 OFFCURVE",
"381 584 OFFCURVE",
"404 627 CURVE",
"375 690 LINE"
);
},
{
closed = 1;
nodes = (
"375 690 LINE",
"375 613 LINE",
"375 0 LINE",
"461 0 LINE",
"461 690 LINE"
);
}
);
width = 580;
},
{
layerId = "F37E1481-2EA3-4843-874F-9D06DA6D7C4C";
name = Bold;
paths = (
{
closed = 1;
nodes = (
"38 253 LINE",
"38 154 LINE",
"626 154 LINE",
"626 294 LINE",
"134 294 LINE",
"173 223 LINE",
"325 439 LINE SMOOTH",
"344 466 OFFCURVE",
"369 511 OFFCURVE",
"396 567 CURVE",
"346 690 LINE"
);
},
{
closed = 1;
nodes = (
"346 690 LINE",
"362 613 LINE",
"362 0 LINE",
"542 0 LINE",
"542 690 LINE"
);
}
);
width = 662;
}
);
unicode = 0034;
},
{
glyphname = five;
lastChange = "2014-04-12 01:45:39 +0900";
layers = (
{
layerId = "4375068D-FDA0-47DA-A897-61BBB4269C7B";
name = Light;
paths = (
{
closed = 1;
nodes = (
"129 686 LINE",
"64 295 LINE",
"86 295 LINE",
"124 376 OFFCURVE",
"191 411 OFFCURVE",
"273 411 CURVE SMOOTH",
"381 411 OFFCURVE",
"457 333 OFFCURVE",
"457 210 CURVE SMOOTH",
"457 70 OFFCURVE",
"354 7 OFFCURVE",
"258 7 CURVE SMOOTH",
"151 7 OFFCURVE",
"83 79 OFFCURVE",
"73 178 CURVE SMOOTH",
"72 188 LINE",
"50 188 LINE",
"51 178 LINE SMOOTH",
"65 41 OFFCURVE",
"163 -14 OFFCURVE",
"257 -14 CURVE SMOOTH",
"378 -14 OFFCURVE",
"481 69 OFFCURVE",
"481 211 CURVE SMOOTH",
"481 336 OFFCURVE",
"404 432 OFFCURVE",
"275 432 CURVE SMOOTH",
"216 432 OFFCURVE",
"169 414 OFFCURVE",
"128 383 CURVE",
"79 320 LINE",
"88 323 LINE",
"150 676 LINE",
"140 665 LINE",
"479 665 LINE",
"479 686 LINE"
);
}
);
width = 530;
},
{
layerId = "518735FF-A855-4455-BD68-071AC00DFA4E";
name = Regular;
paths = (
{
closed = 1;
nodes = (
"116 690 LINE",
"68 289 LINE",
"150 289 LINE",
"184 360 OFFCURVE",
"230 387 OFFCURVE",
"294 387 CURVE SMOOTH",
"386 387 OFFCURVE",
"441 322 OFFCURVE",
"441 218 CURVE SMOOTH",
"441 114 OFFCURVE",
"381 54 OFFCURVE",
"290 54 CURVE SMOOTH",
"204 54 OFFCURVE",
"161 104 OFFCURVE",
"145 183 CURVE SMOOTH",
"143 193 LINE",
"57 193 LINE",
"58 183 LINE SMOOTH",
"71 53 OFFCURVE",
"152 -14 OFFCURVE",
"291 -14 CURVE SMOOTH",
"419 -14 OFFCURVE",
"537 72 OFFCURVE",
"537 224 CURVE SMOOTH",
"537 355 OFFCURVE",
"461 455 OFFCURVE",
"307 455 CURVE SMOOTH",
"265 455 OFFCURVE",
"231 446 OFFCURVE",
"198 426 CURVE",
"129 352 LINE",
"151 349 LINE",
"192 665 LINE",
"144 620 LINE",
"508 620 LINE",
"508 690 LINE"
);
}
);
width = 580;
},
{
layerId = "F37E1481-2EA3-4843-874F-9D06DA6D7C4C";
name = Bold;
paths = (
{
closed = 1;
nodes = (
"120 690 LINE",
"69 276 LINE",
"235 276 LINE",
"251 318 OFFCURVE",
"277 338 OFFCURVE",
"323 338 CURVE SMOOTH",
"385 338 OFFCURVE",
"419 291 OFFCURVE",
"419 228 CURVE SMOOTH",
"419 166 OFFCURVE",
"387 118 OFFCURVE",
"320 118 CURVE SMOOTH",
"271 118 OFFCURVE",
"243 147 OFFCURVE",
"238 194 CURVE SMOOTH",
"237 204 LINE",
"57 204 LINE",
"58 194 LINE SMOOTH",
"73 47 OFFCURVE",
"166 -14 OFFCURVE",
"332 -14 CURVE SMOOTH",
"474 -14 OFFCURVE",
"607 71 OFFCURVE",
"607 233 CURVE SMOOTH",
"607 384 OFFCURVE",
"517 470 OFFCURVE",
"379 470 CURVE SMOOTH",
"341 470 OFFCURVE",
"304 463 OFFCURVE",
"272 445 CURVE",
"229 369 LINE",
"239 349 LINE",
"273 586 LINE",
"243 550 LINE",
"580 550 LINE",
"580 690 LINE"
);
}
);
width = 662;
}
);
unicode = 0035;
},
{
glyphname = six;
lastChange = "2014-04-12 01:45:39 +0900";
layers = (
{
layerId = "4375068D-FDA0-47DA-A897-61BBB4269C7B";
name = Light;
paths = (
{
closed = 1;
nodes = (
"134 704 OFFCURVE",
"43 585 OFFCURVE",
"43 299 CURVE SMOOTH",
"43 75 OFFCURVE",
"130 -14 OFFCURVE",
"266 -14 CURVE SMOOTH",
"402 -14 OFFCURVE",
"495 90 OFFCURVE",
"495 219 CURVE SMOOTH",
"495 347 OFFCURVE",
"418 458 OFFCURVE",
"275 458 CURVE SMOOTH",
"196 458 OFFCURVE",
"127 422 OFFCURVE",
"83 355 CURVE",
"61 298 LINE",
"63 280 LINE",
"63 614 OFFCURVE",
"172 683 OFFCURVE",
"285 683 CURVE SMOOTH",
"382 683 OFFCURVE",
"439 633 OFFCURVE",
"460 528 CURVE SMOOTH",
"462 518 LINE",
"484 518 LINE",
"482 528 LINE SMOOTH",
"460 636 OFFCURVE",
"407 704 OFFCURVE",
"285 704 CURVE SMOOTH"
);
},
{
closed = 1;
nodes = (
"393 437 OFFCURVE",
"471 344 OFFCURVE",
"471 218 CURVE SMOOTH",
"471 102 OFFCURVE",
"392 7 OFFCURVE",
"267 7 CURVE SMOOTH",
"140 7 OFFCURVE",
"70 109 OFFCURVE",
"70 236 CURVE SMOOTH",
"70 351 OFFCURVE",
"161 437 OFFCURVE",
"273 437 CURVE SMOOTH"
);
}
);
width = 530;
},
{
layerId = "518735FF-A855-4455-BD68-071AC00DFA4E";
name = Regular;
paths = (
{
closed = 1;
nodes = (
"168 704 OFFCURVE",
"43 590 OFFCURVE",
"43 312 CURVE SMOOTH",
"43 83 OFFCURVE",
"133 -14 OFFCURVE",
"287 -14 CURVE SMOOTH",
"427 -14 OFFCURVE",
"531 85 OFFCURVE",
"531 232 CURVE SMOOTH",
"531 369 OFFCURVE",
"446 466 OFFCURVE",
"302 466 CURVE SMOOTH",
"252 466 OFFCURVE",
"213 453 OFFCURVE",
"176 422 CURVE",
"121 335 LINE",
"136 320 LINE",
"136 551 OFFCURVE",
"204 636 OFFCURVE",
"303 636 CURVE SMOOTH",
"373 636 OFFCURVE",
"414 596 OFFCURVE",
"430 518 CURVE SMOOTH",
"432 508 LINE",
"524 508 LINE",
"523 518 LINE SMOOTH",
"512 631 OFFCURVE",
"428 704 OFFCURVE",
"310 704 CURVE SMOOTH"
);
},
{
closed = 1;
nodes = (
"392 398 OFFCURVE",
"435 318 OFFCURVE",
"435 222 CURVE SMOOTH",
"435 122 OFFCURVE",
"373 54 OFFCURVE",
"287 54 CURVE SMOOTH",
"200 54 OFFCURVE",
"143 128 OFFCURVE",
"143 224 CURVE SMOOTH",
"143 339 OFFCURVE",
"209 398 OFFCURVE",
"287 398 CURVE SMOOTH"
);
}
);
width = 580;
},
{
layerId = "F37E1481-2EA3-4843-874F-9D06DA6D7C4C";
name = Bold;
paths = (
{
closed = 1;
nodes = (
"173 704 OFFCURVE",
"54 570 OFFCURVE",
"54 332 CURVE SMOOTH",
"54 93 OFFCURVE",
"148 -14 OFFCURVE",
"336 -14 CURVE SMOOTH",
"480 -14 OFFCURVE",
"613 73 OFFCURVE",
"613 243 CURVE SMOOTH",
"613 361 OFFCURVE",
"545 462 OFFCURVE",
"388 462 CURVE SMOOTH",
"340 462 OFFCURVE",
"304 455 OFFCURVE",
"267 426 CURVE",
"215 326 LINE",
"234 326 LINE",
"234 497 OFFCURVE",
"270 572 OFFCURVE",
"343 572 CURVE SMOOTH",
"385 572 OFFCURVE",
"410 552 OFFCURVE",
"424 504 CURVE SMOOTH",
"426 494 LINE",
"606 494 LINE",
"605 504 LINE SMOOTH",
"589 627 OFFCURVE",
"507 704 OFFCURVE",
"353 704 CURVE SMOOTH"
);
},
{
closed = 1;
nodes = (
"391 330 OFFCURVE",
"425 288 OFFCURVE",
"425 221 CURVE SMOOTH",
"425 167 OFFCURVE",
"395 118 OFFCURVE",
"334 118 CURVE SMOOTH",
"277 118 OFFCURVE",
"242 160 OFFCURVE",
"242 225 CURVE SMOOTH",
"242 292 OFFCURVE",
"283 330 OFFCURVE",
"332 330 CURVE SMOOTH"
);
}
);
width = 662;
}
);
unicode = 0036;
},
{
glyphname = seven;
lastChange = "2014-04-12 01:45:39 +0900";
layers = (
{
layerId = "4375068D-FDA0-47DA-A897-61BBB4269C7B";
name = Light;
paths = (
{
closed = 1;
nodes = (
"45 690 LINE",
"45 669 LINE",
"486 669 LINE",
"473 681 LINE",
"107 0 LINE",
"133 0 LINE",
"497 679 LINE",
"497 690 LINE"
);
}
);
width = 530;
},
{
layerId = "518735FF-A855-4455-BD68-071AC00DFA4E";
name = Regular;
paths = (
{
closed = 1;
nodes = (
"50 690 LINE",
"50 620 LINE",
"477 620 LINE",
"444 641 LINE",
"102 0 LINE",
"194 0 LINE",
"538 650 LINE",
"538 690 LINE"
);
}
);
width = 580;
},
{
layerId = "F37E1481-2EA3-4843-874F-9D06DA6D7C4C";
name = Bold;
paths = (
{
closed = 1;
nodes = (
"57 690 LINE",
"57 550 LINE",
"473 550 LINE",
"455 641 LINE",
"101 0 LINE",
"298 0 LINE",
"618 590 LINE",
"618 690 LINE"
);
}
);
width = 662;
}
);
unicode = 0037;
},
{
glyphname = eight;
lastChange = "2014-04-12 01:45:39 +0900";
layers = (
{
layerId = "4375068D-FDA0-47DA-A897-61BBB4269C7B";
name = Light;
paths = (
{
closed = 1;
nodes = (
"144 704 OFFCURVE",
"73 623 OFFCURVE",
"73 525 CURVE SMOOTH",
"73 435 OFFCURVE",
"124 370 OFFCURVE",
"213 355 CURVE",
"213 363 LINE",
"105 344 OFFCURVE",
"39 273 OFFCURVE",
"39 175 CURVE SMOOTH",
"39 52 OFFCURVE",
"136 -15 OFFCURVE",
"265 -15 CURVE SMOOTH",
"386 -15 OFFCURVE",
"491 52 OFFCURVE",
"491 175 CURVE SMOOTH",
"491 273 OFFCURVE",
"437 343 OFFCURVE",
"329 362 CURVE",
"329 356 LINE",
"418 370 OFFCURVE",
"473 436 OFFCURVE",
"473 525 CURVE SMOOTH",
"473 623 OFFCURVE",
"408 704 OFFCURVE",
"273 704 CURVE SMOOTH"
);
},
{
closed = 1;
nodes = (
"400 348 OFFCURVE",
"467 276 OFFCURVE",
"467 175 CURVE SMOOTH",
"467 56 OFFCURVE",
"358 6 OFFCURVE",
"267 6 CURVE SMOOTH",
"168 6 OFFCURVE",
"63 56 OFFCURVE",
"63 175 CURVE SMOOTH",
"63 276 OFFCURVE",
"138 348 OFFCURVE",
"269 348 CURVE SMOOTH"
);
},
{
closed = 1;
nodes = (
"380 683 OFFCURVE",
"449 622 OFFCURVE",
"449 525 CURVE SMOOTH",
"449 416 OFFCURVE",
"359 369 OFFCURVE",
"273 369 CURVE SMOOTH",
"187 369 OFFCURVE",
"97 416 OFFCURVE",
"97 525 CURVE SMOOTH",
"97 622 OFFCURVE",
"166 683 OFFCURVE",
"273 683 CURVE SMOOTH"
);
}
);
width = 530;
},
{
layerId = "518735FF-A855-4455-BD68-071AC00DFA4E";
name = Regular;
paths = (
{
closed = 1;
nodes = (
"161 704 OFFCURVE",
"74 632 OFFCURVE",
"74 518 CURVE SMOOTH",
"74 430 OFFCURVE",
"136 370 OFFCURVE",
"215 355 CURVE",
"214 372 LINE",
"126 359 OFFCURVE",
"44 288 OFFCURVE",
"44 193 CURVE SMOOTH",
"44 42 OFFCURVE",
"159 -15 OFFCURVE",
"290 -15 CURVE SMOOTH",
"411 -15 OFFCURVE",
"536 42 OFFCURVE",
"536 193 CURVE SMOOTH",
"536 288 OFFCURVE",
"460 359 OFFCURVE",
"372 372 CURVE",
"371 356 LINE",
"450 370 OFFCURVE",
"518 430 OFFCURVE",
"518 518 CURVE SMOOTH",
"518 632 OFFCURVE",
"431 704 OFFCURVE",
"296 704 CURVE SMOOTH"
);
},
{
closed = 1;
nodes = (
"398 324 OFFCURVE",
"440 260 OFFCURVE",
"440 189 CURVE SMOOTH",
"440 110 OFFCURVE",
"393 53 OFFCURVE",
"292 53 CURVE SMOOTH",
"191 53 OFFCURVE",
"140 110 OFFCURVE",
"140 189 CURVE SMOOTH",
"140 260 OFFCURVE",
"184 324 OFFCURVE",
"291 324 CURVE SMOOTH"
);
},
{
closed = 1;
nodes = (
"383 636 OFFCURVE",
"425 581 OFFCURVE",
"425 515 CURVE SMOOTH",
"425 445 OFFCURVE",
"381 392 OFFCURVE",
"295 392 CURVE SMOOTH",
"209 392 OFFCURVE",
"167 445 OFFCURVE",
"167 515 CURVE SMOOTH",
"167 581 OFFCURVE",
"209 636 OFFCURVE",
"296 636 CURVE SMOOTH"
);
}
);
width = 580;
},
{
layerId = "F37E1481-2EA3-4843-874F-9D06DA6D7C4C";
name = Bold;
paths = (
{
closed = 1;
nodes = (
"176 704 OFFCURVE",
"85 623 OFFCURVE",
"85 509 CURVE SMOOTH",
"85 411 OFFCURVE",
"145 372 OFFCURVE",
"214 357 CURVE",
"213 374 LINE",
"135 357 OFFCURVE",
"51 303 OFFCURVE",
"51 196 CURVE SMOOTH",
"51 46 OFFCURVE",
"158 -15 OFFCURVE",
"329 -15 CURVE SMOOTH",
"490 -15 OFFCURVE",
"611 46 OFFCURVE",
"611 196 CURVE SMOOTH",
"611 303 OFFCURVE",
"529 357 OFFCURVE",
"451 374 CURVE",
"450 358 LINE",
"519 372 OFFCURVE",
"595 411 OFFCURVE",
"595 509 CURVE SMOOTH",
"595 623 OFFCURVE",
"506 704 OFFCURVE",
"341 704 CURVE SMOOTH"
);
},
{
closed = 1;
nodes = (
"390 297 OFFCURVE",
"425 261 OFFCURVE",
"425 203 CURVE SMOOTH",
"425 150 OFFCURVE",
"397 117 OFFCURVE",
"331 117 CURVE SMOOTH",
"272 117 OFFCURVE",
"237 149 OFFCURVE",
"237 206 CURVE SMOOTH",
"237 264 OFFCURVE",
"279 297 OFFCURVE",
"330 297 CURVE SMOOTH"
);
},
{
closed = 1;
nodes = (
"382 572 OFFCURVE",
"412 547 OFFCURVE",
"412 501 CURVE SMOOTH",
"412 451 OFFCURVE",
"379 426 OFFCURVE",
"337 426 CURVE SMOOTH",
"296 426 OFFCURVE",
"268 451 OFFCURVE",
"268 501 CURVE SMOOTH",
"268 547 OFFCURVE",
"299 572 OFFCURVE",
"338 572 CURVE SMOOTH"
);
}
);
width = 662;
}
);
unicode = 0038;
},
{
glyphname = nine;
lastChange = "2014-04-11 10:53:26 +0900";
layers = (
{
layerId = "4375068D-FDA0-47DA-A897-61BBB4269C7B";
name = Light;
paths = (
{
closed = 1;
nodes = (
"128 704 OFFCURVE",
"35 600 OFFCURVE",
"35 471 CURVE SMOOTH",
"35 343 OFFCURVE",
"112 232 OFFCURVE",
"255 232 CURVE SMOOTH",
"334 232 OFFCURVE",
"403 268 OFFCURVE",
"447 335 CURVE",
"469 392 LINE",
"467 410 LINE",
"467 86 OFFCURVE",
"359 7 OFFCURVE",
"246 7 CURVE SMOOTH",
"149 7 OFFCURVE",
"91 57 OFFCURVE",
"70 162 CURVE SMOOTH",
"68 172 LINE",
"46 172 LINE",
"48 162 LINE SMOOTH",
"70 54 OFFCURVE",
"124 -14 OFFCURVE",
"246 -14 CURVE SMOOTH",
"397 -14 OFFCURVE",
"487 115 OFFCURVE",
"487 391 CURVE SMOOTH",
"487 615 OFFCURVE",
"400 704 OFFCURVE",
"264 704 CURVE SMOOTH"
);
},
{
closed = 1;
nodes = (
"390 683 OFFCURVE",
"460 581 OFFCURVE",
"460 454 CURVE SMOOTH",
"460 339 OFFCURVE",
"369 253 OFFCURVE",
"257 253 CURVE SMOOTH",
"137 253 OFFCURVE",
"59 346 OFFCURVE",
"59 472 CURVE SMOOTH",
"59 588 OFFCURVE",
"138 683 OFFCURVE",
"263 683 CURVE SMOOTH"
);
}
);
width = 530;
},
{
layerId = "518735FF-A855-4455-BD68-071AC00DFA4E";
name = Regular;
paths = (
{
closed = 1;
nodes = (
"153 704 OFFCURVE",
"49 605 OFFCURVE",
"49 458 CURVE SMOOTH",
"49 321 OFFCURVE",
"134 224 OFFCURVE",
"278 224 CURVE SMOOTH",
"328 224 OFFCURVE",
"367 237 OFFCURVE",
"404 268 CURVE",
"459 355 LINE",
"444 370 LINE",
"444 139 OFFCURVE",
"376 54 OFFCURVE",
"277 54 CURVE SMOOTH",
"207 54 OFFCURVE",
"166 94 OFFCURVE",
"150 172 CURVE SMOOTH",
"148 182 LINE",
"56 182 LINE",
"57 172 LINE SMOOTH",
"68 59 OFFCURVE",
"152 -14 OFFCURVE",
"270 -14 CURVE SMOOTH",
"412 -14 OFFCURVE",
"537 100 OFFCURVE",
"537 378 CURVE SMOOTH",
"537 607 OFFCURVE",
"447 704 OFFCURVE",
"293 704 CURVE SMOOTH"
);
},
{
closed = 1;
nodes = (
"380 636 OFFCURVE",
"437 562 OFFCURVE",
"437 466 CURVE SMOOTH",
"437 351 OFFCURVE",
"371 292 OFFCURVE",
"293 292 CURVE SMOOTH",
"188 292 OFFCURVE",
"145 372 OFFCURVE",
"145 468 CURVE SMOOTH",
"145 568 OFFCURVE",
"207 636 OFFCURVE",
"293 636 CURVE SMOOTH"
);
}
);
width = 580;
},
{
layerId = "F37E1481-2EA3-4843-874F-9D06DA6D7C4C";
name = Bold;
paths = (
{
closed = 1;
nodes = (
"182 704 OFFCURVE",
"49 617 OFFCURVE",
"49 447 CURVE SMOOTH",
"49 329 OFFCURVE",
"117 228 OFFCURVE",
"274 228 CURVE SMOOTH",
"322 228 OFFCURVE",
"358 235 OFFCURVE",
"395 264 CURVE",
"447 364 LINE",
"428 364 LINE",
"428 193 OFFCURVE",
"392 118 OFFCURVE",
"319 118 CURVE SMOOTH",
"273 118 OFFCURVE",
"248 138 OFFCURVE",
"238 186 CURVE SMOOTH",
"236 196 LINE",
"56 196 LINE",
"57 186 LINE SMOOTH",
"69 63 OFFCURVE",
"151 -14 OFFCURVE",
"309 -14 CURVE SMOOTH",
"493 -14 OFFCURVE",
"608 120 OFFCURVE",
"608 358 CURVE SMOOTH",
"608 597 OFFCURVE",
"514 704 OFFCURVE",
"326 704 CURVE SMOOTH"
);
},
{
closed = 1;
nodes = (
"385 572 OFFCURVE",
"420 530 OFFCURVE",
"420 465 CURVE SMOOTH",
"420 398 OFFCURVE",
"379 360 OFFCURVE",
"330 360 CURVE SMOOTH",
"271 360 OFFCURVE",
"237 402 OFFCURVE",
"237 469 CURVE SMOOTH",
"237 523 OFFCURVE",
"267 572 OFFCURVE",
"328 572 CURVE SMOOTH"
);
}
);
width = 662;
}
);
unicode = 0039;
},
{
glyphname = fraction;
lastChange = "2014-04-12 01:45:38 +0900";
layers = (
{
layerId = "518735FF-A855-4455-BD68-071AC00DFA4E";
name = Regular;
paths = (
{
closed = 1;
nodes = (
"298 690 LINE",
"-150 0 LINE",
"-63 0 LINE",
"385 690 LINE"
);
}
);
width = 235;
},
{
layerId = "4375068D-FDA0-47DA-A897-61BBB4269C7B";
name = Light;
paths = (
{
closed = 1;
nodes = (
"247 690 LINE",
"-200 0 LINE",
"-174 0 LINE",
"273 690 LINE"
);
}
);
width = 73;
},
{
layerId = "F37E1481-2EA3-4843-874F-9D06DA6D7C4C";
name = Bold;
paths = (
{
closed = 1;
nodes = (
"347 690 LINE",
"-100 0 LINE",
"23 0 LINE",
"470 690 LINE"
);
}
);
width = 370;
}
);
unicode = 2044;
},
{
glyphname = asterisk;
lastChange = "2014-04-12 01:45:38 +0900";
layers = (
{
layerId = "4375068D-FDA0-47DA-A897-61BBB4269C7B";
name = Light;
paths = (
{
closed = 1;
nodes = (
"253 474 LINE",
"256 280 LINE",
"97 337 LINE",
"90 315 LINE",
"250 263 LINE",
"137 114 LINE",
"157 100 LINE",
"265 254 LINE",
"373 100 LINE",
"393 114 LINE",
"280 263 LINE",
"440 315 LINE",
"433 337 LINE",
"274 280 LINE",
"277 474 LINE"
);
}
);
width = 530;
},
{
layerId = "518735FF-A855-4455-BD68-071AC00DFA4E";
name = Regular;
paths = (
{
closed = 1;
nodes = (
"249 475 LINE",
"259 296 LINE",
"104 357 LINE",
"85 298 LINE",
"244 257 LINE",
"131 119 LINE",
"181 82 LINE",
"280 235 LINE",
"379 82 LINE",
"429 119 LINE",
"316 257 LINE",
"475 298 LINE",
"456 357 LINE",
"301 296 LINE",
"311 475 LINE"
);
}
);
width = 560;
},
{
layerId = "F37E1481-2EA3-4843-874F-9D06DA6D7C4C";
name = Bold;
paths = (
{
closed = 1;
nodes = (
"257 475 LINE",
"271 331 LINE",
"148 386 LINE",
"113 275 LINE",
"246 246 LINE",
"147 134 LINE",
"241 66 LINE",
"315 191 LINE",
"389 66 LINE",
"483 134 LINE",
"384 246 LINE",
"517 275 LINE",
"482 386 LINE",
"359 331 LINE",
"373 475 LINE"
);
}
);
width = 630;
}
);
unicode = 002A;
},
{
glyphname = backslash;
lastChange = "2014-04-12 01:45:38 +0900";
layers = (
{
layerId = "4375068D-FDA0-47DA-A897-61BBB4269C7B";
name = Light;
paths = (
{
closed = 1;
nodes = (
"-5 720 LINE",
"246 -30 LINE",
"268 -30 LINE",
"17 720 LINE"
);
}
);
width = 263;
},
{
layerId = "518735FF-A855-4455-BD68-071AC00DFA4E";
name = Regular;
paths = (
{
closed = 1;
nodes = (
"-5 720 LINE",
"246 -30 LINE",
"308 -30 LINE",
"57 720 LINE"
);
}
);
width = 303;
},
{
layerId = "F37E1481-2EA3-4843-874F-9D06DA6D7C4C";
name = Bold;
paths = (
{
closed = 1;
nodes = (
"-5 720 LINE",
"246 -30 LINE",
"351 -30 LINE",
"100 720 LINE"
);
}
);
width = 346;
}
);
unicode = 005C;
},
